/* XPM */
static char * help3_xpm[] = {
"64 42 6 1",
"X  	c Gray75 s backgroundToolBarColor",
"i	c Gray20",
"@	c rgb:00/df/ff",
"T	c red",
"t	c pink",
"o	c black",
"XXXXXXXXXXXXXXXXXXXXXXXXXXXXXXXXXXXXXXXXXXXXXXXXXXXXXXXXXXXXXXXX",
"XXXXXXXXXXXXXXXXXXXXXXXXXXXiiiiiiiiXXXXXXXXXXXXXXXXXXXXXXXXXXXXX",
"XXXXXXXXXXXXXXXXXXXXXXXiiii@@@@@@@@iiiXXXXXXXXXXXXXXXXXXXXXXXXXX",
"XXXXXXXXXXXXXXXXXXXXXXi@@@@@@@@@@@@@@@iiiXXXXXiXXXXXXXXXXXXXXXXX",
"XXXXXXXXXXXXXXXXXXXXii@@@@@@@@@@@@@@@@@@@iXXXXX@XX@XiXXXXXXXXXXX",
"XXXXXXXXXXXXXiXXXXXi@@@@@@@@@@@@@@@@@@@@@@iXXXi@@ii@@XXXXXXXXXXX",
"XXXXXXXXiiXiXiXXXXi@@@@@@@@@@@@@@@@@@@@@@@@iXXXi@@@@iXXXXXXXXXXX",
"XXXXXXXXi@@@@iXXXi@@@@@@@@@@@@@@@@@@@@@@@@@@iii@@@@@@iXXXXXXXXXX",
"XXXXXXXXXi@@@@iii@@@@@@@@@@@@@@@@@@@@@@@@@@@@i@@@@@@@iXXXXXXXXXX",
"XXXXXXXXXX@@@@@@@@@@@@@@@@@@@@@@@@@@@@@@@@@@@@iiii@@iXXXXXXXXXXX",
"XXXXXXXXXXi@@iii@@@@@@@@@@@@@@@@@@@@@@@@@@@@@@iXXi@@iXXXXXXXXXXX",
"XXXXXXXXXXi@@XXi@@@@@@@@@@@@@@@@@@@@@@@@@@@@@@@iXi@@@iXXXXXXXXXX",
"XXXXXXXXXXi@iXi@@@@@@@@@@@@@@@@@@@@@@@@@@@@@@@@iXi@@@iXXXXXXXXXX",
"XXXXXXXXXXi@XXi@@@@@@@@@@@@@@@@@@@@@@@@@@@@ii@@@@iii@@iXXXXXXXXX",
"XXXXXXXXXXi@iii@@@oo@@@@@@@@@@@@@@@@@@@@@@oooi@@@@@@@@@@iXXXXXXX",
"XXXXXXXXXi@@@@@@@@oo@@@@@@@@@@@@@@@@@@@@@ooo@@@iiiiiiiiiXXXXXXXX",
"XXXXXXXXXiiiiiii@@@ooi@@@@@@@@@@@@@@@@@ioooo@@iXXXXXXXXXXXXXXXXX",
"XXXXXXXXXXXXXXXXi@@ioooi@@@@@@@@@@@i@@oooooo@@iXXXXXXXXXXXXXXXXX",
"XXXXXXXXXXXXXXXXi@@@ooooooi@i@@@@iioooooooi@@iXXXXXXXXXXXXXXXXXX",
"XXXXXXXXXXXXXXXXXi@@iooooooooooooooooooooi@@iXXXXXXXXXXXXXXXXXXX",
"XXXXXXXXXXXXXXXXXXii@@ioooiiTiTiTiToooooi@@iXXXXXXXXXXXXXXXXXXXX",
"XXXXXXXXXXXXXXXXXXXi@@@iioooiTTTiTTToo@@@iiXXXXXXXXXXXXXXXXXXXXX",
"XXXXXXXXXXXXXXXXXXXXiii@@@iiioTTTiTTTTiiiXXXXXXXXXXXXXXXXXXXXXXX",
"XXXXXXXXXXXXXXXXXXXXXXXii@@@@@iTTTTTTTiXXXXXXXXXXXXXXXXXXXXXXXXX",
"XXXXXXXXXXXXXXXXXXXXXXXXXiiiiiiTtTTTtTTiXXXXXXXXXXXXXXXXXXXXXXXX",
"XXXXXXXXXXXXXXXXXXXXXXXXXXXXXXiTtTTTTTiXXXXXXXXXXXXXXXXXXXXXXXXX",
"XXXXXXXXXXXXXXXXXXXXXXXXXXXXXXXiTtTTTTiXXXXXXXXXXXXXXXXXXXXXXXXX",
"XXXXXXXXXXXXXXXXXXXXXXXXXXXXXXXiTTTiiXXXXXXXXXXXXXXXXXXXXXXXXXXX",
"XXXXXXXXXXXXXXXXXXXXXXXXXXXXXXXXiiiXXXXXXXXXXXXXXXXXXXXXXXXXXXXX",
"XXXXXXXXXXXXXXXXXXXXXXXXXXXXXXXXXXXXXXXXXXXXXXXXXXXXXXXXXXXXXXXX",
"XXooooXXXXXXXXXXXXXXXooXooXXXXXoooooXXXXXXXXXXXXXXooXXXXXXXooXXX",
"XXooXooXXXXXXXXXXXXXXXoXooXXXXXooXXooXXXXXXXXXXXXXXXXXXXXXXooXXX",
"XXooXXooXXoooXXoXooXXoXXoooXXXXooXXooXXoooXXoXooXXooXXoooXXooXXX",
"XXooXXooXooXooXooXooXXXXooXXXXXooXXooXoXXooXooXooXooXooXoXXooXXX",
"XXooXXooXooXooXooXooXXXXooXXXXXoooooXXXooooXooXooXooXooXXXXooXXX",
"XXooXXooXooXooXooXooXXXXooXXXXXooXXXXXooXooXooXooXooXooXXXXooXXX",
"XXooXooXXooXooXooXooXXXXooXXXXXooXXXXXooXooXooXooXooXooXoXXXXXXX",
"XXooooXXXXoooXXooXooXXXXXooXXXXooXXXXXXooXooooXooXooXXoooXXooXXX",
"XXXXXXXXXXXXXXXXXXXXXXXXXXXXXXXXXXXXXXXXXXXXXXXXXXXXXXXXXXXXXXXX",
"XXXXXXXXXXXXXXXXXXXXXXXXXXXXXXXXXXXXXXXXXXXXXXXXXXXXXXXXXXXXXXXX",
"XXXXXXXXXXXXXXXXXXXXXXXXXXXXXXXXXXXXXXXXXXXXXXXXXXXXXXXXXXXXXXXX",
"XXXXXXXXXXXXXXXXXXXXXXXXXXXXXXXXXXXXXXXXXXXXXXXXXXXXXXXXXXXXXXXX",
