#define elisp.xbm_width 64
#define elisp.xbm_height 64
static char elisp.xbm_bits[] = {
   0x00, 0x00, 0x00, 0x00, 0x00, 0x00, 0x00, 0x00, 0x00, 0x00, 0x00, 0x00,
   0x00, 0x00, 0x00, 0x00, 0x00, 0x00, 0x00, 0x00, 0x00, 0x00, 0x00, 0x00,
   0x00, 0x00, 0x00, 0x00, 0x00, 0x00, 0x00, 0x00, 0x00, 0x00, 0x00, 0x00,
   0x00, 0x00, 0x00, 0x00, 0x00, 0x00, 0x00, 0x00, 0x00, 0x00, 0x00, 0x00,
   0x00, 0x00, 0x00, 0x00, 0x00, 0x00, 0x00, 0x00, 0x00, 0x00, 0x00, 0x00,
   0x00, 0x00, 0x00, 0x00, 0xfe, 0x3f, 0x07, 0x00, 0x1c, 0xc0, 0xe3, 0x07,
   0xfe, 0x3f, 0x07, 0x00, 0x1c, 0xf8, 0xe3, 0x0f, 0xfe, 0x3f, 0x07, 0x00,
   0x1c, 0xfe, 0xe3, 0x3e, 0xfe, 0x3f, 0x07, 0x00, 0x1c, 0x1f, 0xe0, 0x3c,
   0x0e, 0x00, 0x07, 0x00, 0x1c, 0x0f, 0xe0, 0x78, 0x0e, 0x00, 0x07, 0x00,
   0x9c, 0x07, 0xe0, 0x70, 0x0e, 0x00, 0x07, 0x00, 0x9c, 0x03, 0xe0, 0x70,
   0x0e, 0x00, 0x07, 0x00, 0x9c, 0x03, 0xe0, 0xe0, 0x0e, 0x00, 0x07, 0x00,
   0x9c, 0x01, 0xe0, 0xe0, 0x0e, 0x00, 0x07, 0x00, 0x9c, 0x01, 0xe0, 0xe0,
   0x0e, 0x00, 0x07, 0x00, 0x9c, 0x01, 0xe0, 0xe0, 0x0e, 0x00, 0x07, 0x00,
   0x9c, 0x03, 0xe0, 0xe0, 0x0e, 0x00, 0x07, 0x00, 0x9c, 0x03, 0xe0, 0xe0,
   0x0e, 0x00, 0x07, 0x00, 0x9c, 0x03, 0xe0, 0xe0, 0x0e, 0x00, 0x07, 0x00,
   0x1c, 0x07, 0xe0, 0xf0, 0x0e, 0x00, 0x07, 0x00, 0x1c, 0x0e, 0xe0, 0x78,
   0xfe, 0x3f, 0x07, 0x00, 0x1c, 0x1c, 0xe0, 0x3f, 0xfe, 0x3f, 0x07, 0x00,
   0x1c, 0x3c, 0xe0, 0x1f, 0xfe, 0x3f, 0x07, 0x00, 0x1c, 0x78, 0xe0, 0x03,
   0xfe, 0x3f, 0x07, 0x00, 0x1c, 0xf0, 0xe0, 0x00, 0x0e, 0x00, 0x07, 0x00,
   0x1c, 0xe0, 0xe1, 0x00, 0x0e, 0x00, 0x07, 0x00, 0x1c, 0xc0, 0xe1, 0x00,
   0x0e, 0x00, 0x07, 0x00, 0x1c, 0x80, 0xe3, 0x00, 0x0e, 0x00, 0x07, 0x00,
   0x1c, 0x00, 0xe3, 0x00, 0x0e, 0x00, 0x07, 0x00, 0x1c, 0x00, 0xe7, 0x00,
   0x0e, 0x00, 0x07, 0x00, 0x1c, 0x00, 0xe7, 0x00, 0x0e, 0x00, 0x07, 0x00,
   0x1c, 0x00, 0xe7, 0x00, 0x0e, 0x00, 0x07, 0x00, 0x1c, 0x00, 0xe7, 0x00,
   0x0e, 0x00, 0x07, 0x00, 0x1c, 0x00, 0xe7, 0x00, 0x0e, 0x00, 0x07, 0x00,
   0x1c, 0x00, 0xe7, 0x00, 0x0e, 0x00, 0x07, 0x00, 0x1c, 0x80, 0xe3, 0x00,
   0x0e, 0x00, 0x07, 0x00, 0x1c, 0xc0, 0xe3, 0x00, 0xfe, 0x3f, 0x07, 0x00,
   0x1c, 0xf0, 0xe1, 0x00, 0xfe, 0x3f, 0xff, 0xff, 0x1c, 0xf8, 0xe0, 0x00,
   0xfe, 0x3f, 0xff, 0xff, 0x9c, 0x7f, 0xe0, 0x00, 0xfe, 0x3f, 0xff, 0xff,
   0x9c, 0x3f, 0xe0, 0x00, 0x00, 0x00, 0x00, 0x00, 0x00, 0x00, 0x00, 0x00,
   0x00, 0x00, 0x00, 0x00, 0x00, 0x00, 0x00, 0x00, 0x00, 0x00, 0x00, 0x00,
   0x00, 0x00, 0x00, 0x00, 0x00, 0x00, 0x00, 0x00, 0x00, 0x00, 0x00, 0x00,
   0x00, 0x00, 0x00, 0x00, 0x00, 0x00, 0x00, 0x00, 0x00, 0x00, 0x00, 0x00,
   0x00, 0x00, 0x00, 0x00, 0x00, 0x00, 0x00, 0x00, 0x00, 0x00, 0x00, 0x00,
   0x00, 0x00, 0x00, 0x00, 0x00, 0x00, 0x00, 0x00, 0x00, 0x00, 0x00, 0x00,
   0x00, 0x00, 0x00, 0x00, 0x00, 0x00, 0x00, 0x00, 0x00, 0x00, 0x00, 0x00,
   0x00, 0x00, 0x00, 0x00, 0x00, 0x00, 0x00, 0x00, 0x00, 0x00, 0x00, 0x00,
   0x00, 0x00, 0x00, 0x00, 0x00, 0x00, 0x00, 0x00, 0x00, 0x00, 0x00, 0x00,
   0x00, 0x00, 0x00, 0x00, 0x00, 0x00, 0x00, 0x00, 0x00, 0x00, 0x00, 0x00,
   0x00, 0x00, 0x00, 0x00, 0x00, 0x00, 0x00, 0x00, 0x00, 0x00, 0x00, 0x00,
   0x00, 0x00, 0x00, 0x00, 0x00, 0x00, 0x00, 0x00, 0x00, 0x00, 0x00, 0x00,
   0x00, 0x00, 0x00, 0x00, 0x00, 0x00, 0x00, 0x00, 0x00, 0x00, 0x00, 0x00,
   0x00, 0x00, 0x00, 0x00, 0x00, 0x00, 0x00, 0x00};
