#define kotl.xbm_width 64
#define kotl.xbm_height 64
static char kotl.xbm_bits[] = {
   0x00, 0x00, 0x00, 0x00, 0x00, 0x00, 0x00, 0x00, 0x00, 0x00, 0x00, 0x00,
   0x00, 0x00, 0x00, 0x00, 0x00, 0x00, 0x00, 0x00, 0x00, 0x00, 0x00, 0x00,
   0x00, 0x00, 0x00, 0x00, 0x00, 0x00, 0x00, 0x00, 0x00, 0x00, 0x00, 0x00,
   0x00, 0x00, 0x00, 0x00, 0x00, 0x00, 0x00, 0x00, 0x00, 0x00, 0x00, 0x00,
   0x00, 0x00, 0x00, 0x00, 0x00, 0x00, 0x00, 0x00, 0x00, 0x00, 0x00, 0x00,
   0x00, 0x00, 0x00, 0x00, 0x1c, 0x60, 0xfc, 0xff, 0xfc, 0x7f, 0x0e, 0x00,
   0x1c, 0x70, 0xfc, 0xff, 0xfc, 0x7f, 0x0e, 0x00, 0x1c, 0x38, 0xfc, 0xff,
   0xfc, 0x7f, 0x0e, 0x00, 0x1c, 0x1c, 0x1c, 0xe0, 0x80, 0x03, 0x0e, 0x00,
   0x1c, 0x0e, 0x1c, 0xe0, 0x80, 0x03, 0x0e, 0x00, 0x1c, 0x07, 0x1c, 0xe0,
   0x80, 0x03, 0x0e, 0x00, 0x9c, 0x03, 0x1c, 0xe0, 0x80, 0x03, 0x0e, 0x00,
   0xdc, 0x01, 0x1c, 0xe0, 0x80, 0x03, 0x0e, 0x00, 0xfc, 0x00, 0x1c, 0xe0,
   0x80, 0x03, 0x0e, 0x00, 0x7c, 0x00, 0x1c, 0xe0, 0x80, 0x03, 0x0e, 0x00,
   0x3c, 0x00, 0x1c, 0xe0, 0x80, 0x03, 0x0e, 0x00, 0x3c, 0x00, 0x1c, 0xe0,
   0x80, 0x03, 0x0e, 0x00, 0x7c, 0x00, 0x1c, 0xe0, 0x80, 0x03, 0x0e, 0x00,
   0xfc, 0x00, 0x1c, 0xe0, 0x80, 0x03, 0x0e, 0x00, 0xfc, 0x00, 0x1c, 0xe0,
   0x80, 0x03, 0x0e, 0x00, 0xdc, 0x01, 0x1c, 0xe0, 0x80, 0x03, 0x0e, 0x00,
   0xdc, 0x01, 0x1c, 0xe0, 0x80, 0x03, 0x0e, 0x00, 0x9c, 0x03, 0x1c, 0xe0,
   0x80, 0x03, 0x0e, 0x00, 0x9c, 0x03, 0x1c, 0xe0, 0x80, 0x03, 0x0e, 0x00,
   0x1c, 0x07, 0x1c, 0xe0, 0x80, 0x03, 0x0e, 0x00, 0x1c, 0x07, 0x1c, 0xe0,
   0x80, 0x03, 0x0e, 0x00, 0x1c, 0x0e, 0x1c, 0xe0, 0x80, 0x03, 0x0e, 0x00,
   0x1c, 0x0e, 0x1c, 0xe0, 0x80, 0x03, 0x0e, 0x00, 0x1c, 0x1c, 0x1c, 0xe0,
   0x80, 0x03, 0x0e, 0x00, 0x1c, 0x1c, 0x1c, 0xe0, 0x80, 0x03, 0x0e, 0x00,
   0x1c, 0x38, 0xfc, 0xff, 0x80, 0x03, 0xfe, 0x3f, 0x1c, 0x78, 0xfc, 0xff,
   0x80, 0x03, 0xfe, 0x3f, 0x1c, 0x70, 0xfc, 0xff, 0x80, 0x03, 0xfe, 0x3f,
   0x00, 0x00, 0x00, 0x00, 0x00, 0x00, 0x00, 0x00, 0x00, 0x00, 0x00, 0x00,
   0x00, 0x00, 0x00, 0x00, 0x00, 0x00, 0x00, 0x00, 0x00, 0x00, 0x00, 0x00,
   0x00, 0x00, 0x00, 0x00, 0x00, 0x00, 0x00, 0x00, 0x00, 0x00, 0x00, 0x00,
   0x00, 0x00, 0x00, 0x00, 0x00, 0x00, 0x00, 0x00, 0x00, 0x00, 0x00, 0x00,
   0x00, 0x00, 0x00, 0x00, 0x00, 0x00, 0x00, 0x00, 0x00, 0x00, 0x00, 0x00,
   0x00, 0x00, 0x00, 0x00, 0x00, 0x00, 0x00, 0x00, 0x00, 0x00, 0x00, 0x00,
   0x00, 0x00, 0x00, 0x00, 0x00, 0x00, 0x00, 0x00, 0x00, 0x00, 0x00, 0x00,
   0x00, 0x00, 0x00, 0x00, 0x00, 0x00, 0x00, 0x00, 0x00, 0x00, 0x00, 0x00,
   0x00, 0x00, 0x00, 0x00, 0x00, 0x00, 0x00, 0x00, 0x00, 0x00, 0x00, 0x00,
   0x00, 0x00, 0x00, 0x00, 0x00, 0x00, 0x00, 0x00, 0x00, 0x00, 0x00, 0x00,
   0x00, 0x00, 0x00, 0x00, 0x00, 0x00, 0x00, 0x00, 0x00, 0x00, 0x00, 0x00,
   0x00, 0x00, 0x00, 0x00, 0x00, 0x00, 0x00, 0x00, 0x00, 0x00, 0x00, 0x00,
   0x00, 0x00, 0x00, 0x00, 0x00, 0x00, 0x00, 0x00, 0x00, 0x00, 0x00, 0x00,
   0x00, 0x00, 0x00, 0x00, 0x00, 0x00, 0x00, 0x00, 0x00, 0x00, 0x00, 0x00,
   0x00, 0x00, 0x00, 0x00, 0x00, 0x00, 0x00, 0x00, 0x00, 0x00, 0x00, 0x00,
   0x00, 0x00, 0x00, 0x00, 0x00, 0x00, 0x00, 0x00, 0x00, 0x00, 0x00, 0x00,
   0x00, 0x00, 0x00, 0x00, 0x00, 0x00, 0x00, 0x00, 0x00, 0x00, 0x00, 0x00,
   0x00, 0x00, 0x00, 0x00, 0x00, 0x00, 0x00, 0x00, 0x00, 0x00, 0x00, 0x00,
   0x00, 0x00, 0x00, 0x00, 0x00, 0x00, 0x00, 0x00};
