#define lisp.xbm_width 64
#define lisp.xbm_height 64
static char lisp.xbm_bits[] = {
   0x00, 0x00, 0x00, 0x00, 0x00, 0x00, 0x00, 0x00, 0x00, 0x00, 0x00, 0x00,
   0x00, 0x00, 0x00, 0x00, 0x00, 0x00, 0x00, 0x00, 0x00, 0x00, 0x00, 0x00,
   0x00, 0x00, 0x00, 0x00, 0x00, 0x00, 0x00, 0x00, 0x00, 0x00, 0x00, 0x00,
   0x00, 0x00, 0x00, 0x00, 0x00, 0x00, 0x00, 0x00, 0x00, 0x00, 0x00, 0x00,
   0x00, 0x00, 0x00, 0x00, 0x00, 0x00, 0x00, 0x00, 0x00, 0x00, 0x00, 0x00,
   0x00, 0x00, 0x00, 0x00, 0x00, 0x0e, 0x00, 0x38, 0x80, 0xc7, 0x0f, 0x00,
   0x00, 0x0e, 0x00, 0x38, 0xf0, 0xc7, 0x1f, 0x00, 0x00, 0x0e, 0x00, 0x38,
   0xfc, 0xc7, 0x7d, 0x00, 0x00, 0x0e, 0x00, 0x38, 0x3e, 0xc0, 0x79, 0x00,
   0x00, 0x0e, 0x00, 0x38, 0x1e, 0xc0, 0xf1, 0x00, 0x00, 0x0e, 0x00, 0x38,
   0x0f, 0xc0, 0xe1, 0x00, 0x00, 0x0e, 0x00, 0x38, 0x07, 0xc0, 0xe1, 0x00,
   0x00, 0x0e, 0x00, 0x38, 0x07, 0xc0, 0xc1, 0x01, 0x00, 0x0e, 0x00, 0x38,
   0x03, 0xc0, 0xc1, 0x01, 0x00, 0x0e, 0x00, 0x38, 0x03, 0xc0, 0xc1, 0x01,
   0x00, 0x0e, 0x00, 0x38, 0x03, 0xc0, 0xc1, 0x01, 0x00, 0x0e, 0x00, 0x38,
   0x07, 0xc0, 0xc1, 0x01, 0x00, 0x0e, 0x00, 0x38, 0x07, 0xc0, 0xc1, 0x01,
   0x00, 0x0e, 0x00, 0x38, 0x07, 0xc0, 0xc1, 0x01, 0x00, 0x0e, 0x00, 0x38,
   0x0e, 0xc0, 0xe1, 0x01, 0x00, 0x0e, 0x00, 0x38, 0x1c, 0xc0, 0xf1, 0x00,
   0x00, 0x0e, 0x00, 0x38, 0x38, 0xc0, 0x7f, 0x00, 0x00, 0x0e, 0x00, 0x38,
   0x78, 0xc0, 0x3f, 0x00, 0x00, 0x0e, 0x00, 0x38, 0xf0, 0xc0, 0x07, 0x00,
   0x00, 0x0e, 0x00, 0x38, 0xe0, 0xc1, 0x01, 0x00, 0x00, 0x0e, 0x00, 0x38,
   0xc0, 0xc3, 0x01, 0x00, 0x00, 0x0e, 0x00, 0x38, 0x80, 0xc3, 0x01, 0x00,
   0x00, 0x0e, 0x00, 0x38, 0x00, 0xc7, 0x01, 0x00, 0x00, 0x0e, 0x00, 0x38,
   0x00, 0xc6, 0x01, 0x00, 0x00, 0x0e, 0x00, 0x38, 0x00, 0xce, 0x01, 0x00,
   0x00, 0x0e, 0x00, 0x38, 0x00, 0xce, 0x01, 0x00, 0x00, 0x0e, 0x00, 0x38,
   0x00, 0xce, 0x01, 0x00, 0x00, 0x0e, 0x00, 0x38, 0x00, 0xce, 0x01, 0x00,
   0x00, 0x0e, 0x00, 0x38, 0x00, 0xce, 0x01, 0x00, 0x00, 0x0e, 0x00, 0x38,
   0x00, 0xce, 0x01, 0x00, 0x00, 0x0e, 0x00, 0x38, 0x00, 0xc7, 0x01, 0x00,
   0x00, 0x0e, 0x00, 0x38, 0x80, 0xc7, 0x01, 0x00, 0x00, 0x0e, 0x00, 0x38,
   0xe0, 0xc3, 0x01, 0x00, 0x00, 0xfe, 0xff, 0x39, 0xf0, 0xc1, 0x01, 0x00,
   0x00, 0xfe, 0xff, 0x39, 0xff, 0xc0, 0x01, 0x00, 0x00, 0xfe, 0xff, 0x39,
   0x7f, 0xc0, 0x01, 0x00, 0x00, 0x00, 0x00, 0x00, 0x00, 0x00, 0x00, 0x00,
   0x00, 0x00, 0x00, 0x00, 0x00, 0x00, 0x00, 0x00, 0x00, 0x00, 0x00, 0x00,
   0x00, 0x00, 0x00, 0x00, 0x00, 0x00, 0x00, 0x00, 0x00, 0x00, 0x00, 0x00,
   0x00, 0x00, 0x00, 0x00, 0x00, 0x00, 0x00, 0x00, 0x00, 0x00, 0x00, 0x00,
   0x00, 0x00, 0x00, 0x00, 0x00, 0x00, 0x00, 0x00, 0x00, 0x00, 0x00, 0x00,
   0x00, 0x00, 0x00, 0x00, 0x00, 0x00, 0x00, 0x00, 0x00, 0x00, 0x00, 0x00,
   0x00, 0x00, 0x00, 0x00, 0x00, 0x00, 0x00, 0x00, 0x00, 0x00, 0x00, 0x00,
   0x00, 0x00, 0x00, 0x00, 0x00, 0x00, 0x00, 0x00, 0x00, 0x00, 0x00, 0x00,
   0x00, 0x00, 0x00, 0x00, 0x00, 0x00, 0x00, 0x00, 0x00, 0x00, 0x00, 0x00,
   0x00, 0x00, 0x00, 0x00, 0x00, 0x00, 0x00, 0x00, 0x00, 0x00, 0x00, 0x00,
   0x00, 0x00, 0x00, 0x00, 0x00, 0x00, 0x00, 0x00, 0x00, 0x00, 0x00, 0x00,
   0x00, 0x00, 0x00, 0x00, 0x00, 0x00, 0x00, 0x00, 0x00, 0x00, 0x00, 0x00,
   0x00, 0x00, 0x00, 0x00, 0x00, 0x00, 0x00, 0x00, 0x00, 0x00, 0x00, 0x00,
   0x00, 0x00, 0x00, 0x00, 0x00, 0x00, 0x00, 0x00};
