#define MailFull_width 64
#define MailFull_height 64
static char MailFull_bits[] = {
   0x00, 0x00, 0x00, 0x00, 0x00, 0x00, 0x00, 0x00, 0x00, 0x00, 0x00, 0x00,
   0x00, 0x00, 0x00, 0x40, 0x00, 0x00, 0x00, 0x00, 0x00, 0x00, 0x00, 0x60,
   0x00, 0x00, 0x00, 0x00, 0x00, 0x00, 0x00, 0x70, 0x50, 0x55, 0x55, 0x55,
   0x55, 0x55, 0x55, 0x75, 0xa0, 0xaa, 0xaa, 0xaa, 0xaa, 0xaa, 0xaa, 0x7a,
   0x50, 0x00, 0x00, 0x00, 0x00, 0x00, 0x00, 0x74, 0x20, 0x8c, 0x79, 0x36,
   0xf8, 0x78, 0x66, 0x78, 0x50, 0xdc, 0xcd, 0x36, 0x98, 0xcd, 0x6e, 0x74,
   0x20, 0xac, 0xfd, 0x36, 0xf8, 0xcc, 0x18, 0x78, 0x50, 0x8c, 0xcd, 0x36,
   0x98, 0xcd, 0x76, 0x74, 0x20, 0x8c, 0xcd, 0xf6, 0xfb, 0x78, 0x66, 0x78,
   0x50, 0x00, 0x00, 0x00, 0x00, 0x00, 0x00, 0x74, 0xa0, 0xff, 0xff, 0xff,
   0xff, 0xff, 0xff, 0x7b, 0xd0, 0xff, 0x7f, 0xff, 0xe1, 0xc0, 0xff, 0x77,
   0xa0, 0xff, 0x3f, 0xfe, 0x40, 0x80, 0xff, 0x7b, 0x50, 0x55, 0x15, 0x7c,
   0x00, 0x00, 0x55, 0x75, 0xa0, 0xaa, 0x0a, 0x38, 0x20, 0x80, 0xab, 0x7a,
   0xf8, 0xff, 0x07, 0x30, 0x10, 0xc0, 0xff, 0x7f, 0xfc, 0xff, 0x03, 0x60,
   0x48, 0xe2, 0xff, 0x7f, 0xfe, 0xff, 0x21, 0xc0, 0x24, 0xf1, 0xff, 0x7f,
   0x00, 0x80, 0x40, 0x80, 0x93, 0x38, 0x00, 0x00, 0x00, 0x40, 0x90, 0x00,
   0x4b, 0x1c, 0x00, 0x00, 0x00, 0x40, 0x24, 0x01, 0x26, 0x0e, 0x00, 0x00,
   0x00, 0x80, 0x48, 0x02, 0x1c, 0x07, 0x00, 0x00, 0x00, 0x00, 0x91, 0x00,
   0x98, 0x03, 0x00, 0x00, 0x00, 0x00, 0x22, 0x09, 0xf0, 0x01, 0x00, 0x00,
   0x00, 0x00, 0x44, 0x12, 0xe4, 0x00, 0x00, 0x00, 0x00, 0x00, 0x08, 0x24,
   0xce, 0x00, 0x00, 0x00, 0x00, 0x00, 0x10, 0x09, 0x9f, 0x01, 0x00, 0x00,
   0x00, 0x00, 0x20, 0x02, 0xce, 0x03, 0x00, 0x00, 0x00, 0x00, 0x40, 0x04,
   0xe4, 0x01, 0x00, 0x00, 0x00, 0x00, 0x80, 0x00, 0xf0, 0x03, 0x06, 0x00,
   0x00, 0x00, 0x00, 0x01, 0x78, 0x07, 0x19, 0x00, 0x00, 0x00, 0x00, 0x02,
   0x7c, 0x8e, 0x30, 0x00, 0x00, 0x00, 0x00, 0x04, 0x7e, 0x5c, 0x66, 0x00,
   0x00, 0x00, 0x00, 0x08, 0x3f, 0x38, 0xcf, 0x00, 0x00, 0x00, 0x00, 0x90,
   0x07, 0x10, 0x87, 0x01, 0xe0, 0xff, 0xff, 0xf3, 0x03, 0x08, 0x02, 0x03,
   0x20, 0x00, 0x00, 0x0a, 0x01, 0x04, 0x00, 0x06, 0x20, 0x00, 0xe0, 0x06,
   0x00, 0x02, 0x00, 0x0e, 0x20, 0x00, 0xe0, 0x02, 0x08, 0x01, 0x10, 0x07,
   0x20, 0x00, 0xe0, 0x01, 0x84, 0x20, 0x89, 0x03, 0x20, 0x00, 0x80, 0x00,
   0x42, 0x90, 0xc4, 0x01, 0x20, 0xff, 0x00, 0x01, 0x29, 0x48, 0xe2, 0x00,
   0x20, 0x00, 0x00, 0x82, 0x14, 0x24, 0x70, 0x00, 0x20, 0xdf, 0x03, 0x46,
   0x0a, 0x92, 0x38, 0x00, 0x20, 0x00, 0x00, 0x0e, 0x05, 0x49, 0x1c, 0x00,
   0x20, 0xff, 0x07, 0x9e, 0x08, 0x24, 0x0e, 0x00, 0x20, 0x00, 0x00, 0x2e,
   0x18, 0x10, 0x07, 0x00, 0xe0, 0xff, 0xff, 0x4f, 0x3c, 0x88, 0x03, 0x00,
   0x80, 0xff, 0xff, 0x8f, 0x4e, 0xc0, 0x01, 0x00, 0x80, 0xff, 0xff, 0x0f,
   0x87, 0xe0, 0x00, 0x00, 0x00, 0x00, 0x00, 0x00, 0x00, 0x71, 0x00, 0x00,
   0x00, 0x00, 0x00, 0x00, 0x00, 0x3a, 0x00, 0x00, 0x00, 0x00, 0x00, 0x00,
   0x00, 0x1c, 0x00, 0x00, 0x00, 0x00, 0x00, 0x00, 0x00, 0x00, 0x00, 0x00,
   0x00, 0x00, 0x00, 0x00, 0x00, 0x00, 0x00, 0x00, 0x00, 0x00, 0x00, 0x00,
   0x00, 0x00, 0x00, 0x00, 0x00, 0x00, 0x00, 0x00, 0x00, 0x00, 0x00, 0x00,
   0x00, 0x00, 0x00, 0x00, 0x00, 0x00, 0x00, 0x00, 0x00, 0x00, 0x00, 0x00,
   0x00, 0x00, 0x00, 0x00, 0x00, 0x00, 0x00, 0x00, 0x00, 0x00, 0x00, 0x00,
   0x00, 0x00, 0x00, 0x00, 0x00, 0x00, 0x00, 0x00};
