#define outline.xbm_width 64
#define outline.xbm_height 64
static char outline.xbm_bits[] = {
   0x00, 0x00, 0x00, 0x00, 0x00, 0x00, 0x00, 0x00, 0x00, 0x00, 0x00, 0x00,
   0x00, 0x00, 0x00, 0x00, 0x00, 0x00, 0x00, 0x00, 0x00, 0x00, 0x00, 0x00,
   0x00, 0x00, 0x00, 0x00, 0x00, 0x00, 0x00, 0x00, 0x00, 0x00, 0x00, 0x00,
   0x00, 0x00, 0x00, 0x00, 0x00, 0x00, 0x00, 0x00, 0x00, 0x00, 0x00, 0x00,
   0x00, 0x00, 0x00, 0x00, 0x00, 0x00, 0x00, 0x00, 0x80, 0xff, 0xff, 0xf0,
   0xff, 0x71, 0x00, 0x00, 0x80, 0xff, 0xff, 0xf0, 0xff, 0x71, 0x00, 0x00,
   0x80, 0xff, 0xff, 0xf0, 0xff, 0x71, 0x00, 0x00, 0x80, 0x03, 0xe0, 0x00,
   0x0e, 0x70, 0x00, 0x00, 0x80, 0x03, 0xe0, 0x00, 0x0e, 0x70, 0x00, 0x00,
   0x80, 0x03, 0xe0, 0x00, 0x0e, 0x70, 0x00, 0x00, 0x80, 0x03, 0xe0, 0x00,
   0x0e, 0x70, 0x00, 0x00, 0x80, 0x03, 0xe0, 0x00, 0x0e, 0x70, 0x00, 0x00,
   0x80, 0x03, 0xe0, 0x00, 0x0e, 0x70, 0x00, 0x00, 0x80, 0x03, 0xe0, 0x00,
   0x0e, 0x70, 0x00, 0x00, 0x80, 0x03, 0xe0, 0x00, 0x0e, 0x70, 0x00, 0x00,
   0x80, 0x03, 0xe0, 0x00, 0x0e, 0x70, 0x00, 0x00, 0x80, 0x03, 0xe0, 0x00,
   0x0e, 0x70, 0x00, 0x00, 0x80, 0x03, 0xe0, 0x00, 0x0e, 0x70, 0x00, 0x00,
   0x80, 0x03, 0xe0, 0x00, 0x0e, 0x70, 0x00, 0x00, 0x80, 0x03, 0xe0, 0x00,
   0x0e, 0x70, 0x00, 0x00, 0x80, 0x03, 0xe0, 0x00, 0x0e, 0x70, 0x00, 0x00,
   0x80, 0x03, 0xe0, 0x00, 0x0e, 0x70, 0x00, 0x00, 0x80, 0x03, 0xe0, 0x00,
   0x0e, 0x70, 0x00, 0x00, 0x80, 0x03, 0xe0, 0x00, 0x0e, 0x70, 0x00, 0x00,
   0x80, 0x03, 0xe0, 0x00, 0x0e, 0x70, 0x00, 0x00, 0x80, 0x03, 0xe0, 0x00,
   0x0e, 0x70, 0x00, 0x00, 0x80, 0x03, 0xe0, 0x00, 0x0e, 0x70, 0x00, 0x00,
   0x80, 0x03, 0xe0, 0x00, 0x0e, 0x70, 0x00, 0x00, 0x80, 0x03, 0xe0, 0x00,
   0x0e, 0x70, 0x00, 0x00, 0x80, 0x03, 0xe0, 0x00, 0x0e, 0x70, 0x00, 0x00,
   0x80, 0xff, 0xff, 0x00, 0x0e, 0xf0, 0xff, 0x0f, 0x80, 0xff, 0xff, 0x00,
   0x0e, 0xf0, 0xff, 0x0f, 0x80, 0xff, 0xff, 0x00, 0x0e, 0xf0, 0xff, 0x0f,
   0x00, 0x00, 0x00, 0x00, 0x00, 0x00, 0x00, 0x00, 0x00, 0x00, 0x00, 0x00,
   0x00, 0x00, 0x00, 0x00, 0x00, 0x00, 0x00, 0x00, 0x00, 0x00, 0x00, 0x00,
   0x00, 0x00, 0x00, 0x00, 0x00, 0x00, 0x00, 0x00, 0x00, 0x00, 0x00, 0x00,
   0x00, 0x00, 0x00, 0x00, 0x00, 0x00, 0x00, 0x00, 0x00, 0x00, 0x00, 0x00,
   0x00, 0x00, 0x00, 0x00, 0x00, 0x00, 0x00, 0x00, 0x00, 0x00, 0x00, 0x00,
   0x00, 0x00, 0x00, 0x00, 0x00, 0x00, 0x00, 0x00, 0x00, 0x00, 0x00, 0x00,
   0x00, 0x00, 0x00, 0x00, 0x00, 0x00, 0x00, 0x00, 0x00, 0x00, 0x00, 0x00,
   0x00, 0x00, 0x00, 0x00, 0x00, 0x00, 0x00, 0x00, 0x00, 0x00, 0x00, 0x00,
   0x00, 0x00, 0x00, 0x00, 0x00, 0x00, 0x00, 0x00, 0x00, 0x00, 0x00, 0x00,
   0x00, 0x00, 0x00, 0x00, 0x00, 0x00, 0x00, 0x00, 0x00, 0x00, 0x00, 0x00,
   0x00, 0x00, 0x00, 0x00, 0x00, 0x00, 0x00, 0x00, 0x00, 0x00, 0x00, 0x00,
   0x00, 0x00, 0x00, 0x00, 0x00, 0x00, 0x00, 0x00, 0x00, 0x00, 0x00, 0x00,
   0x00, 0x00, 0x00, 0x00, 0x00, 0x00, 0x00, 0x00, 0x00, 0x00, 0x00, 0x00,
   0x00, 0x00, 0x00, 0x00, 0x00, 0x00, 0x00, 0x00, 0x00, 0x00, 0x00, 0x00,
   0x00, 0x00, 0x00, 0x00, 0x00, 0x00, 0x00, 0x00, 0x00, 0x00, 0x00, 0x00,
   0x00, 0x00, 0x00, 0x00, 0x00, 0x00, 0x00, 0x00, 0x00, 0x00, 0x00, 0x00,
   0x00, 0x00, 0x00, 0x00, 0x00, 0x00, 0x00, 0x00, 0x00, 0x00, 0x00, 0x00,
   0x00, 0x00, 0x00, 0x00, 0x00, 0x00, 0x00, 0x00, 0x00, 0x00, 0x00, 0x00,
   0x00, 0x00, 0x00, 0x00, 0x00, 0x00, 0x00, 0x00};
