#define perl.xbm_width 64
#define perl.xbm_height 64
static char perl.xbm_bits[] = {
   0x00, 0x00, 0x00, 0x00, 0x00, 0x00, 0x00, 0x00, 0x00, 0x00, 0x00, 0x00,
   0x00, 0x00, 0x00, 0x00, 0x00, 0x00, 0x00, 0x00, 0x00, 0x00, 0x00, 0x00,
   0x00, 0x00, 0x00, 0x00, 0x00, 0x00, 0x00, 0x00, 0x00, 0x00, 0x00, 0x00,
   0x00, 0x00, 0x00, 0x00, 0x00, 0x00, 0x00, 0x00, 0x00, 0x00, 0x00, 0x00,
   0x00, 0x00, 0x00, 0x00, 0x00, 0x00, 0x00, 0x00, 0x00, 0x00, 0x00, 0x00,
   0x00, 0x00, 0x00, 0x00, 0xf8, 0x00, 0x00, 0x00, 0xe0, 0x03, 0x00, 0x00,
   0xf8, 0x03, 0xff, 0x1f, 0xf8, 0x0f, 0x07, 0x00, 0xf8, 0x07, 0xff, 0x9f,
   0xff, 0x1f, 0x07, 0x00, 0xb8, 0x0f, 0xff, 0x9f, 0xff, 0x1f, 0x07, 0x00,
   0x38, 0x0e, 0xff, 0x9f, 0x1f, 0x3e, 0x07, 0x00, 0x38, 0x1c, 0x07, 0x80,
   0x0f, 0x3c, 0x07, 0x00, 0x38, 0x1c, 0x07, 0x80, 0x0f, 0x38, 0x07, 0x00,
   0x38, 0x38, 0x07, 0x80, 0x0f, 0x3c, 0x07, 0x00, 0x38, 0x38, 0x07, 0x80,
   0x1f, 0x3c, 0x07, 0x00, 0x38, 0x38, 0x07, 0x80, 0x3f, 0x1f, 0x07, 0x00,
   0x38, 0x38, 0x07, 0x80, 0xff, 0x1f, 0x07, 0x00, 0x38, 0x38, 0x07, 0x80,
   0xfb, 0x0f, 0x07, 0x00, 0x38, 0x38, 0x07, 0x80, 0xe3, 0x03, 0x07, 0x00,
   0x38, 0x38, 0x07, 0x80, 0xe3, 0x01, 0x07, 0x00, 0x38, 0x3c, 0x07, 0x80,
   0xe3, 0x01, 0x07, 0x00, 0x38, 0x1e, 0x07, 0x80, 0xc3, 0x03, 0x07, 0x00,
   0xf8, 0x0f, 0x07, 0x80, 0xc3, 0x01, 0x07, 0x00, 0xf8, 0x07, 0xff, 0x9f,
   0xc3, 0x03, 0x07, 0x00, 0xf8, 0x00, 0xff, 0x9f, 0xc3, 0x03, 0x07, 0x00,
   0x38, 0x00, 0xff, 0x9f, 0xc3, 0x03, 0x07, 0x00, 0x38, 0x00, 0xff, 0x9f,
   0x83, 0x03, 0x07, 0x00, 0x38, 0x00, 0x07, 0x80, 0x83, 0x07, 0x07, 0x00,
   0x38, 0x00, 0x07, 0x80, 0x83, 0x07, 0x07, 0x00, 0x38, 0x00, 0x07, 0x80,
   0x83, 0x07, 0x07, 0x00, 0x38, 0x00, 0x07, 0x80, 0x83, 0x07, 0x07, 0x00,
   0x38, 0x00, 0x07, 0x80, 0x83, 0x07, 0x07, 0x00, 0x38, 0x00, 0x07, 0x80,
   0x03, 0x07, 0x07, 0x00, 0x38, 0x00, 0x07, 0x80, 0x03, 0x07, 0x07, 0x00,
   0x38, 0x00, 0x07, 0x80, 0x03, 0x0f, 0x07, 0x00, 0x38, 0x00, 0x07, 0x80,
   0x03, 0x0f, 0x07, 0x00, 0x38, 0x00, 0x07, 0x80, 0x03, 0x0e, 0x07, 0x00,
   0x38, 0x00, 0x07, 0x80, 0x03, 0x0e, 0x07, 0x00, 0x38, 0x00, 0x07, 0x80,
   0x03, 0x1e, 0x07, 0x00, 0x38, 0x00, 0xff, 0x9f, 0x03, 0x1e, 0x07, 0x00,
   0x38, 0x00, 0xff, 0x9f, 0x03, 0x1e, 0xff, 0x7f, 0x38, 0x00, 0xff, 0x9f,
   0x03, 0x3c, 0xff, 0x7f, 0x38, 0x00, 0xff, 0x9f, 0x03, 0x1c, 0xff, 0x7f,
   0x00, 0x00, 0x00, 0x00, 0x00, 0x00, 0x00, 0x00, 0x00, 0x00, 0x00, 0x00,
   0x00, 0x00, 0x00, 0x00, 0x00, 0x00, 0x00, 0x00, 0x00, 0x00, 0x00, 0x00,
   0x00, 0x00, 0x00, 0x00, 0x00, 0x00, 0x00, 0x00, 0x00, 0x00, 0x00, 0x00,
   0x00, 0x00, 0x00, 0x00, 0x00, 0x00, 0x00, 0x00, 0x00, 0x00, 0x00, 0x00,
   0x00, 0x00, 0x00, 0x00, 0x00, 0x00, 0x00, 0x00, 0x00, 0x00, 0x00, 0x00,
   0x00, 0x00, 0x00, 0x00, 0x00, 0x00, 0x00, 0x00, 0x00, 0x00, 0x00, 0x00,
   0x00, 0x00, 0x00, 0x00, 0x00, 0x00, 0x00, 0x00, 0x00, 0x00, 0x00, 0x00,
   0x00, 0x00, 0x00, 0x00, 0x00, 0x00, 0x00, 0x00, 0x00, 0x00, 0x00, 0x00,
   0x00, 0x00, 0x00, 0x00, 0x00, 0x00, 0x00, 0x00, 0x00, 0x00, 0x00, 0x00,
   0x00, 0x00, 0x00, 0x00, 0x00, 0x00, 0x00, 0x00, 0x00, 0x00, 0x00, 0x00,
   0x00, 0x00, 0x00, 0x00, 0x00, 0x00, 0x00, 0x00, 0x00, 0x00, 0x00, 0x00,
   0x00, 0x00, 0x00, 0x00, 0x00, 0x00, 0x00, 0x00, 0x00, 0x00, 0x00, 0x00,
   0x00, 0x00, 0x00, 0x00, 0x00, 0x00, 0x00, 0x00};
