#define sundae_width 64
#define sundae_height 64
static char sundae_bits[] = {
   0x88, 0x88, 0x88, 0x88, 0x88, 0x88, 0x88, 0x88, 0x88, 0x88, 0x88, 0x88,
   0x88, 0x88, 0x88, 0x88, 0x22, 0x22, 0x22, 0x22, 0x22, 0x22, 0x22, 0x22,
   0x22, 0x22, 0x22, 0x22, 0x22, 0x22, 0x22, 0x22, 0x88, 0x88, 0x88, 0x88,
   0x88, 0x88, 0x88, 0x88, 0x88, 0x88, 0x88, 0x88, 0x88, 0x88, 0x88, 0x88,
   0x22, 0x22, 0x22, 0x22, 0x22, 0x22, 0x22, 0x22, 0x22, 0x22, 0x22, 0x22,
   0x22, 0x22, 0x22, 0x22, 0x88, 0x88, 0x88, 0x88, 0x88, 0x88, 0x88, 0x88,
   0x88, 0x88, 0x88, 0x88, 0x88, 0x88, 0x88, 0x88, 0x22, 0x22, 0x22, 0x22,
   0x22, 0x22, 0x22, 0x22, 0x22, 0x22, 0xff, 0x23, 0x22, 0x22, 0x22, 0x22,
   0x88, 0x88, 0x88, 0xcf, 0x89, 0x88, 0x88, 0x88, 0x88, 0xc8, 0x88, 0xf8,
   0x8e, 0x88, 0x88, 0x88, 0x22, 0x22, 0x22, 0xf2, 0x25, 0x22, 0x22, 0x22,
   0x22, 0x22, 0x22, 0x7a, 0x2f, 0x22, 0x22, 0x22, 0x88, 0x88, 0x88, 0xb8,
   0x9b, 0x88, 0x88, 0x88, 0x88, 0x88, 0x88, 0xe8, 0xee, 0x88, 0x88, 0x88,
   0x22, 0x22, 0x22, 0xde, 0x9d, 0x22, 0x22, 0x22, 0x22, 0x22, 0x22, 0x76,
   0x8f, 0x22, 0x22, 0x22, 0x88, 0x88, 0x88, 0xf7, 0x0f, 0x89, 0x88, 0x88,
   0x88, 0x88, 0x88, 0xc1, 0x03, 0x89, 0x88, 0x88, 0x22, 0x22, 0xa2, 0x00,
   0x41, 0x23, 0x22, 0x22, 0x22, 0x22, 0xa2, 0x00, 0x30, 0x26, 0x22, 0x22,
   0x88, 0x88, 0x88, 0x00, 0x18, 0x88, 0x88, 0x88, 0x88, 0x88, 0x88, 0xfe,
   0x43, 0x98, 0x88, 0x88, 0x22, 0x22, 0xc2, 0x00, 0x20, 0x30, 0x22, 0x22,
   0x22, 0x22, 0x22, 0x00, 0x18, 0x20, 0x22, 0x22, 0x88, 0x88, 0x18, 0x80,
   0x07, 0xf0, 0x88, 0x88, 0x88, 0x88, 0x18, 0xf9, 0x00, 0xfe, 0x88, 0x88,
   0x22, 0x22, 0xfc, 0x03, 0x80, 0xff, 0x23, 0x22, 0x22, 0x22, 0xfe, 0x03,
   0xf0, 0xff, 0x23, 0x22, 0x88, 0x88, 0xff, 0xff, 0xff, 0xff, 0x8b, 0x88,
   0x88, 0x88, 0xff, 0xff, 0xff, 0xf7, 0x8f, 0x88, 0x22, 0x22, 0xff, 0xff,
   0xff, 0xf3, 0x2f, 0x22, 0x22, 0x22, 0xff, 0xff, 0xdf, 0xc3, 0x39, 0x22,
   0x88, 0x88, 0xe7, 0xff, 0x9f, 0xc3, 0x91, 0x88, 0x88, 0x88, 0xe3, 0xfd,
   0x8f, 0x03, 0xa0, 0x88, 0x22, 0xa2, 0xe3, 0xf9, 0x8f, 0x03, 0x20, 0x22,
   0x22, 0x62, 0xe3, 0x83, 0x8f, 0x01, 0x20, 0x22, 0x88, 0x28, 0xe2, 0x83,
   0x0f, 0x00, 0xf0, 0x88, 0x88, 0x18, 0xe2, 0x81, 0x0f, 0x80, 0xd1, 0x88,
   0x22, 0x32, 0x02, 0x00, 0x87, 0x63, 0x60, 0x22, 0x22, 0x32, 0x03, 0x00,
   0x07, 0x3c, 0x60, 0x22, 0x88, 0xf8, 0x00, 0x00, 0x06, 0x00, 0xf0, 0x88,
   0x88, 0xe8, 0x01, 0x00, 0x06, 0x00, 0xdc, 0x88, 0x22, 0xa2, 0x0e, 0x00,
   0x06, 0x80, 0x2b, 0x22, 0x22, 0x62, 0x75, 0x00, 0x06, 0x70, 0x35, 0x22,
   0x88, 0xc8, 0xaa, 0x07, 0x02, 0xaf, 0x9a, 0x88, 0x88, 0x88, 0x55, 0xfd,
   0xff, 0x55, 0x8d, 0x88, 0x22, 0x22, 0xab, 0xaa, 0xaa, 0xaa, 0x26, 0x22,
   0x22, 0x22, 0x56, 0x55, 0x55, 0x55, 0x27, 0x22, 0x88, 0x88, 0xac, 0xaa,
   0xaa, 0xaa, 0x8b, 0x88, 0x88, 0x88, 0x5c, 0x55, 0x55, 0xd5, 0x89, 0x88,
   0x22, 0x22, 0xba, 0xaa, 0xaa, 0x6a, 0x22, 0x22, 0x22, 0x22, 0x72, 0x55,
   0x55, 0x7d, 0x22, 0x22, 0x88, 0x88, 0xc8, 0xaa, 0xaa, 0x8e, 0x88, 0x88,
   0x88, 0x88, 0x88, 0x5f, 0xd5, 0x8b, 0x88, 0x88, 0x22, 0x22, 0x22, 0xf2,
   0x3f, 0x22, 0x22, 0x22, 0x22, 0x22, 0x22, 0x22, 0x22, 0x22, 0x22, 0x22,
   0x88, 0x88, 0x88, 0x88, 0x88, 0x88, 0x88, 0x88, 0x88, 0x88, 0x88, 0x88,
   0x88, 0x88, 0x88, 0x88, 0x22, 0x22, 0x22, 0x22, 0x22, 0x22, 0x22, 0x22,
   0x22, 0x22, 0x22, 0x22, 0x22, 0x22, 0x22, 0x22};
