#define tree_width 64
#define tree_height 64
static char tree_bits[] = {
   0x00, 0x00, 0x00, 0x00, 0x00, 0x00, 0x00, 0x00, 0x00, 0x00, 0x00, 0x00,
   0x00, 0x00, 0x00, 0x00, 0x00, 0x00, 0x00, 0x00, 0x00, 0x00, 0x00, 0x00,
   0x00, 0x00, 0x00, 0x00, 0x00, 0x00, 0x00, 0x00, 0x00, 0x00, 0x00, 0x00,
   0x00, 0x00, 0x00, 0x00, 0x00, 0x00, 0xc0, 0x04, 0x00, 0x00, 0x00, 0x00,
   0x00, 0x00, 0x80, 0x44, 0x00, 0x00, 0x00, 0x00, 0x00, 0x00, 0x08, 0x25,
   0x06, 0x00, 0x00, 0x00, 0x00, 0x00, 0x08, 0x15, 0x69, 0x00, 0x00, 0x00,
   0x00, 0x00, 0x11, 0x26, 0x69, 0x00, 0x00, 0x00, 0x00, 0x00, 0x31, 0x26,
   0x25, 0x00, 0x00, 0x00, 0x00, 0x00, 0x1d, 0x42, 0x83, 0x01, 0x00, 0x00,
   0x00, 0x98, 0x2d, 0xc2, 0x4a, 0x01, 0x00, 0x00, 0x00, 0xe0, 0x47, 0xe0,
   0x5c, 0x29, 0x00, 0x00, 0x00, 0x80, 0x45, 0xa2, 0x29, 0x19, 0x00, 0x00,
   0x00, 0x06, 0x4b, 0xc2, 0x10, 0xee, 0x00, 0x00, 0x00, 0x34, 0x0a, 0xa3,
   0x98, 0x03, 0x00, 0x00, 0x80, 0x00, 0x16, 0x61, 0xe0, 0x00, 0x00, 0x00,
   0x80, 0x40, 0x94, 0x51, 0x69, 0x04, 0x00, 0x00, 0x00, 0x01, 0x04, 0xb9,
   0x24, 0xeb, 0x02, 0x00, 0x00, 0x03, 0xd9, 0x14, 0x12, 0x04, 0x00, 0x00,
   0xe0, 0x17, 0x8c, 0xc0, 0x10, 0x00, 0x00, 0x00, 0x00, 0xe3, 0xda, 0x48,
   0x08, 0x00, 0x01, 0x00, 0x80, 0x01, 0x66, 0x28, 0x48, 0xaf, 0x01, 0x00,
   0x00, 0x00, 0x38, 0x38, 0x5e, 0x28, 0x00, 0x00, 0x00, 0x30, 0xb5, 0x10,
   0x06, 0x07, 0x00, 0x00, 0x00, 0x4d, 0x2c, 0x22, 0x02, 0x01, 0x01, 0x00,
   0xc0, 0xc1, 0x30, 0x66, 0xeb, 0x5d, 0x06, 0x00, 0x40, 0xa0, 0x21, 0x04,
   0x23, 0x00, 0x01, 0x00, 0x00, 0xc0, 0x23, 0x4c, 0x21, 0xe8, 0x06, 0x00,
   0xc0, 0x9b, 0x66, 0x0c, 0xa1, 0x50, 0x08, 0x00, 0x00, 0xb8, 0x65, 0x84,
   0x89, 0xa0, 0x03, 0x00, 0x00, 0x08, 0x6a, 0x98, 0x44, 0x10, 0x0c, 0x00,
   0x00, 0x96, 0x34, 0x80, 0x40, 0x08, 0x10, 0x00, 0x00, 0x00, 0x7a, 0x0c,
   0x40, 0x17, 0x0d, 0x00, 0x00, 0x00, 0x70, 0x98, 0xc0, 0x51, 0x1c, 0x00,
   0x00, 0x38, 0xc0, 0x18, 0x30, 0xc4, 0x03, 0x00, 0x00, 0x5c, 0xe1, 0x98,
   0x1c, 0x44, 0x01, 0x00, 0x00, 0x0c, 0x2c, 0x48, 0x07, 0x74, 0x00, 0x00,
   0x00, 0x76, 0x6a, 0x88, 0x07, 0x0c, 0x00, 0x00, 0x00, 0x00, 0x40, 0x02,
   0x02, 0x03, 0x00, 0x00, 0x00, 0x00, 0x80, 0x04, 0xbd, 0x0a, 0x00, 0x00,
   0x00, 0x00, 0x80, 0x84, 0x03, 0x00, 0x00, 0x00, 0x00, 0x00, 0x00, 0x81,
   0x01, 0x00, 0x00, 0x00, 0x00, 0x00, 0x00, 0x41, 0x00, 0x00, 0x00, 0x00,
   0x00, 0x00, 0x00, 0xc1, 0x00, 0x00, 0x00, 0x00, 0x00, 0x00, 0x00, 0xc1,
   0x00, 0x00, 0x00, 0x00, 0x00, 0x00, 0x00, 0xc1, 0x00, 0x00, 0x00, 0x00,
   0x00, 0x00, 0x00, 0xc1, 0x00, 0x00, 0x00, 0x00, 0x00, 0x00, 0x00, 0xc9,
   0x00, 0x00, 0x00, 0x00, 0x00, 0x00, 0x00, 0xc1, 0x00, 0x00, 0x00, 0x00,
   0x00, 0x00, 0x00, 0xc1, 0x00, 0x00, 0x00, 0x00, 0x00, 0x00, 0x00, 0xc1,
   0x00, 0x00, 0x00, 0x00, 0x00, 0x00, 0x00, 0xc1, 0x00, 0x00, 0x00, 0x00,
   0x00, 0x00, 0x80, 0xc0, 0x00, 0x00, 0x00, 0x00, 0x00, 0x00, 0x80, 0xc8,
   0x00, 0x00, 0x00, 0x00, 0x00, 0x00, 0x40, 0x80, 0x00, 0x00, 0x00, 0x00,
   0x00, 0x00, 0x60, 0x84, 0x01, 0x00, 0x00, 0x00, 0x00, 0x00, 0x78, 0x80,
   0x1f, 0x00, 0x00, 0x00, 0x00, 0x00, 0xff, 0xd7, 0xff, 0x00, 0x00, 0x00,
   0x00, 0x80, 0x6b, 0x93, 0xf7, 0x01, 0x00, 0x00, 0x00, 0x00, 0x00, 0x00,
   0x00, 0x00, 0x00, 0x00, 0x00, 0x00, 0x00, 0x00, 0x00, 0x00, 0x00, 0x00,
   0x00, 0x00, 0x00, 0x00, 0x00, 0x00, 0x00, 0x00};
