#define world.xbm_width 64
#define world.xbm_height 64
static char world.xbm_bits[] = {
   0x00, 0x00, 0x00, 0x00, 0x00, 0x00, 0x00, 0x00, 0x00, 0x00, 0x00, 0x80,
   0x03, 0x00, 0x00, 0x00, 0x00, 0x00, 0x00, 0xc0, 0x07, 0x00, 0x00, 0x00,
   0x00, 0x00, 0x00, 0xf0, 0x1f, 0x00, 0x00, 0x00, 0x00, 0x00, 0x00, 0xcc,
   0x67, 0x00, 0x00, 0x00, 0x00, 0x00, 0x80, 0x83, 0x83, 0x03, 0x00, 0x00,
   0x00, 0x00, 0x70, 0x00, 0x01, 0x0c, 0x00, 0x00, 0x00, 0x00, 0x0c, 0x00,
   0x01, 0x70, 0x00, 0x00, 0x00, 0x80, 0x03, 0x40, 0x01, 0x80, 0x03, 0x00,
   0x00, 0x60, 0x00, 0xba, 0x5f, 0x00, 0x0c, 0x00, 0x00, 0x1c, 0x80, 0x41,
   0xa8, 0x02, 0x70, 0x00, 0x80, 0x03, 0x40, 0x2c, 0x05, 0x05, 0x80, 0x03,
   0x70, 0x00, 0x88, 0x41, 0x11, 0x14, 0x00, 0x04, 0x08, 0x00, 0x60, 0x02,
   0x4e, 0x09, 0x00, 0x0e, 0x1c, 0x00, 0x12, 0x10, 0x34, 0x54, 0x00, 0x1f,
   0x3e, 0x00, 0x00, 0x00, 0x91, 0x22, 0x00, 0x1f, 0x3e, 0x80, 0x24, 0x80,
   0x54, 0x88, 0x00, 0x1f, 0x3e, 0x00, 0x00, 0x00, 0x00, 0x20, 0x81, 0x0f,
   0xfc, 0x41, 0x01, 0x91, 0x0a, 0x44, 0x72, 0x04, 0x08, 0x1e, 0x24, 0x00,
   0x00, 0xa8, 0x0e, 0x04, 0x08, 0x10, 0x01, 0xa0, 0x02, 0x50, 0x05, 0x04,
   0x08, 0x40, 0x80, 0x04, 0x45, 0x50, 0x09, 0x04, 0x08, 0x08, 0x24, 0x80,
   0x00, 0x40, 0x00, 0x04, 0x08, 0x00, 0x41, 0x2a, 0x01, 0x10, 0x12, 0x04,
   0x08, 0x08, 0xa4, 0x02, 0x48, 0x80, 0x02, 0x04, 0x08, 0x00, 0xa0, 0x15,
   0x00, 0x00, 0x01, 0x04, 0x08, 0x42, 0x46, 0x41, 0x21, 0x00, 0x02, 0x04,
   0x08, 0x04, 0x54, 0x89, 0x04, 0x00, 0x20, 0x04, 0x08, 0x02, 0x80, 0x00,
   0x5b, 0x00, 0x04, 0x04, 0x08, 0x24, 0xa4, 0x22, 0x2a, 0x00, 0x00, 0x04,
   0x08, 0x02, 0x01, 0x44, 0x5a, 0x10, 0x09, 0x04, 0x08, 0x04, 0x90, 0x52,
   0xad, 0x22, 0x40, 0x04, 0x08, 0x0a, 0x20, 0xaa, 0xb6, 0x01, 0x00, 0x04,
   0x08, 0x44, 0x10, 0xa1, 0x6d, 0x51, 0x00, 0x04, 0x08, 0x0a, 0x01, 0x52,
   0xdd, 0x24, 0x20, 0x04, 0x08, 0x5a, 0x44, 0xa0, 0xaa, 0x8b, 0x00, 0x04,
   0x08, 0x24, 0x21, 0xc1, 0x76, 0x45, 0x28, 0x04, 0x08, 0xaa, 0x4a, 0x60,
   0x9b, 0x03, 0x02, 0x04, 0x08, 0x5c, 0x20, 0xa9, 0xb5, 0x46, 0x10, 0x04,
   0x08, 0xd8, 0x40, 0xd0, 0x56, 0x15, 0x01, 0x04, 0x08, 0xb8, 0x20, 0xa0,
   0x5d, 0x53, 0x24, 0x04, 0x08, 0xd0, 0x92, 0xea, 0xaf, 0x8a, 0x04, 0x04,
   0x08, 0xa8, 0x45, 0xfd, 0xd5, 0x56, 0x11, 0x04, 0x08, 0x50, 0x29, 0xb7,
   0x7b, 0x55, 0x05, 0x04, 0x08, 0x40, 0xd5, 0xfd, 0xcf, 0xaa, 0x05, 0x04,
   0x08, 0x40, 0x75, 0xff, 0xb5, 0xd4, 0x02, 0x04, 0x08, 0x40, 0xaa, 0xee,
   0xae, 0xaa, 0x01, 0x04, 0x08, 0xa0, 0x52, 0xfb, 0xab, 0x2a, 0x07, 0x04,
   0x08, 0x18, 0x6a, 0x6f, 0xd7, 0x56, 0x08, 0x04, 0x1c, 0x06, 0x88, 0xfa,
   0x55, 0x15, 0x10, 0x0e, 0xbe, 0x01, 0x52, 0xaf, 0xdb, 0x4a, 0x60, 0x1f,
   0x7e, 0x00, 0xe8, 0xfa, 0xae, 0x02, 0x80, 0x1f, 0x3e, 0x00, 0xa0, 0xae,
   0xb5, 0x0a, 0x00, 0x1f, 0x1c, 0x00, 0x00, 0x75, 0x5b, 0x01, 0x00, 0x0e,
   0x38, 0x00, 0x00, 0xda, 0x57, 0x00, 0x00, 0x07, 0xc0, 0x03, 0x00, 0x80,
   0x00, 0x00, 0xf0, 0x00, 0x00, 0x3c, 0x00, 0x80, 0x00, 0x00, 0x0f, 0x00,
   0x00, 0xc0, 0x07, 0x80, 0x00, 0xf0, 0x00, 0x00, 0x00, 0x00, 0x78, 0xc0,
   0x01, 0x0f, 0x00, 0x00, 0x00, 0x00, 0x80, 0xe7, 0xf3, 0x00, 0x00, 0x00,
   0x00, 0x00, 0x00, 0xf8, 0x0f, 0x00, 0x00, 0x00, 0x00, 0x00, 0x00, 0xe0,
   0x03, 0x00, 0x00, 0x00, 0x00, 0x00, 0x00, 0xc0, 0x01, 0x00, 0x00, 0x00,
   0x00, 0x00, 0x00, 0x00, 0x00, 0x00, 0x00, 0x00};
