/* XPM */

/* This file is part of XEmacs.

XEmacs is free software: you can redistribute it and/or modify it
under the terms of the GNU General Public License as published by the
Free Software Foundation, either version 3 of the License, or (at your
option) any later version.

XEmacs is distributed in the hope that it will be useful, but WITHOUT
ANY WARRANTY; without even the implied warranty of MERCHANTABILITY or
FITNESS FOR A PARTICULAR PURPOSE.  See the GNU General Public License
for more details.

You should have received a copy of the GNU General Public License
along with XEmacs.  If not, see <http://www.gnu.org/licenses/>. */

static char * makefile[] = {
"33 33 6 1",
"X	c Gray75 s backgroundToolBarColor",
"o	c Gray60",
"O	c white",
"+	c Gray40",
"@	c Gray90",
"#	c white",
"XXXXXXXXXXoooXXXXXXXXXXXXXXXXXXXX",
"XXXXXXXXoooOoooXXXXXXXXXXXXXXXXXX",
"XXXXXXXXo++o++oXXXXXXXXXXXXXXXXXX",
"XXXXXXXoo+ooo+ooXXXXXXXXXXXXXXXXX",
"XXXXXXXo++o++++oXXXXXXXXXXXXXXXXX",
"XXXXXXXoo++o++ooXXXXXXXXXXXXXXXXX",
"XXXXXXXXo+++++ooooXXXXXXXXXXXXXXX",
"XXXXXXXXooo+oooo@oXXoXXXXXXXXXXXX",
"XXXXXXXXXXooo@o@@@oo@oXXXXXXXXXXX",
"XXXXXXXXXXo@@@@@@@@@@ooXXXXXXXXXX",
"XXXXXXXXXXXo@@o@o#o@@oXXXXXXXXXXX",
"XXXXXXXXXoo@@o@o###o@@ooXXXXXXXXX",
"XXXXXXXXXo@@@oo####o@@@oXXXXXXXXX",
"XXXXXXXXXooo@o@o###o@oooXXXXXXXXX",
"XXXXXXXXXXXo@@o@o#o@@oXXXXXXXXXXX",
"XXXXXXXXXXo@@@@@@@@@@@oXXXXXXXXXX",
"XXXXXXXXXXoo@oo@@oooooXXXXXXXXXXX",
"XXXXXXXXoooXooo@@oXXoXXXXXXXXXXXX",
"XXXXXXXXo++o++ooooXXXXXXXXXXXXXXX",
"XXXXXXXoo+ooo+ooXXXXXXXXXXXXXXXXX",
"XXXXXXXo++o++++oXXXXXXXXXXXXXXXXX",
"XXXXXXXoo++o++ooXXXXXXXXXXXXXXXXX",
"XXXXXXXXo+++++oXXXXXXXXXXXXXXXXXX",
"XXXXXXXXooo+oooXXXXXXXXXXXXXXXXXX",
"XXXXXXXXXXoooXXXXXXXXXXXoXoXXXXXX",
"XXXoooXXXXXXXXXXXXXXXXXXXXoXXXXXX",
"XXoXXXoXXooXXooooXXoooXXoXoXXoXXX",
"XXoXXXXXoXXoXoXoXoXoXXoXoXoXoXoXX",
"XXoXXXXXoXXoXoXoXoXoXXoXoXoXoooXX",
"XXoXXXoXoXXoXoXoXoXoXXoXoXoXoXXXX",
"XXXoooXXXooXXoXoXoXoooXXoXoXXooXX",
"XXXXXXXXXXXXXXXXXXXoXXXXXXXXXXXXX",
"XXXXXXXXXXXXXXXXXXXXXXXXXXXXXXXXX"};
