/* XPM */

/* This file is part of XEmacs.

XEmacs is free software: you can redistribute it and/or modify it
under the terms of the GNU General Public License as published by the
Free Software Foundation, either version 3 of the License, or (at your
option) any later version.

XEmacs is distributed in the hope that it will be useful, but WITHOUT
ANY WARRANTY; without even the implied warranty of MERCHANTABILITY or
FITNESS FOR A PARTICULAR PURPOSE.  See the GNU General Public License
for more details.

You should have received a copy of the GNU General Public License
along with XEmacs.  If not, see <http://www.gnu.org/licenses/>. */

static char * cut[] = {
"33 33 4 1",
"X	c Gray75 s backgroundToolBarColor",
"o	c Gray60",
"O	c Gray90",
"+	c white",
"XXXXXXXXXXXXXXXXXXXXXXXXXXXXXXXXX",
"XXXXXXXXXXXXXXXXXXXXXXXXXXXXXXXXX",
"XXXXXXXXXXXXXXXXXXXXXXXXXXXXXXXXX",
"XXXXXXXoooooXXXXXXXXXXXXXXXXXXXXX",
"XXXXXXooXXXooXXXXXXXXXXXXXXXXXXXX",
"XXXXXooXXXXXooXXXXXXXXXXoooXXXXXX",
"XXXXXoXXXXXXXoXXXXXXXXooOOooXXXXX",
"XXXXXooXXXXXoooXXXXXooOOooXXXXXXX",
"XXXXXXooXXXoooooXXXoooooXXXXXXXXX",
"XXXXXXXoooooXXXooooooXXXXXXXXXXXX",
"XXXXXXXXXXXXXXXXo+oXXXXXXXXXXXXXX",
"XXXXXXXoooooXXXooooooXXXXXXXXXXXX",
"XXXXXXooXXXoooooXXXoooooXXXXXXXXX",
"XXXXXooXXXXXoooXXXXXooOOooXXXXXXX",
"XXXXXoXXXXXXXoXXXXXXXXooOOooXXXXX",
"XXXXXooXXXXXooXXXXXXXXXXoooXXXXXX",
"XXXXXXooXXXooXXXXXXXXXXXXXXXXXXXX",
"XXXXXXXoooooXXXXXXXXXXXXXXXXXXXXX",
"XXXXXXXXXXXXXXXXXXXXXXXXXXXXXXXXX",
"XXXXXXXXXXXXXXXXXXXXXXXXXXXXXXXXX",
"XXXXXXXXXXXXXXXXXXXXXXXXXXXXXXXXX",
"XXXXXXXXXXXXXXXXXXXXXXXXXXXXXXXXX",
"XXXXXXXXXXXXXXXXXXXXXXXXXXXXXXXXX",
"XXXXXXXXXXXXXXXXXXXXXXXXXXXXXXXXX",
"XXXXXXXXXXXXXXXXXXXXXoXXXXXXXXXXX",
"XXXXXXXXXXXoooXXXXXXXoXXXXXXXXXXX",
"XXXXXXXXXXoXXXoXoXoXoooXXXXXXXXXX",
"XXXXXXXXXXoXXXXXoXoXXoXXXXXXXXXXX",
"XXXXXXXXXXoXXXXXoXoXXoXXXXXXXXXXX",
"XXXXXXXXXXoXXXoXoXoXXoXXXXXXXXXXX",
"XXXXXXXXXXXoooXXXooXXoXXXXXXXXXXX",
"XXXXXXXXXXXXXXXXXXXXXXXXXXXXXXXXX",
"XXXXXXXXXXXXXXXXXXXXXXXXXXXXXXXXX"};
