/* XPM */

/* This file is part of XEmacs.

XEmacs is free software: you can redistribute it and/or modify it
under the terms of the GNU General Public License as published by the
Free Software Foundation, either version 3 of the License, or (at your
option) any later version.

XEmacs is distributed in the hope that it will be useful, but WITHOUT
ANY WARRANTY; without even the implied warranty of MERCHANTABILITY or
FITNESS FOR A PARTICULAR PURPOSE.  See the GNU General Public License
for more details.

You should have received a copy of the GNU General Public License
along with XEmacs.  If not, see <http://www.gnu.org/licenses/>. */

static char * disk[] = {
"28 28 5 1",
"X	c Gray75 s backgroundToolBarColor",
"o	c Gray60",
"O	c Gray60",
"+	c Gray90",
"@	c Gray40",
"XXXXXXXXXXXXXXXXXXXXXXXXXXXX",
"XXXXXXXXXXXXXXXXXXXXXXXXXXXX",
"XXXXXXXXXXXXXXXXXXXXXXXXXXXX",
"XXXXXXXXXXXXXXXXXXXXXXXXXXXX",
"XXXXXXXXXXXXXXXXXXXXXXXXXXXX",
"XXXXXooooooooooooooooooXXXXX",
"XXXXXoOOo++++++++++oOOoXXXXX",
"XXXXXoOOo++++++++++oOOoXXXXX",
"XXXXXoOOo++++++++++oOooXXXXX",
"XXXXXoOOo++++++++++oOOoXXXXX",
"XXXXXoOOo++++++++++oOOoXXXXX",
"XXXXXoOOo++++++++++oOOoXXXXX",
"XXXXXoOOo++++++++++oOOoXXXXX",
"XXXXXoOOo++++++++++oOOoXXXXX",
"XXXXXoOOooooooooooooOOoXXXXX",
"XXXXXoOOOOOOOOOOOOOOOOoXXXXX",
"XXXXXoOOOOOOOOOOOOOOOOoXXXXX",
"XXXXXoOOooooooooooooOOoXXXXX",
"XXXXXoOOo@@@@@@@o++oOOoXXXXX",
"XXXXXoOOo@@@@@@@o++oOOoXXXXX",
"XXXXXoOOo@@@@@@@o++oOOoXXXXX",
"XXXXXXoOo@@@@@@@o++oOOoXXXXX",
"XXXXXXXooooooooooooooooXXXXX",
"XXXXXXXXXXXXXXXXXXXXXXXXXXXX",
"XXXXXXXXXXXXXXXXXXXXXXXXXXXX",
"XXXXXXXXXXXXXXXXXXXXXXXXXXXX",
"XXXXXXXXXXXXXXXXXXXXXXXXXXXX",
"XXXXXXXXXXXXXXXXXXXXXXXXXXXX"};
