/* XPM */

/* This file is part of XEmacs.

XEmacs is free software: you can redistribute it and/or modify it
under the terms of the GNU General Public License as published by the
Free Software Foundation, either version 3 of the License, or (at your
option) any later version.

XEmacs is distributed in the hope that it will be useful, but WITHOUT
ANY WARRANTY; without even the implied warranty of MERCHANTABILITY or
FITNESS FOR A PARTICULAR PURPOSE.  See the GNU General Public License
for more details.

You should have received a copy of the GNU General Public License
along with XEmacs.  If not, see <http://www.gnu.org/licenses/>. */

static char * file[] = {
"33 33 4 1",
"X	c Gray75 s backgroundToolBarColor",
"o	c Gray60",
"O	c white",
"+	c Gray60",
"XXXXXXXXXXXXXXXXXXXXXXXXXXXXXXXXX",
"XXXXXXXXXXXXXXXXXXXXXXXXXXXXXXXXX",
"XXXXXXXXXXooooooooooXXXXXXXXXXXXX",
"XXXXXXXXXXoOOOOOOOOooXXXXXXXXXXXX",
"XXXXXXXXXXoOOOOOOOOo+oXXXXXXXXXXX",
"XXXXXXXXXXoOOOOOOOOo++oXXXXXXXXXX",
"XXXXXXXXXXoOOOOOOOOoooooXXXXXXXXX",
"XXXXXXXXXXoOOOOOOOOOOOOoXXXXXXXXX",
"XXXXXXXXXXoOOOOOOOOOOOOoXXXXXXXXX",
"XXXXXXXXXXoOOOOOOOOOOOOoXXXXXXXXX",
"XXXXXXXXXXoOOOOOOOOOOOOoXXXXXXXXX",
"XXXXXXXXXXoOOOOOOOOOOOOoXXXXXXXXX",
"XXXXXXXXXXoOOOOOOOOOOOOoXXXXXXXXX",
"XXXXXXXXXXoOOOOOOOOOOOOoXXXXXXXXX",
"XXXXXXXXXXoOOOOOOOOOOOOoXXXXXXXXX",
"XXXXXXXXXXoOOOOOOOOOOOOoXXXXXXXXX",
"XXXXXXXXXXoOOOOOOOOOOOOoXXXXXXXXX",
"XXXXXXXXXXoOOOOOOOOOOOOoXXXXXXXXX",
"XXXXXXXXXXoOOOOOOOOOOOOoXXXXXXXXX",
"XXXXXXXXXXooooooooooooooXXXXXXXXX",
"XXXXXXXXXXXXXXXXXXXXXXXXXXXXXXXXX",
"XXXXXXXXXXXXXXXXXXXXXXXXXXXXXXXXX",
"XXXXXXXXXXXXXXXXXXXXXXXXXXXXXXXXX",
"XXXXXXXXXXXXXXXXXXXXXXXXXXXXXXXXX",
"XXXXXXXXXXXXXXXXXXXXXXXXXXXXXXXXX",
"XXXXXXXXXoooXXXXXXXXXXXXXXXXXXXXX",
"XXXXXXXXoXXXoXoooXXXoXXoooXXXXXXX",
"XXXXXXXXoXXXoXoXXoXoXoXoXXoXXXXXX",
"XXXXXXXXoXXXoXoXXoXoooXoXXoXXXXXX",
"XXXXXXXXoXXXoXoXXoXoXXXoXXoXXXXXX",
"XXXXXXXXXoooXXoooXXXooXoXXoXXXXXX",
"XXXXXXXXXXXXXXoXXXXXXXXXXXXXXXXXX",
"XXXXXXXXXXXXXXXXXXXXXXXXXXXXXXXXX"};
