/* XPM */

/* This file is part of XEmacs.

XEmacs is free software: you can redistribute it and/or modify it
under the terms of the GNU General Public License as published by the
Free Software Foundation, either version 3 of the License, or (at your
option) any later version.

XEmacs is distributed in the hope that it will be useful, but WITHOUT
ANY WARRANTY; without even the implied warranty of MERCHANTABILITY or
FITNESS FOR A PARTICULAR PURPOSE.  See the GNU General Public License
for more details.

You should have received a copy of the GNU General Public License
along with XEmacs.  If not, see <http://www.gnu.org/licenses/>. */

static char * folder[] = {
"33 33 5 1",
"X	c Gray75 s backgroundToolBarColor",
"u	c #000000000000 s foregroundToolBarColor",
"o	c black",
"O	c white",
"+	c Gray60",
"XXXXXXXXXXXXXXXXXXXXXXXXXXXXXXXXX",
"XXXXXXXXXXXXXXXXXXXXXXXXXXXXXXXXX",
"XXXXXXXXXXXXXXXXXXXXXXXXXXXXXXXXX",
"XXXXXXXXXXXXXXXXXXXXXXXXXXXXXXXXX",
"XXXXXXXXXXXoXXXXXXXooXXXXXooXXXXX",
"XXXXXXXXoooOoXXXoooOoXXooo+oXXXXX",
"XXXXXXooOOOOooooOOOoooo++++oXXXXX",
"XXXXXXoOOOOOOOOOooo+++++++oXXXXXX",
"XXXXXXXoOOOOOOoo++++++++++oXXXXXX",
"XXXXXXXoOOOOOOo++++ooo+++oXXXXXXX",
"XXXXXXXoOOOOOOo+ooo++++++oXXXXXXX",
"XXXXXXXXoOOOOo+++++++++++oXXXXXXX",
"XXXXXXXXoOOOOo+++oo+++++oXXXXXXXX",
"XXXXXXXXXoOOo++oo+++++oooXXXXXXXX",
"XXXXXXXXXoOOo++++++oooXXXXXXXXXXX",
"XXXXXXXXXoOOo+++oooXXXXXXXXXXXXXX",
"XXXXXXXXXXoo+oooXXXXXXXXXXXXXXXXX",
"XXXXXXXXXXoooXXXXXXXXXXXXXXXXXXXX",
"XXXXXXXXXXXXXXXXXXXXXXXXXXXXXXXXX",
"XXXXXXXXXXXXXXXXXXXXXXXXXXXXXXXXX",
"XXXXXXXXXXXXXXXXXXXXXXXXXXXXXXXXX",
"XXXXXXXXXXXXXXXXXXXXXXXXXXXXXXXXX",
"XXXXXXXXXXXXXXXXXXXXXXXXXXXXXXXXX",
"XXXXXXXXXXXXXXXXXXXXXXXXXXXXXXXXX",
"XXXXXXXXXXXXXXuXXXXXXXXXXXuXXXXXX",
"XXXXXXXXuuuuXXXXXXXXXXXXXXuXXXXXX",
"XXXXXXXXuXXXuXuXuXuXuXXXuuuXXXXXX",
"XXXXXXXXuXXXuXuXuuXuXuXuXXuXXXXXX",
"XXXXXXXXuXXXuXuXuXXuuuXuXXuXXXXXX",
"XXXXXXXXuXXXuXuXuXXuXXXuXXuXXXXXX",
"XXXXXXXXuuuuXXuXuXXXuuXXuuuXXXXXX",
"XXXXXXXXXXXXXXXXXXXXXXXXXXXXXXXXX",
"XXXXXXXXXXXXXXXXXXXXXXXXXXXXXXXXX"};
