/* XPM */

/* This file is part of XEmacs.

XEmacs is free software: you can redistribute it and/or modify it
under the terms of the GNU General Public License as published by the
Free Software Foundation, either version 3 of the License, or (at your
option) any later version.

XEmacs is distributed in the hope that it will be useful, but WITHOUT
ANY WARRANTY; without even the implied warranty of MERCHANTABILITY or
FITNESS FOR A PARTICULAR PURPOSE.  See the GNU General Public License
for more details.

You should have received a copy of the GNU General Public License
along with XEmacs.  If not, see <http://www.gnu.org/licenses/>. */

static char * file[] = {
/* width height num_colors chars_per_pixel */
"28 28 5 1",
" 	c Gray75 s backgroundToolBarColor",
".	c black",
"X	c white",
"o	c black",
"O	c black",
"                            ",
"                            ",
"                            ",
"                            ",
"                            ",
"                            ",
"                            ",
"                            ",
"                .           ",
"                ..          ",
"                .X.         ",
"     ............XX.        ",
"     .XXXXXXXXXXXXoX.       ",
"     .XoooooooooooooX.      ",
"     .Xooooooooooooooo.     ",
"     .XoooooooooooooO.      ",
"     .oOOOOOOOOOOOoO.       ",
"     ............OO.        ",
"                .O.         ",
"                ..          ",
"                .           ",
"                            ",
"                            ",
"                            ",
"                            ",
"                            ",
"                            ",
"                            "
};
