/* XPM */

/* This file is part of XEmacs.

XEmacs is free software: you can redistribute it and/or modify it
under the terms of the GNU General Public License as published by the
Free Software Foundation, either version 3 of the License, or (at your
option) any later version.

XEmacs is distributed in the hope that it will be useful, but WITHOUT
ANY WARRANTY; without even the implied warranty of MERCHANTABILITY or
FITNESS FOR A PARTICULAR PURPOSE.  See the GNU General Public License
for more details.

You should have received a copy of the GNU General Public License
along with XEmacs.  If not, see <http://www.gnu.org/licenses/>. */

static char * up-arrow_xpm[] = {
/* width height num_colors chars_per_pixel */
"28 28 3 1",
" 	c Gray75 s backgroundToolBarColor",
".	c black",
"X	c white",
"                            ",
"                            ",
"                            ",
"                            ",
"                            ",
"              .             ",
"             ...            ",
"            .X...           ",
"           .X.....          ",
"          .X.......         ",
"         .XXX.......        ",
"        ....X........       ",
"           .X.....          ",
"           .X.....          ",
"           .X.....          ",
"           .X.....          ",
"           .X.....          ",
"           .X.....          ",
"           .X.....          ",
"           .X.....          ",
"           .X.....          ",
"           .XXXX..          ",
"           .......          ",
"                            ",
"                            ",
"                            ",
"                            ",
"                            "
};
