/* XPM */

/* This file is part of XEmacs.

XEmacs is free software: you can redistribute it and/or modify it
under the terms of the GNU General Public License as published by the
Free Software Foundation, either version 3 of the License, or (at your
option) any later version.

XEmacs is distributed in the hope that it will be useful, but WITHOUT
ANY WARRANTY; without even the implied warranty of MERCHANTABILITY or
FITNESS FOR A PARTICULAR PURPOSE.  See the GNU General Public License
for more details.

You should have received a copy of the GNU General Public License
along with XEmacs.  If not, see <http://www.gnu.org/licenses/>. */

static char *exit-up[] = {
/* width height num_colors chars_per_pixel */
"32 32 6 1",
". c #555555",
"# c #a9a9a9",
"a c #cbcbcb s backgroundToolBarColor",
"b c #dcdcdc",
"c c #ff0000",
"d c #ffff00",
"aaaaaaaaaaaaaaaaaaaaaaaaaaaaaaaa",
"aaaaaaaaaaaaaaaaaaaaaaaaaaaaaaaa",
"aaaa########################aaaa",
"aaaa########################.aaa",
"aaaa##aaaaaaaaaaaaaaaaaaaa##.aaa",
"aaaa##a##################a##.aaa",
"aaaa##a#................#a##.aaa",
"aaaa##a#.aaaaaaaaaaaaaab#a##.aaa",
"aaaa##a#.acccacacacacccb#a##.aaa",
"aaaa##a#.acaaaacaacaacab#a##.aaa",
"aaaa##a#.accaaacaacaacab#a##.aaa",
"aaaa##a#.acaaaacaacaacab#a##.aaa",
"aaaa##a#.acccacacacaacab#a##.aaa",
"aaaa##a#.aaaaaaaaaaaaaab#a##.aaa",
"aaaa##a#bbbbbbbbbbbbbbbb#a##.aaa",
"aaaa##a##############ddd#a##.aaa",
"aaaa##aaaaaaaaaaaaaaadddaa##.aaa",
"aaaa##a#########a####ddd#a##.aaa",
"aaaa##a#......b#a#......#a##.aaa",
"aaaa##a#.aaaaab#a#.aaaab#a##.aaa",
"aaaa##a#.aaaaab#a#.aaaab#a##.aaa",
"aaaa##a#.aaaaab#a#.aaaab#a##.aaa",
"aaaa##a#.aaaaab#a#.aaaab#a##.aaa",
"aaaa##a#.aaaaab#a#.aaaab#a##.aaa",
"aaaa##a#.aaaaab#a#.aaaab#a##.aaa",
"aaaa##a#bbbbbbb#a#bbbbbb#a##.aaa",
"aaaa##a#########a########a##.aaa",
"aaaa##aaaaaaaaaaaaaaaaaaaa##.aaa",
"aaaa########################.aaa",
"aaaa########################.aaa",
"aaaaa........................aaa",
"aaaaaaaaaaaaaaaaaaaaaaaaaaaaaaaa"
};
