/* XPM */

/* This file is part of XEmacs.

XEmacs is free software: you can redistribute it and/or modify it
under the terms of the GNU General Public License as published by the
Free Software Foundation, either version 3 of the License, or (at your
option) any later version.

XEmacs is distributed in the hope that it will be useful, but WITHOUT
ANY WARRANTY; without even the implied warranty of MERCHANTABILITY or
FITNESS FOR A PARTICULAR PURPOSE.  See the GNU General Public License
for more details.

You should have received a copy of the GNU General Public License
along with XEmacs.  If not, see <http://www.gnu.org/licenses/>. */

static char * news_xpm[] = {
"28 28 5 1",
"X	c Gray75 s backgroundToolBarColor",
"o	c black",
"O	c white",
"+	c gray60",
"@	c gray",
"XXXXXXXXXXXXXXXXXXXXXXXXXXXX",
"XXXXXXXXXXXXXXXXXXXXXXXXXXXX",
"XXXXXXXXXXXXXXXXXXXXXXXXXXXX",
"XXXXXXXXXXXXXXXXXXXXXXXXXXXX",
"XXXXXXXXXXXXXXXXXXXXXXXXXXXX",
"XXXXXXXXXXXXXXXXXXXXXXXXXXXX",
"XXXXXXXXXXXXXXXXXXXXXXXXXXXX",
"XXXXXXXXXXXXXooooooooooXXXXX",
"XXXooooooooooOOOoOOOoOOoXXXX",
"XXoooOOOoOoooOoOoOoOOoOo++XX",
"XXo@oOOooOOooOooOooOooOOo++X",
"oo@o@oOOOOOOOOOOOOOOOOOOOo+X",
"o@@o@oOooooooooooooooOooOo++",
"oo@o@oOOOOOOOOOOOOOOOOOOOOo+",
"oo@@o@oOoOoOoOoooOoOoooooOo+",
"o@o@o@oOOoOooOOOOOOoOooOooOo",
"ooo@@o@oOoooooOoOOooOoooooOo",
"Xo@o@o@oOOooooOOOOOOOOoOooOo",
"XXoo@@o@oOoooooOOooooOoooooo",
"XXo@o@o@oOOooOooOooOoOoooOOo",
"XXXoo@@o@oOoOoooOooooOooOooo",
"XXXoXo@o@oOoooOoOooooOoooo++",
"XXXXoXoo@oOoOooooooooo++++++",
"XXXXXooooooooo++++++++++++++",
"XXXXXXX++++++++++++++++++XXX",
"XXXXXXXX+++++++++XXXXXXXXXXX",
"XXXXXXXXXXXXXXXXXXXXXXXXXXXX",
"XXXXXXXXXXXXXXXXXXXXXXXXXXXX"};
