/* XPM */

/* This file is part of XEmacs.

XEmacs is free software: you can redistribute it and/or modify it
under the terms of the GNU General Public License as published by the
Free Software Foundation, either version 3 of the License, or (at your
option) any later version.

XEmacs is distributed in the hope that it will be useful, but WITHOUT
ANY WARRANTY; without even the implied warranty of MERCHANTABILITY or
FITNESS FOR A PARTICULAR PURPOSE.  See the GNU General Public License
for more details.

You should have received a copy of the GNU General Public License
along with XEmacs.  If not, see <http://www.gnu.org/licenses/>. */

static char * paste[] = {
"33 33 6 1",
"X	c Gray75 s backgroundToolBarColor",
"u	c #000000000000 s foregroundToolBarColor",
"o	c black",
"O	c Gray90",
"+	c Gray60",
"@	c white",
"XXXXXXXXXXXXXXXXXXXXXXXXXXXXXXXXX",
"XXXXXXXXXXXXXXXooXXXXXXXXXXXXXXXX",
"XXXXXXXXXXXXXXoOOoXXXXXXXXXXXXXXX",
"XXXXXXXXooooooOooOooooooXXXXXXXXX",
"XXXXXXXo++++oOOOOOOo++++oXXXXXXXX",
"XXXXXXXo+++oooooooooo+++oXXXXXXXX",
"XXXXXXXo++++++++++++++++oXXXXXXXX",
"XXXXXXXo++++++++++++++++oXXXXXXXX",
"XXXXXXXo++++++++++++++++oXXXXXXXX",
"XXXXXXXo++++++++++++++++oXXXXXXXX",
"XXXXXXXo++++++oooooooooooXXXXXXXX",
"XXXXXXXo++++++o@@@@@@@@ooXXXXXXXX",
"XXXXXXXo++++++o@@@@@@@@o+oXXXXXXX",
"XXXXXXXo++++++o@oooooo@ooooXXXXXX",
"XXXXXXXo++++++o@@@@@@@@@@@oXXXXXX",
"XXXXXXXo++++++o@oooo@@@@@@oXXXXXX",
"XXXXXXXo++++++o@@@@@@@@@@@oXXXXXX",
"XXXXXXXo++++++o@@@@@@@@@@@oXXXXXX",
"XXXXXXXo++++++o@oooooooo@@oXXXXXX",
"XXXXXXXoooooooo@@@@@@@@@@@oXXXXXX",
"XXXXXXXXXXXXXXo@@@@@@@@@@@oXXXXXX",
"XXXXXXXXXXXXXXo@@@@@@@@@@@oXXXXXX",
"XXXXXXXXXXXXXXoooooooooooooXXXXXX",
"XXXXXXXXXXXXXXXXXXXXXXXXXXXXXXXXX",
"XXXXXXXXXXXXXXXXXXXXXuXXXXXXXXXXX",
"XXXXXXXuuuXXXXXXXXXXXuXXXXXXXXXXX",
"XXXXXXXuXXuXuuXXXuuXuuuXuXXXXXXXX",
"XXXXXXXuXXuXXXuXuXXXXuXuXuXXXXXXX",
"XXXXXXXuuuXXuuuXXuuXXuXuuuXXXXXXX",
"XXXXXXXuXXXXuXuXXXuXXuXuXXXXXXXXX",
"XXXXXXXuXXXXuuXuuuXXXuXXuuXXXXXXX",
"XXXXXXXXXXXXXXXXXXXXXXXXXXXXXXXXX",
"XXXXXXXXXXXXXXXXXXXXXXXXXXXXXXXXX"};
