/* XPM */

/* This file is part of XEmacs.

XEmacs is free software: you can redistribute it and/or modify it
under the terms of the GNU General Public License as published by the
Free Software Foundation, either version 3 of the License, or (at your
option) any later version.

XEmacs is distributed in the hope that it will be useful, but WITHOUT
ANY WARRANTY; without even the implied warranty of MERCHANTABILITY or
FITNESS FOR A PARTICULAR PURPOSE.  See the GNU General Public License
for more details.

You should have received a copy of the GNU General Public License
along with XEmacs.  If not, see <http://www.gnu.org/licenses/>. */

static char * printer[] = {
"33 33 6 1",
"X	c Gray75 s backgroundToolBarColor",
"o	c Gray60",
"O	c white",
"+	c Gray60",
"@	c Gray90",
"#	c Gray40",
"XXXXXXXXXXXXXXXXXXXXXXXXXXXXXXXXX",
"XXXXXXXXXXXXXXXXXXXXXXXXXXXXXXXXX",
"XXXXXXXXXoooooooooXXXXXXXXXXXXXXX",
"XXXXXXXXXoOOOOOOOooXXXXXXXXXXXXXX",
"XXXXXXXXXoOooooOOoXoXXXXXXXXXXXXX",
"XXXXXXXXXoOOOOOOOoooooooXXXXXXXXX",
"XXXXXXXXXoOoooOOOOOOoXo+ooXXXXXXX",
"XXXXXXXXXoOOOOOOOOOOoo++++oXXXXXX",
"XXXXXXXXXoooooooooooo++++ooXXXXXX",
"XXXXXXXXo@@@@@@@@@@@o+++o+oXXXXXX",
"XXXXXXXo@@@@@@@@@@@@@o+o++oXXXXXX",
"XXXXXXooooooooooooooooo+++oXXXXXX",
"XXXXXXo@@@@@@@@@@@@@@@o+++oXXXXXX",
"XXXXXXo@@@@@@@@@@@@@@@o++ooXXXXXX",
"XXXXXXo@@@@@@@@@@@@@@@o+ooXXXXXXX",
"XXXXXXo@@@@@@@@@@@@@@@oo#oXXXXXXX",
"XXXXXXooooooooooooooooo#oXXXXXXXX",
"XXXXXXXo+++++++++++++o#oXXXXXXXXX",
"XXXXXXXXo+++++++++++o#oXXXXXXXXXX",
"XXXXXXXXo+++++++++++ooXXXXXXXXXXX",
"XXXXXXXXXooooooooooooXXXXXXXXXXXX",
"XXXXXXXXXXXXXXXXXXXXXXXXXXXXXXXXX",
"XXXXXXXXXXXXXXXXXXXXXXXXXXXXXXXXX",
"XXXXXXXXXXXXXXXXXXXXXXXXXXXXXXXXX",
"XXXXXXXXXXXXXXXXoXXXXXXXoXXXXXXXX",
"XXXXXXXXoooXXXXXXXXXXXXXoXXXXXXXX",
"XXXXXXXXoXXoXoXooXoooXXoooXXXXXXX",
"XXXXXXXXoXXoXooXoXoXXoXXoXXXXXXXX",
"XXXXXXXXoooXXoXXoXoXXoXXoXXXXXXXX",
"XXXXXXXXoXXXXoXXoXoXXoXXoXXXXXXXX",
"XXXXXXXXoXXXXoXXoXoXXoXXoXXXXXXXX",
"XXXXXXXXXXXXXXXXXXXXXXXXXXXXXXXXX",
"XXXXXXXXXXXXXXXXXXXXXXXXXXXXXXXXX"};
