/* XPM */

/* This file is part of XEmacs.

XEmacs is free software: you can redistribute it and/or modify it
under the terms of the GNU General Public License as published by the
Free Software Foundation, either version 3 of the License, or (at your
option) any later version.

XEmacs is distributed in the hope that it will be useful, but WITHOUT
ANY WARRANTY; without even the implied warranty of MERCHANTABILITY or
FITNESS FOR A PARTICULAR PURPOSE.  See the GNU General Public License
for more details.

You should have received a copy of the GNU General Public License
along with XEmacs.  If not, see <http://www.gnu.org/licenses/>. */

static char * printer[] = {
"28 28 6 1",
"X	c Gray75 s backgroundToolBarColor",
"o	c black",
"O	c white",
"+	c Gray60",
"@	c Gray90",
"#	c Gray40",
"XXXXXXXXXXXXXXXXXXXXXXXXXXXX",
"XXXXXXXXXXXXXXXXXXXXXXXXXXXX",
"XXXXXXXXXXXXXXXXXXXXXXXXXXXX",
"XXXXXXXXXXXXXXXXXXXXXXXXXXXX",
"XXXXXXoooooooooXXXXXXXXXXXXX",
"XXXXXXoOOOOOOOooXXXXXXXXXXXX",
"XXXXXXoOooooOOoXoXXXXXXXXXXX",
"XXXXXXoOOOOOOOoooooooXXXXXXX",
"XXXXXXoOoooOOOOOOoXo+ooXXXXX",
"XXXXXXoOOOOOOOOOOoo++++oXXXX",
"XXXXXXoooooooooooo++++ooXXXX",
"XXXXXo@@@@@@@@@@@o+++o+oXXXX",
"XXXXo@@@@@@@@@@@@@o+o++oXXXX",
"XXXooooooooooooooooo+++oXXXX",
"XXXo@@@@@@@@@@@@@@@o+++oXXXX",
"XXXo@@@@@@@@@@@@@@@o++ooXXXX",
"XXXo@@@@@@@@@@@@@@@o+ooXXXXX",
"XXXo@@@@@@@@@@@@@@@oo#oXXXXX",
"XXXooooooooooooooooo#oXXXXXX",
"XXXXo+++++++++++++o#oXXXXXXX",
"XXXXXo+++++++++++o#oXXXXXXXX",
"XXXXXo+++++++++++ooXXXXXXXXX",
"XXXXXXooooooooooooXXXXXXXXXX",
"XXXXXXXXXXXXXXXXXXXXXXXXXXXX",
"XXXXXXXXXXXXXXXXXXXXXXXXXXXX",
"XXXXXXXXXXXXXXXXXXXXXXXXXXXX",
"XXXXXXXXXXXXXXXXXXXXXXXXXXXX",
"XXXXXXXXXXXXXXXXXXXXXXXXXXXX"};
