/* XPM */

/* This file is part of XEmacs.

XEmacs is free software: you can redistribute it and/or modify it
under the terms of the GNU General Public License as published by the
Free Software Foundation, either version 3 of the License, or (at your
option) any later version.

XEmacs is distributed in the hope that it will be useful, but WITHOUT
ANY WARRANTY; without even the implied warranty of MERCHANTABILITY or
FITNESS FOR A PARTICULAR PURPOSE.  See the GNU General Public License
for more details.

You should have received a copy of the GNU General Public License
along with XEmacs.  If not, see <http://www.gnu.org/licenses/>. */

static char * undo[] = {
"28 28 5 1",
"X	c Gray75 s backgroundToolBarColor",
"o	c black",
"O	c Gray60",
"+	c Gray90",
"@	c white",
"XXXXXXXXXXXXXXXXXXXXXXXXXXXX",
"XXXXXXXXXXXXXXXXXXXXXXXXXXXX",
"XXXXXXXXXXXXXXXXXXXXXXXXXXXX",
"XXXXXXXXXXXXXXXXXXXXXXXXXXXX",
"XXXXXXXXXXXXXXXXXXXXXXXXXXXX",
"XXXXXXXXXXXXXXXXXXXXXXXXXXXX",
"XXXXXXXXXXXXXXXXXXXooXXXXXXX",
"XXXXXXXXXXXXXXXXXooOOooooXXX",
"XXXXXXXXXXXXXXXooOOOOOOOOooX",
"XXXXXXXXXXXXXooOOOOOOOOOooXX",
"XXXXXXXXXXXoo++ooooOOOooOoXX",
"XXXXXXXXXoo++++++++oooOOoXXX",
"XXXXXXXoo+++++++++oooOOOoXXX",
"XXXXXoo+++++++++oo++oOOoXXXX",
"XXXXoo++++++++oo+++oOooXXXXX",
"XXXo++oooo++oo+++++ooXXXXXXX",
"XXXo++++++oo+++++ooXXXXXXXXX",
"XXo+++++++o++++ooXXXXXXXXXXX",
"XXo+++++++o++ooXXXXXXXXXXXXX",
"Xoo++++++o+ooXXXXXXXXXXXXXXX",
"X@@oooo++ooXXXXXXXXXXXXXXXXX",
"X@@@@@@ooXXXXXXXXXXXXXXXXXXX",
"X@@@@@@XXXXXXXXXXXXXXXXXXXXX",
"X@@@@XXXXXXXXXXXXXXXXXXXXXXX",
"X@@@XXXXXXXXXXXXXXXXXXXXXXXX",
"X@XXXXXXXXXXXXXXXXXXXXXXXXXX",
"XXXXXXXXXXXXXXXXXXXXXXXXXXXX",
"XXXXXXXXXXXXXXXXXXXXXXXXXXXX"};
