/* XPM */

/* This file is part of XEmacs.

XEmacs is free software: you can redistribute it and/or modify it
under the terms of the GNU General Public License as published by the
Free Software Foundation, either version 3 of the License, or (at your
option) any later version.

XEmacs is distributed in the hope that it will be useful, but WITHOUT
ANY WARRANTY; without even the implied warranty of MERCHANTABILITY or
FITNESS FOR A PARTICULAR PURPOSE.  See the GNU General Public License
for more details.

You should have received a copy of the GNU General Public License
along with XEmacs.  If not, see <http://www.gnu.org/licenses/>. */

/* A recycle logo, artist unknown, converted to xpm by jwz */
static char *recycle[] = {
/*   width height ncolors chars_per_pixel x_hot y_hot */
"    51    51     4       1               26    23",
/*  colors */
"  c None		m None",
"# c black		m black",
"- c chartreuse1	m #7fff0f",
"@ c chartreuse4	m #4f8f0f",
/*  pixels */
"                                                   ",
"                 ###################               ",
"               ##------------##@@-@-##             ",
"              #-------------#@@@-@----#            ",
"             #-------------#@@@-@------#           ",
"             #------------#@@@-@-------#           ",
"            #-------------##@-@---------#   ###    ",
"            #------------# #-@----------# ##@##    ",
"           #-------------# #@------------##-##     ",
"           #------------#   #---------------#      ",
"          #-------------#   #--------------#       ",
"          #------------#     #------------@#       ",
"         #-------------#     #------------#        ",
"          ##----------#       #----------#         ",
"            ##--------#      ##---------@#         ",
"              ##-----#    ###-----------#          ",
"                ##---#    ##############   ###     ",
" ##############   ###                    ##--#     ",
" #------------##    #                  ##-----#    ",
"  ##-----------#                     ##-------#    ",
"    ##---------##                  ##----------#   ",
"     #----------#                 #------------#   ",
"    #------------#                #-------------#  ",
"    #------------##                #------------#  ",
"   #--------------#                #-------------# ",
"   #---------------#                #------------# ",
"   #------------#--##               #------------# ",
"   #-----------####-#                #-----------# ",
"   #-----------#   ##          ##    #-----------# ",
"    #---------#                ##     #---------#  ",
"    #---------#               #-#     #---------#  ",
"     #-------#                #-#      #-------#   ",
"     #-------#               #--#      #----@@##   ",
"      #-----#############    #--###############    ",
"      #-----#@@@-@------#   #----------------@#    ",
"       #---#@@@-@-------#   #---------------@#     ",
"       #---#@@-@--------#  #----------------@#     ",
"        #-#@@-@---------#  #---------------@#      ",
"        #-#@@@----------# #----------------@#      ",
"         #@@@-----------# #----------------#       ",
"         #@@@-----------#  #--------------@#       ",
"          #@@-----------#  #-------------@#        ",
"           #------------#   #-----------@#         ",
"            ##----------#   #---------@##          ",
"              ###########    #--#######            ",
"                             #--#                  ",
"                              #-#                  ",
"                              #-#                  ",
"                               ##                  ",
"                               ##                  ",
"                                                   "
};
