/* XPM */
static char * Xemacs48_xpm[] = {
"48 48 11 1",
" 	c #FFFFFFFFFFFF s None",
".	c #646464646464",
"X	c #E1E1E1E1E1E1",
"o	c #C8C8C8C8C8C8",
"O	c #7D7D7D7D7D7D",
"+	c #969696969696",
"@	c #4B4B4B4B4B4B",
"#	c #FFFF00000000",
"$	c #AFAFAFAFAFAF",
"%	c #FFFFFFFF0000",
"^	c #FFFFFFFFFFFF",
"                                                ",
"          ^^^^^^^^^^^^^^^^^^^^^^^^^^^^^^^^^^.   ",
"          ^XXXXXXXXXXXXXXXXXXXXXXXXXXXXXXXXo.   ",
"          ^XXXXXXXXXXXXXXXXXXXXXXXXXXXXXXXXo.O++",
"          ^XXXXXXXXXXXXXXXXXXXXXXXXXXXXXXXXo.O++",
"          ^XXXXXXXXXXXXXXXXXXXXXXXXXXXXXXXXo.O++",
"          ^XXXXXXXXXXXXXXXXXXXXXXXXXXXXXXXXo.O++",
"          ^XXXXXXooo..O..OooOOooXXXXXXXXXXXo.O++",
"          ^XXXXXXXXXXXXXXXXXXXXXXXXXXXXXXXXo.O++",
"  ^^^^^@  ^^^^^^@X^^^^^^^^^^^@XXXXXXXXXXXXXo.O++",
"  #####@  ^#####@X^##########@..OooXXXXXXXXo.O++",
"   ####@  ^####@XX^##########@XXXXXXXXXXXXXo.O++",
"   #####@^#####@$$^##########@$$$XXXXXXXXXXo.O++",
"    ####@^####@$$$^#####@@@@@@$$$OO.OOoXXXXo.O++",
"    ##########@$$%^#####@%%%%$%%%%%%%%%%%XXo.O++",
"     ########@$$$%^#####@^^^^^%%%%%%%%%%%XXo.O++",
"     ########@$$$%^##########@$$$oo%%%%%%XXo.O++",
"      ######@$$$$%^##########@%%%%%%%%%%%XXo.O++",
"     ########@$$$%^##########@%%%%%%%%%%%XXo.O++",
"     ########@$$XX^#####@@@@@@$$.OOOooXXXXXo.O++",
"    ##########@$$X^#####@$$$$$$$$XXXXXXXXXXo.O++",
"    ####@@####@$$X^#####@^^^^^$$$XXXXXXXXXXo.O++",
"   #####@^#####@$$^##########@$$$oooXXXXXXXo.O++",
"   ####@$$^####@$$^##########@XXXXXXXXXXXXXo.O++",
"  #####@$$^#####@$^##########@...OOOOO.XXXXo.O++",
" @@@@@@@$$@@@@@@@$@@@@@@@@@@@@$$$XXXXXXXXXXo.O++",
"     $$$$$$XXX$$$$$$XX$$....$$...OOOOO.XXXXo.O++",
"     $$$$$$XXX$$$$$$XX$$$$$$$$$$$XXXXXXXXXXo.O++",
"          ^XXXXXXXXXXXXXXXXXXXXXXXXXXXXXXXXo.O++",
"          ^XXXXXXXXXXXX..oOOO.ooOooXXXXXXXXo.O++",
"          ^XXXX+#+XXXXXXXXXXXXXXXXXXXXXXXXXo.O++",
"          ^XXX+###+XXXXXXXXXXXXXXXXXXXXXXXXo.O++",
"          ^XXX#####oOOOoo.OOOoXXXXXXXXXXXXXo.O++",
"          ^XXX+###+XXXXXXXXXXXXXXXXXXXXXXXXo.O++",
"          ^XXXX+#+XXXXXXXXXXXXXXXXXXXXXXXXXo.O++",
"          ^XXXXXXXXXXXXXXoOO.o$$OOOoXXXXXXXo.O++",
"          ^XXXXXXXXXXXXXXXXXXXXXXXXXXXXXXXXo.O++",
"          ^XXXXXXXXXXXXXXXXXXXXXXXXXXXXXXXXo.O++",
"          ^XXXXXXXXXXXXXXXXXXXXX.OOOoooXXXXo.O++",
"          ^XXXXXXXXXXXXXXXXXXXXXXXXXXXXXXXXo.O++",
"          ^XXXXXXXXXXXXXXXXXXXXXXXXXXXXXXXXo.O++",
"          ^XXXXXXXXXXXXXXXXXXXXXXXXXXXXXXXXo.O++",
"          ^XXXXXXXXXXXXXXXXXXXXXXXXXXXXXXXXo.O++",
"          ^ooooooooooooooooooooooooooooooooo.O++",
"          ...................................O++",
"            OOOOOOOOOOOOOOOOOOOOOOOOOOOOOOOOOO++",
"            ++++++++++++++++++++++++++++++++++++",
"            ++++++++++++++++++++++++++++++++++++"};
