/* XPM */

/* This file is part of XEmacs.

XEmacs is free software: you can redistribute it and/or modify it
under the terms of the GNU General Public License as published by the
Free Software Foundation, either version 3 of the License, or (at your
option) any later version.

XEmacs is distributed in the hope that it will be useful, but WITHOUT
ANY WARRANTY; without even the implied warranty of MERCHANTABILITY or
FITNESS FOR A PARTICULAR PURPOSE.  See the GNU General Public License
for more details.

You should have received a copy of the GNU General Public License
along with XEmacs.  If not, see <http://www.gnu.org/licenses/>. */

static char * radio0_xpm[] = {
"12 11 4 1",
" 	c #FFFFFFFFFFFF s background",
".	c #E6E6E6E6E6E6",
"X	c #BFBFBFBFBFBF",
"o	c #737373737373",
"     ..     ",
"    ....    ",
"   ..XX..   ",
"  ..XXXX..  ",
" ..XXXXXX.. ",
"ooXXXXXXXXoo",
" ooXXXXXXoo ",
"  ooXXXXoo  ",
"   ooXXoo   ",
"    oooo    ",
"     oo     "};
