/* XPM */

/* This file is part of XEmacs.

XEmacs is free software: you can redistribute it and/or modify it
under the terms of the GNU General Public License as published by the
Free Software Foundation, either version 3 of the License, or (at your
option) any later version.

XEmacs is distributed in the hope that it will be useful, but WITHOUT
ANY WARRANTY; without even the implied warranty of MERCHANTABILITY or
FITNESS FOR A PARTICULAR PURPOSE.  See the GNU General Public License
for more details.

You should have received a copy of the GNU General Public License
along with XEmacs.  If not, see <http://www.gnu.org/licenses/>. */

static char * right_xpm[] = {
"10 10 5 1",
" 	c Gray40",
".	c Gray40",
"X	c none",
"o	c Gray75",
"O	c Gray90",
" .XXXXXXXX",
" ...XXXXXX",
"  ....XXXX",
"  oo....XX",
"  oooo....",
"  ooooOOOO",
"  ooOOOOXX",
"  OOOOXXXX",
" OOOXXXXXX",
" OXXXXXXXX"};
