#define mulenew_width 64
#define mulenew_height 64
static char mulenew_bits[] = {
   0x00, 0x00, 0x00, 0x00, 0x00, 0x00, 0x00, 0x00, 0x00, 0x00, 0x00, 0x00,
   0x00, 0x00, 0x00, 0x00, 0x00, 0x00, 0x00, 0x00, 0x00, 0x00, 0x00, 0x00,
   0x00, 0x00, 0x00, 0xf8, 0x00, 0x00, 0x00, 0x00, 0x78, 0x00, 0x00, 0x46,
   0x00, 0x00, 0x00, 0x00, 0x88, 0x01, 0x00, 0x21, 0x00, 0x00, 0x00, 0x00,
   0x10, 0x02, 0x80, 0x30, 0x00, 0x00, 0xe0, 0x07, 0x10, 0x04, 0x40, 0x10,
   0x00, 0xf0, 0xf8, 0x0f, 0x20, 0x08, 0x22, 0x18, 0x00, 0x7e, 0x67, 0x0c,
   0xc0, 0x90, 0x32, 0x0c, 0x80, 0x1c, 0xe6, 0x0d, 0x80, 0x71, 0x25, 0x06,
   0xc0, 0xf9, 0x7e, 0x06, 0x00, 0x8b, 0x9a, 0x03, 0x80, 0x7d, 0x66, 0x06,
   0x00, 0x02, 0xbe, 0x00, 0x80, 0x1f, 0xf4, 0x07, 0x00, 0x02, 0xcc, 0x00,
   0x80, 0x79, 0x7c, 0x04, 0x00, 0x03, 0xc0, 0x01, 0x80, 0x7d, 0x60, 0x01,
   0x00, 0x01, 0x26, 0x02, 0x80, 0x1d, 0xb0, 0x01, 0x00, 0x81, 0x67, 0x02,
   0x80, 0x19, 0xde, 0x00, 0x00, 0xc3, 0x46, 0x03, 0x80, 0xf9, 0x78, 0x03,
   0x80, 0x81, 0x7f, 0x0b, 0x80, 0xdf, 0x30, 0x0e, 0x80, 0x80, 0x67, 0x0e,
   0x80, 0xc1, 0xf8, 0x0f, 0x80, 0xc0, 0x41, 0x0e, 0x00, 0xd4, 0x7f, 0x00,
   0xc0, 0x80, 0x68, 0x4c, 0x80, 0xed, 0x6e, 0x00, 0x40, 0xc0, 0x70, 0x48,
   0x30, 0xdb, 0x60, 0x03, 0x40, 0xe0, 0x60, 0x18, 0x60, 0xc3, 0x34, 0x06,
   0x20, 0x20, 0x39, 0x70, 0x60, 0xe0, 0x64, 0x0c, 0xe0, 0x27, 0x2b, 0x70,
   0x41, 0x60, 0x66, 0x1c, 0x30, 0x2e, 0x1e, 0x60, 0x01, 0x60, 0x66, 0x18,
   0x08, 0x08, 0x0e, 0x40, 0x01, 0x70, 0x66, 0x00, 0x08, 0x1c, 0x01, 0x80,
   0x01, 0x3c, 0x70, 0x00, 0x18, 0x97, 0x00, 0x80, 0x09, 0x18, 0x60, 0x00,
   0x08, 0xa0, 0x02, 0x00, 0x1f, 0x00, 0x00, 0x00, 0x08, 0x70, 0x02, 0x01,
   0x7c, 0x00, 0x00, 0x00, 0x10, 0x30, 0x06, 0x02, 0x70, 0xc0, 0x00, 0x03,
   0xe0, 0x1b, 0x04, 0x00, 0x40, 0x20, 0x81, 0x04, 0x20, 0x0c, 0x0c, 0x02,
   0x00, 0x00, 0x81, 0x04, 0xc0, 0x03, 0x04, 0x00, 0x00, 0x80, 0x80, 0x04,
   0x00, 0x00, 0x0c, 0x08, 0x00, 0x40, 0x98, 0x04, 0x00, 0x00, 0x04, 0x00,
   0x00, 0xe0, 0x19, 0x03, 0x00, 0x00, 0x00, 0x00, 0x00, 0x00, 0x00, 0x00,
   0x00, 0x00, 0x00, 0x00, 0x00, 0x00, 0x00, 0x00, 0x00, 0x00, 0x00, 0x00,
   0x00, 0x00, 0x00, 0x00, 0x00, 0xc1, 0x80, 0x00, 0x81, 0x01, 0x00, 0x00,
   0x00, 0xe1, 0x40, 0x81, 0x82, 0x01, 0xbf, 0x01, 0x80, 0x61, 0x20, 0x42,
   0x84, 0x01, 0xfe, 0x01, 0x80, 0x63, 0xc0, 0x24, 0x82, 0x01, 0x06, 0x00,
   0x80, 0x63, 0x80, 0x42, 0x82, 0x01, 0x06, 0x00, 0x80, 0xf3, 0x40, 0x82,
   0x82, 0x01, 0x06, 0x00, 0x80, 0xf3, 0x60, 0x81, 0x84, 0x01, 0x06, 0x00,
   0xc0, 0xf3, 0x20, 0x81, 0x84, 0x01, 0x06, 0x00, 0xc0, 0xdb, 0xd0, 0x00,
   0x8b, 0x01, 0x7e, 0x00, 0x40, 0xdb, 0x90, 0x00, 0x89, 0x01, 0x3e, 0x00,
   0x60, 0xca, 0x90, 0x00, 0x89, 0x01, 0x06, 0x00, 0x60, 0xce, 0x90, 0x00,
   0xc9, 0x00, 0x06, 0x00, 0x30, 0xce, 0x90, 0x00, 0xc9, 0x00, 0x07, 0x00,
   0x30, 0xce, 0x10, 0x81, 0xc8, 0x00, 0x07, 0x00, 0x18, 0xc6, 0x51, 0x81,
   0xca, 0x00, 0x07, 0x00, 0x0c, 0x86, 0x21, 0x66, 0x64, 0x80, 0x03, 0x00,
   0x06, 0x80, 0x23, 0x18, 0x74, 0x80, 0xff, 0x03, 0x03, 0x00, 0x47, 0x42,
   0xf2, 0x03, 0xfe, 0x1f, 0x00, 0x00, 0x8f, 0x81, 0xc1, 0xff, 0x01, 0x7f,
   0x00, 0x00, 0x06, 0x7e, 0x00, 0xfc, 0x00, 0x00, 0x00, 0x00, 0x04, 0x00,
   0x00, 0x00, 0x00, 0x00, 0x00, 0x00, 0x00, 0x00, 0x00, 0x00, 0x00, 0x00,
   0x00, 0x00, 0x00, 0x00, 0x00, 0x00, 0x00, 0x00};
