/* XPM */
static char *noname[] = {
/* width height ncolors chars_per_pixel */
"9 13 2 1",
/* colors */
"` s ledbg c None",
"a s ledfg c #CA1E1C",
/* pixels */
"`````````",
"`````````",
"````````a",
"````````a",
"```````a`",
"```````a`",
"`````````",
"``````a``",
"``````a``",
"`````a```",
"`````a```",
"`````````",
"`````````"
};
