/* XPM */
static char *noname[] = {
/* width height ncolors chars_per_pixel */
"9 13 2 1",
/* colors */
"a c #CB1D1C",
"` s None c None",
/* pixels */
"`````````",
"````aaaaa",
"````````a",
"````````a",
"```````a`",
"```````a`",
"``aaaaa``",
"`a```````",
"`a```````",
"a````````",
"a````````",
"aaaaa````",
"`````````"
};
