/* XPM */
static char *noname[] = {
/* width height ncolors chars_per_pixel */
"9 13 2 1",
/* colors */
"` c None    s ledbg",
"a c #CA1E1C s ledfg",
/* pixels */
"`````````",
"````aaaaa",
"````````a",
"````````a",
"```````a`",
"```````a`",
"``aaaaa``",
"``````a``",
"``````a``",
"`````a```",
"`````a```",
"aaaaa````",
"`````````"
};
