/* XPM */
static char *noname[] = {
/* width height ncolors chars_per_pixel */
"4 13 2 1",
/* colors */
"` s None c None",
"a c #CA1E1C",
/* pixels */
"````",
"``aa",
"``aa",
"````",
"````",
"````",
"````",
"````",
"````",
"````",
"````",
"````",
"````"
};
