/* XPM */
static char *noname[] = {
/* width height ncolors chars_per_pixel */
"10 13 3 1",
/* colors */
"` s None c None",
"a c #0AB224",
". s pad-color c #606060",
/* pixels */
"``````....",
"``````....",
"`````.....",
"`````.....",
"````......",
"````......",
"```.......",
"```.......",
"``........",
"``........",
"`.........",
"`aaaaaaaaa",
".........."
};
