/* XPM */
static char *noname[] = {
/* width height ncolors chars_per_pixel */
"10 13 2 1",
/* colors */
"  s None c None",
"a c #2AD244",
/* pixels */
"          ",
"          ",
"          ",
"          ",
"          ",
"          ",
"          ",
"          ",
"          ",
"  aaaaaaaa",
"          ",
" aaaaaaaaa",
"          "
};
