/* XPM */
static char *noname[] = {
/* width height ncolors chars_per_pixel */
"10 13 4 1",
/* colors */
"  s None c None",
"` c #FE0204",
"b c #2AD244",
"c c #DEE614",
/* pixels */
"          ",
"      ````",
"          ",
"     `````",
"          ",
"    cccccc",
"          ",
"   ccccccc",
"          ",
"  bbbbbbbb",
"          ",
" bbbbbbbbb",
"          "
};
