/* XPM */
static char *noname[] = {
/* width height ncolors chars_per_pixel */
"10 13 5 1",
/* colors */
"a s None c None",
"` c #FE0204",
"b c #0AB224",
"c c #DEE614",
". c #606060",
/* pixels */
"aaaaaaaaaa",
"aaaaaa````",
"aaaaa.....",
"aaaaa`````",
"aaaa......",
"aaaacccccc",
"aaa.......",
"aaaccccccc",
"aa........",
"aabbbbbbbb",
"a.........",
"abbbbbbbbb",
".........."
};
