#define noname_width 32
#define noname_height 32
static char noname_bits[] = {
 0x40,0x20,0x12,0x00,0x36,0xaa,0x22,0x6b,0x40,0x05,0x4a,0x24,0x2a,0xa0,0x10,
 0x01,0x80,0x0a,0x4f,0x54,0x6b,0xa2,0x29,0x23,0x04,0x69,0x38,0x94,0x51,0x1a,
 0x16,0x21,0x04,0x06,0xb7,0x84,0xe2,0x01,0x23,0x32,0x6a,0x80,0xa0,0x42,0x40,
 0x00,0x40,0x10,0x6a,0x00,0xc0,0x4a,0xa2,0x00,0x80,0x22,0x8a,0x00,0x80,0x2a,
 0x50,0x01,0x00,0x41,0x82,0x01,0x00,0x05,0x32,0x02,0x00,0x72,0x42,0x03,0x00,
 0x0a,0x28,0x04,0x00,0x44,0x82,0x04,0x00,0x14,0x32,0x0b,0x00,0x68,0x42,0x0c,
 0x00,0x0c,0x14,0x11,0x80,0x53,0x20,0x14,0x40,0x05,0x2b,0x2b,0x70,0x6a,0x24,
 0x20,0x0e,0x01,0x41,0xd5,0x53,0x50,0x14,0x20,0x09,0x85,0x22,0x6b,0x62,0x32,
 0x4a,0x04,0x85,0x44,0x10,0x41,0x28,0x11};
