#define noname_width 32
#define noname_height 32
static char noname_bits[] = {
 0x04,0x24,0x48,0x00,0x63,0x23,0x23,0x76,0x14,0x94,0x54,0x01,0x01,0x21,0x00,
 0x50,0x54,0x84,0x5e,0x05,0x22,0xb3,0x29,0x6a,0x4a,0x64,0x58,0x20,0x10,0x19,
 0x96,0x0a,0x42,0x06,0x37,0x50,0xaa,0x01,0xa3,0x26,0x70,0x80,0x20,0x92,0x45,
 0x00,0xc0,0x20,0x48,0x00,0x40,0x8a,0xb3,0x00,0x80,0x22,0x44,0xe1,0x80,0x29,
 0x91,0x9a,0x00,0x43,0x04,0x86,0x01,0x09,0xd2,0x61,0x01,0x62,0x62,0x70,0x01,
 0x16,0x18,0x30,0x02,0x44,0x06,0x08,0x02,0x14,0x06,0x00,0x02,0x68,0x04,0x00,
 0x04,0x0c,0x0a,0x00,0x08,0x53,0x08,0x00,0xc8,0x04,0x1b,0x00,0x30,0x63,0x14,
 0x00,0x50,0x14,0x21,0x00,0x20,0x41,0x34,0x00,0xa0,0x14,0x42,0x00,0x40,0x62,
 0x4a,0x00,0x40,0x05,0xa0,0x00,0x80,0x50};
