#define noname_width 32
#define noname_height 32
static char noname_bits[] = {
 0x04,0x40,0x40,0x00,0x63,0x37,0x36,0x76,0x14,0x40,0x41,0x01,0x21,0x15,0x10,
 0x52,0x84,0xa0,0x4a,0x08,0x32,0x2a,0x22,0x63,0x42,0xa1,0x94,0x04,0x28,0x0a,
 0x26,0x50,0x82,0x50,0x87,0x82,0x32,0x26,0x6b,0x36,0x42,0xd1,0x22,0x20,0x28,
 0x84,0x88,0x4a,0x82,0x10,0x22,0x00,0x32,0xa6,0xaa,0x76,0xa2,0x68,0x00,0x00,
 0x08,0x9a,0x55,0x55,0xa2,0x86,0x00,0x00,0x92,0x71,0x75,0x6b,0x62,0xcc,0x02,
 0x04,0x1c,0xe3,0x52,0x51,0xc8,0xe0,0x0c,0x82,0x3b,0x90,0xa4,0x32,0x0c,0x00,
 0x19,0x4a,0x05,0x00,0x49,0x01,0x04,0x00,0x12,0x54,0x0a,0x00,0x52,0x23,0x0a,
 0x00,0x24,0x94,0x14,0x00,0x64,0x21,0x10,0x00,0x48,0x84,0x2b,0x00,0x48,0x33,
 0x24,0x00,0x90,0x44,0x51,0x00,0x90,0x11};
