#define noname_width 271
#define noname_height 273
static char noname_bits[] = {
 0x00,0x00,0x00,0x00,0x00,0x00,0x00,0x00,0x00,0x00,0x00,0x00,0x00,0x00,0x00,
 0x00,0x00,0x00,0x00,0x00,0x00,0x00,0x00,0x00,0x00,0x00,0x00,0x00,0x00,0x00,
 0x00,0x00,0x00,0x00,0x00,0x00,0x00,0x00,0x00,0x00,0x00,0x00,0x00,0x00,0x00,
 0x00,0x00,0x00,0x00,0x00,0x00,0x00,0x00,0x00,0x00,0x00,0x00,0x00,0x00,0x00,
 0x00,0x00,0x00,0x00,0x00,0x00,0x00,0x00,0x00,0x00,0x00,0x00,0x00,0x00,0x00,
 0x00,0x00,0x00,0x00,0x00,0x00,0x00,0x00,0x00,0x00,0x00,0x00,0x00,0x00,0x00,
 0x00,0x00,0x00,0x00,0x00,0x00,0x00,0x00,0x05,0x00,0x00,0x00,0x00,0x00,0x00,
 0x00,0x00,0x00,0x00,0x00,0x00,0x00,0x00,0x00,0x00,0x00,0x00,0x00,0x00,0x00,
 0x00,0x00,0x00,0x00,0x00,0x00,0x00,0x00,0x00,0x00,0x00,0xa0,0x48,0x00,0x00,
 0x00,0x00,0x00,0x00,0x00,0x00,0x00,0x00,0x00,0x00,0x00,0x00,0x00,0x00,0x00,
 0x00,0x00,0x00,0x00,0x00,0x00,0x00,0x00,0x00,0x00,0x00,0x00,0x00,0x00,0x00,
 0x40,0x55,0x05,0x00,0x00,0x00,0x00,0x00,0x00,0x00,0x00,0x00,0x00,0x00,0x00,
 0x00,0x00,0x00,0x00,0x00,0x00,0x00,0x00,0x00,0x00,0x00,0x00,0x00,0x00,0x00,
 0x00,0x00,0x00,0x00,0x58,0x4a,0x52,0x00,0x00,0x00,0x00,0x00,0x00,0x00,0x00,
 0x00,0x00,0x00,0x00,0x00,0x00,0x00,0x00,0x00,0x00,0x00,0x00,0x00,0x00,0x00,
 0x00,0x00,0x00,0x00,0x00,0x00,0x00,0x00,0xa4,0x52,0x05,0x01,0x00,0x00,0x00,
 0x00,0x00,0x00,0x00,0x00,0x00,0x00,0x00,0x00,0x00,0x00,0x00,0x00,0x00,0x00,
 0x00,0x00,0x00,0x00,0x00,0x00,0x00,0x00,0x00,0x00,0x00,0x00,0x55,0x29,0x49,
 0x00,0x00,0x00,0x00,0x00,0x00,0x00,0x00,0x00,0x00,0x00,0x00,0x00,0x00,0x00,
 0x00,0x00,0x00,0x00,0x00,0x00,0x00,0x00,0x00,0x00,0x00,0x00,0x00,0x00,0x00,
 0x00,0x8a,0xaa,0x2a,0x02,0x00,0x00,0x00,0x00,0x00,0x00,0x00,0x00,0x00,0x00,
 0x00,0x00,0x00,0x00,0x00,0x00,0x00,0x00,0x00,0x00,0x00,0x00,0x00,0x00,0x00,
 0x00,0x00,0x00,0x00,0x40,0x65,0x4a,0x92,0x04,0x00,0x00,0x00,0x00,0x00,0x00,
 0x00,0x00,0x00,0x00,0x00,0x00,0x00,0x00,0x00,0x00,0x00,0x00,0x00,0x00,0x00,
 0x00,0x00,0x00,0x00,0x00,0x00,0x00,0x00,0x80,0x94,0x52,0x25,0x10,0x00,0x00,
 0x00,0x00,0x00,0x00,0x00,0x00,0x80,0x02,0x00,0x00,0x00,0x00,0x00,0x00,0x00,
 0x00,0x00,0x00,0x00,0x00,0x00,0x00,0x00,0x00,0x00,0x00,0x00,0xa0,0x52,0xa9,
 0x54,0x05,0x00,0x00,0x00,0x00,0x00,0x00,0x00,0x00,0x20,0x55,0x00,0x00,0x00,
 0x00,0x00,0x00,0x00,0x00,0x00,0x00,0x00,0x00,0x00,0x00,0x00,0x00,0x00,0x00,
 0x00,0x40,0x95,0x4a,0x95,0x10,0x00,0x00,0x00,0x00,0x00,0x00,0x00,0x00,0xa8,
 0x24,0x00,0x00,0x00,0x00,0x00,0x00,0x00,0x00,0x00,0x00,0x00,0x00,0x00,0x00,
 0x00,0x00,0x00,0x00,0x00,0xa8,0x54,0x2a,0xa5,0x24,0x00,0x00,0x00,0x00,0x00,
 0x00,0x00,0x00,0x54,0xd5,0x0a,0x00,0x00,0xa8,0x0a,0x00,0x00,0x00,0x00,0x00,
 0x00,0x00,0x00,0x00,0x00,0x00,0x00,0x00,0x00,0x90,0x52,0xa9,0x54,0x81,0x00,
 0x00,0x00,0x00,0x00,0x00,0x00,0x00,0x24,0x29,0x05,0x00,0x00,0x95,0x24,0x00,
 0x00,0x00,0x00,0x00,0x00,0x00,0x00,0x00,0x00,0x00,0x00,0x00,0x00,0x54,0x2a,
 0x95,0x92,0x24,0x00,0x00,0x00,0x00,0x00,0x00,0x00,0x00,0x4a,0xa5,0x14,0x00,
 0x00,0x52,0xa9,0x02,0x00,0x00,0x00,0x00,0x00,0x00,0x00,0x00,0x00,0x00,0x00,
 0x00,0x00,0xa4,0x52,0xa9,0x2a,0x11,0x00,0x00,0x00,0x00,0x00,0x00,0x00,0x00,
 0xa9,0x54,0x2a,0x00,0xd0,0x2a,0x55,0x01,0x00,0x00,0x00,0x00,0x00,0x00,0x00,
 0x00,0x00,0x00,0x00,0x00,0x00,0x52,0x29,0x95,0x54,0x85,0x00,0x00,0x00,0x00,
 0x00,0x00,0x00,0x40,0x55,0xa5,0x12,0x00,0x20,0xa5,0x4a,0x16,0x00,0x00,0x00,
 0x00,0x00,0x00,0x00,0x00,0x00,0x00,0x00,0x00,0x00,0x94,0x4a,0xa9,0x52,0x12,
 0x02,0x00,0x00,0x00,0x00,0x00,0x00,0x80,0x4a,0x2a,0xa9,0x00,0xac,0x52,0x52,
 0x51,0x00,0x00,0x00,0x00,0x00,0x00,0x00,0x00,0x00,0x00,0x00,0x00,0x00,0x55,
 0xaa,0x4a,0x2a,0x85,0x00,0x00,0x00,0x00,0x00,0x00,0x00,0x50,0x52,0x49,0xa5,
 0x00,0x49,0xaa,0x94,0x96,0x00,0x00,0x00,0x00,0x00,0x00,0x00,0x00,0x00,0x00,
 0x00,0x00,0x00,0xa5,0x24,0x55,0xa5,0x24,0x00,0x00,0x00,0x00,0x00,0x00,0x00,
 0x48,0x95,0xaa,0x2a,0x81,0x54,0x25,0x55,0x49,0x00,0x00,0x00,0x00,0x00,0x00,
 0x00,0x00,0x00,0x00,0x00,0x00,0x80,0x14,0xa1,0x92,0x92,0x12,0x01,0x00,0x00,
 0x00,0x00,0x00,0x00,0x50,0x2a,0x95,0x54,0x05,0xa5,0x54,0x49,0xaa,0x02,0x00,
 0x00,0x00,0x00,0x00,0x00,0x00,0x00,0x00,0x00,0x00,0x00,0x05,0x14,0x55,0xaa,
 0x42,0x00,0x00,0x00,0x00,0x00,0x00,0x00,0x48,0xa5,0xa2,0x92,0x42,0x55,0x4a,
 0x55,0x55,0x01,0x00,0x00,0x00,0x00,0x00,0x00,0x00,0x00,0x00,0x00,0x00,0x80,
 0x42,0x01,0x48,0x55,0x15,0x02,0x00,0x00,0x00,0x00,0x00,0x00,0x54,0x2a,0x55,
 0x55,0x0a,0x49,0x95,0x92,0x24,0x05,0x00,0x00,0x00,0x00,0x00,0x00,0x00,0x00,
 0x00,0x00,0x00,0xa0,0x04,0x00,0x50,0x92,0x44,0x00,0x00,0x00,0x00,0x00,0x00,
 0x00,0xaa,0x52,0x29,0x49,0xa9,0xaa,0x52,0xa9,0x52,0x15,0x00,0x00,0x00,0x00,
 0x00,0x00,0x00,0x00,0x00,0x00,0x00,0x80,0xa2,0x02,0x20,0x55,0x12,0x01,0x00,
 0x00,0x00,0x00,0x00,0x00,0x49,0xa5,0x4a,0x55,0x55,0x92,0x94,0x2a,0x95,0x24,
 0x00,0x00,0x00,0x00,0x00,0x00,0x00,0x00,0x00,0x00,0x00,0x50,0x01,0x00,0x50,
 0xa9,0x42,0x00,0x00,0x00,0x00,0x00,0x00,0x00,0x25,0x29,0xa9,0x92,0x24,0x55,
 0x55,0x4a,0x55,0x15,0x00,0x00,0x00,0x00,0x00,0x00,0x00,0x00,0x00,0x00,0x00,
 0x50,0x92,0x00,0x40,0x25,0x15,0x02,0x00,0x04,0x00,0x00,0x00,0x80,0xaa,0x4a,
 0x95,0x54,0x55,0x29,0xa9,0x54,0x92,0xaa,0x00,0x00,0x00,0x00,0x00,0x00,0x00,
 0x00,0x00,0x00,0x00,0xa0,0x40,0x00,0x40,0xaa,0x42,0x00,0x00,0x04,0x00,0x00,
 0x00,0x40,0x52,0xa9,0xa4,0xaa,0x92,0x4a,0x95,0x4a,0x55,0x49,0x00,0x00,0x00,
 0x00,0x00,0x00,0x00,0x00,0x00,0x00,0x00,0x90,0x12,0x00,0x00,0x95,0x14,0x01,
 0x00,0x59,0x00,0x00,0x00,0x50,0x95,0x42,0x55,0x12,0x55,0xaa,0xa4,0x52,0x92,
 0x52,0x01,0x00,0x00,0x00,0x00,0x00,0x00,0x00,0x00,0x00,0x00,0xa8,0x40,0x01,
 0x40,0xa9,0x42,0x00,0x00,0x25,0x00,0x00,0x00,0x48,0x49,0x10,0x92,0xaa,0x4a,
 0x25,0x55,0xa9,0xaa,0x54,0x05,0x00,0x00,0x00,0x00,0x00,0x00,0x00,0x00,0x00,
 0x00,0xa4,0x14,0x00,0x80,0x4a,0x11,0x02,0x00,0x55,0x01,0x00,0x00,0x50,0x2a,
 0x45,0x54,0xa9,0x54,0xaa,0x92,0x4a,0x49,0x25,0x09,0x00,0x00,0x00,0x00,0x00,
 0x00,0x00,0x00,0x00,0x00,0x48,0x41,0x00,0x00,0x92,0xa2,0x00,0x00,0x92,0x02,
 0x00,0x00,0xad,0x4a,0x10,0x49,0x4a,0x4a,0x49,0xa9,0x54,0xaa,0x54,0x05,0x00,
 0x00,0x00,0x00,0x00,0x00,0x00,0x00,0x00,0x00,0x54,0x10,0x00,0x00,0x55,0x09,
 0x00,0x00,0x55,0x02,0x00,0x00,0x92,0x04,0x41,0xa0,0x52,0xa9,0x0a,0x44,0xa9,
 0x52,0xa5,0x2a,0x00,0x00,0x00,0x00,0x00,0x00,0x00,0x00,0x00,0x00,0x90,0x48,
 0x00,0x00,0x2a,0xa5,0x02,0x00,0x49,0x05,0x00,0x80,0xaa,0x52,0x14,0x4a,0x2a,
 0x55,0x42,0x11,0x14,0x95,0x54,0x12,0x00,0x00,0x00,0x00,0x00,0x00,0x00,0x00,
 0x00,0x00,0x50,0x00,0x00,0x00,0xa5,0x02,0x00,0x00,0x2a,0x09,0x00,0xa0,0x24,
 0x01,0x41,0xa0,0x54,0x49,0x08,0x44,0x61,0x2a,0xa5,0x54,0x00,0x00,0x00,0x00,
 0x00,0x00,0x00,0x00,0x00,0x20,0x20,0x28,0x00,0x00,0x4a,0x92,0x00,0x00,0xa4,
 0x0a,0x00,0xa8,0xaa,0x54,0x28,0x0a,0x25,0xa5,0x42,0x01,0x08,0x49,0x95,0x4a,
 0x00,0x00,0x00,0x00,0x00,0x00,0x00,0x00,0x00,0x10,0x10,0x00,0x00,0x00,0xa9,
 0x22,0x00,0x00,0x2a,0x15,0x00,0x24,0x55,0x02,0x81,0x20,0xaa,0x2a,0x14,0x54,
 0xa2,0xaa,0x54,0x55,0x01,0x00,0x00,0x00,0x20,0x00,0x00,0x00,0x00,0x20,0x00,
 0x00,0x00,0x00,0x52,0x82,0x00,0x00,0xa4,0x24,0x80,0x52,0x89,0x40,0x00,0x89,
 0x90,0x14,0x21,0x81,0x08,0x52,0xa5,0xa4,0x00,0x00,0x00,0x00,0x40,0x00,0x00,
 0x00,0x00,0x14,0x00,0x00,0x00,0x80,0x2a,0x29,0x00,0x00,0xaa,0x4a,0x01,0x95,
 0x2a,0x0a,0x00,0x04,0xaa,0x12,0x84,0x14,0xa2,0x24,0x49,0x49,0x05,0x00,0x00,
 0x00,0x28,0x00,0x00,0x00,0x00,0x28,0x00,0x00,0x00,0x00,0x4a,0x81,0x00,0x00,
 0x48,0x52,0xd2,0xaa,0xa4,0x00,0x00,0xa0,0x50,0x4a,0x21,0x80,0x08,0x99,0x2a,
 0x55,0x02,0x00,0x00,0x00,0x10,0x00,0x00,0x00,0x00,0x0a,0x00,0x00,0x00,0x00,
 0xa9,0x28,0x00,0x00,0xaa,0xaa,0x14,0x49,0x15,0x02,0x00,0x08,0xa2,0x0a,0x84,
 0x4a,0x20,0xa4,0xaa,0xaa,0x0a,0x00,0x00,0x00,0x2a,0x00,0x00,0x00,0x00,0x12,
 0x00,0x00,0x00,0x80,0x52,0x81,0x00,0x00,0x24,0x95,0xaa,0x2a,0x85,0x00,0x00,
 0x40,0x91,0x44,0x01,0x00,0x0a,0x51,0x49,0x92,0x14,0x00,0x00,0x00,0x0a,0x00,
 0x00,0x00,0x00,0x05,0x00,0x00,0x00,0x00,0x2a,0x29,0x00,0x00,0xa8,0xa4,0x52,
 0x52,0x12,0x00,0x00,0x00,0xa4,0x12,0x00,0x00,0x20,0x44,0xaa,0xaa,0x52,0x00,
 0x00,0x00,0x14,0x00,0x00,0x00,0x00,0x0a,0x00,0x00,0x00,0x80,0x4a,0x81,0x00,
 0x00,0x94,0x52,0x4a,0x55,0x41,0x01,0x00,0x40,0x41,0x22,0x00,0x00,0x40,0x21,
 0x55,0x49,0x2a,0x00,0x00,0x80,0x0a,0x00,0x00,0x00,0x00,0x05,0x00,0x00,0x00,
 0x80,0x52,0x29,0x00,0x00,0xa8,0xaa,0x54,0x4a,0x04,0x00,0x00,0x00,0x8a,0x08,
 0x00,0x00,0x00,0x84,0x22,0x55,0x49,0x01,0x00,0x00,0x09,0x00,0x00,0x00,0x80,
 0x04,0x00,0x00,0x00,0x00,0x2a,0x81,0x00,0x00,0x92,0x94,0x52,0x25,0x51,0x00,
 0x00,0x00,0xa2,0x02,0x00,0x00,0x40,0x21,0xa9,0xa4,0xaa,0x02,0x00,0x80,0x0a,
 0x00,0x00,0x00,0x80,0x42,0x00,0x00,0x00,0x00,0x95,0x28,0x00,0x00,0xa8,0x52,
 0x95,0x94,0x04,0x00,0x00,0x00,0x05,0x14,0x00,0x00,0x00,0x14,0x4a,0x95,0x94,
 0x0a,0x00,0xa0,0x24,0x00,0x00,0x00,0x20,0x01,0x00,0x00,0x00,0x80,0xa4,0x04,
 0x00,0x00,0x48,0x4a,0xaa,0x2a,0x10,0x00,0x00,0x80,0x52,0x01,0x00,0x00,0x00,
 0x81,0xa8,0x52,0x4a,0xa9,0x00,0xaa,0x0a,0x00,0x00,0x00,0x90,0x22,0x00,0x00,
 0x00,0x00,0x55,0x41,0x00,0x00,0x52,0x55,0x49,0x89,0x02,0x00,0x00,0x00,0x01,
 0x04,0x00,0x00,0x00,0x24,0x92,0x54,0x55,0x4a,0x95,0x94,0x04,0x10,0x00,0x00,
 0xa0,0x08,0x00,0x00,0x00,0x00,0x29,0x14,0x00,0x80,0x28,0x29,0xa5,0x24,0x08,
 0x00,0x00,0xc0,0x40,0x01,0x00,0x00,0x00,0x88,0xa4,0x2a,0x49,0x55,0x52,0x4a,
 0x05,0x28,0x00,0x00,0x54,0x41,0x00,0x00,0x00,0x80,0x4a,0x21,0x00,0x00,0x52,
 0xa5,0x2a,0x81,0x00,0x00,0x00,0x10,0x11,0x04,0x00,0x00,0x00,0x00,0x50,0xa5,
 0xaa,0xa4,0xaa,0x52,0x12,0x50,0x00,0x00,0x28,0x14,0x00,0x00,0x00,0x00,0x55,
 0x04,0x00,0x00,0xa0,0x94,0x94,0x2a,0x00,0x00,0x00,0xa0,0x00,0x01,0x00,0x00,
 0x00,0x40,0x45,0x52,0x25,0x55,0x49,0xa9,0x02,0x28,0x00,0x00,0x95,0x00,0x00,
 0x00,0x00,0x00,0x49,0x49,0x00,0x80,0x4a,0x55,0x29,0x80,0x00,0x00,0x00,0x54,
 0x20,0x00,0x00,0x00,0x00,0x00,0x90,0x94,0x54,0x49,0x2a,0x95,0x02,0xca,0x00,
 0x40,0x65,0x04,0x00,0x00,0x00,0x80,0x52,0x20,0x00,0x00,0xa0,0xa4,0x4a,0x29,
 0x00,0x00,0x00,0x28,0x82,0x00,0x00,0x00,0x00,0x00,0x05,0x55,0x2a,0x55,0x55,
 0xa5,0x04,0x28,0x01,0xaa,0x14,0x10,0x00,0x00,0x00,0x80,0x54,0x0a,0x00,0x80,
 0x92,0x4a,0x0a,0x04,0x00,0x00,0x00,0x2a,0x01,0x00,0x00,0x00,0x00,0x00,0x10,
 0x52,0x49,0x29,0x49,0x2a,0x01,0x55,0x2a,0x49,0x29,0x09,0x00,0x00,0x00,0x00,
 0x25,0x21,0x00,0x00,0x04,0x55,0x45,0x01,0x00,0x00,0x00,0x04,0x00,0x00,0x00,
 0x00,0x00,0x00,0x84,0x94,0xaa,0x4a,0xa5,0x52,0x01,0x94,0x92,0x2a,0x55,0x00,
 0x00,0x00,0x00,0x40,0x55,0x08,0x00,0x00,0x50,0x28,0x11,0x04,0x00,0x00,0x80,
 0xaa,0x00,0x00,0x00,0x00,0x00,0x00,0x50,0x28,0x25,0x55,0x2a,0xa5,0x04,0xa5,
 0xaa,0x54,0x25,0x05,0x00,0x00,0x00,0x80,0x14,0x01,0x00,0x00,0x04,0x42,0x20,
 0x01,0x00,0x00,0x80,0x0a,0x01,0x00,0x00,0x00,0x00,0x00,0x00,0xa2,0x52,0x49,
 0xa9,0x54,0x80,0xaa,0x54,0x4a,0x29,0x00,0x00,0x00,0x00,0x40,0x4a,0x14,0x00,
 0x00,0x90,0x08,0x85,0x00,0x00,0x00,0x00,0x21,0x00,0x00,0x00,0x00,0x00,0x00,
 0x90,0x48,0xaa,0x52,0xa5,0x4a,0x02,0x92,0xa2,0x92,0x8a,0x00,0x00,0x00,0x00,
 0x80,0x92,0x00,0x00,0x00,0x24,0x42,0x20,0x00,0x00,0x00,0xa0,0x0a,0x00,0x00,
 0x00,0x00,0x00,0x00,0x20,0x42,0x95,0x54,0x2a,0x15,0x40,0x55,0x55,0xa9,0x24,
 0x01,0x00,0x00,0x00,0x80,0x2a,0x0a,0x00,0x00,0x80,0x08,0x85,0x00,0x00,0x00,
 0x40,0x20,0x00,0x00,0x00,0x00,0x00,0x00,0x00,0x88,0x24,0xa5,0x52,0xa2,0x80,
 0x24,0x95,0x2a,0x05,0x00,0x00,0x00,0x00,0x40,0x2a,0x00,0x00,0x00,0x20,0x42,
 0x10,0x00,0x00,0x00,0xa0,0x08,0x00,0x00,0x00,0x00,0x00,0x00,0x80,0x22,0xaa,
 0x2a,0xa9,0x0a,0x20,0x55,0x49,0x4a,0x49,0x01,0x00,0x00,0x00,0x80,0x12,0x15,
 0x00,0x00,0x10,0x28,0x09,0x00,0x00,0x00,0x48,0x22,0x00,0x00,0x00,0x00,0x00,
 0x00,0x00,0x88,0x54,0xa9,0x4a,0x21,0x40,0xa9,0xaa,0x54,0x21,0x00,0x00,0x00,
 0x00,0x40,0x45,0x00,0x00,0x00,0x80,0x02,0x02,0x00,0x00,0x00,0x28,0x08,0x00,
 0x00,0x00,0x00,0x40,0x00,0x00,0x22,0x49,0x4a,0x2a,0x89,0x90,0x4a,0xa4,0x52,
 0x0a,0x00,0x00,0x00,0x00,0xa0,0x98,0x04,0x00,0x00,0x00,0x54,0x00,0x00,0x00,
 0x00,0x24,0x02,0x00,0x00,0x00,0x00,0x50,0x01,0x00,0x00,0x94,0xaa,0x54,0x24,
 0x20,0x95,0x95,0x4a,0xa0,0x00,0x00,0x00,0x00,0x80,0x02,0x02,0x00,0x00,0x00,
 0x00,0x00,0x00,0x00,0x00,0x88,0x00,0x00,0x00,0x00,0x00,0x20,0x05,0x00,0x50,
 0xa1,0x92,0x12,0x01,0xa0,0x52,0x52,0xa9,0x0a,0x00,0x00,0x00,0x00,0xa0,0xaa,
 0x00,0x00,0x00,0x00,0x00,0x00,0x00,0x00,0x00,0x15,0x02,0x00,0x00,0x00,0x00,
 0x50,0x09,0x00,0x00,0x84,0x54,0x45,0x14,0x50,0xaa,0x2a,0x15,0x20,0x00,0x00,
 0x00,0x00,0x40,0x0a,0x02,0x00,0x00,0x00,0x00,0x00,0x00,0x00,0x00,0x85,0x00,
 0x00,0x00,0x00,0x00,0x94,0x2a,0x00,0x40,0x21,0x49,0x10,0x01,0x20,0x25,0x49,
 0x05,0x0a,0x00,0x00,0x00,0x00,0xa0,0x82,0x00,0x00,0x00,0x00,0x00,0x00,0x00,
 0x00,0x00,0x22,0x00,0x00,0x00,0x00,0x00,0x28,0x25,0x00,0x00,0x14,0x10,0x45,
 0x04,0x40,0xa9,0xaa,0x50,0x20,0x00,0x00,0x00,0x00,0x90,0x12,0x02,0x00,0x00,
 0x00,0x00,0x00,0x00,0x00,0x40,0x49,0x00,0x00,0x00,0x00,0x00,0xa4,0x92,0x00,
 0x00,0x01,0x45,0x10,0x01,0x00,0x95,0x54,0x0a,0x0a,0x00,0x00,0x00,0x00,0xa0,
 0x84,0x00,0x00,0x00,0x00,0x00,0x00,0x00,0x00,0x80,0x02,0x00,0x00,0x00,0x00,
 0x00,0x55,0xaa,0x00,0x00,0x54,0x10,0x01,0x00,0x80,0xaa,0x92,0xa0,0x00,0x00,
 0x00,0x00,0x00,0x20,0x25,0x02,0x00,0x00,0x00,0x00,0x00,0x00,0x00,0xa0,0x48,
 0x00,0x00,0x00,0x80,0x02,0x29,0x55,0x00,0x00,0x00,0x44,0x54,0x01,0x00,0x49,
 0x2a,0x09,0x02,0x00,0x00,0x00,0x00,0x50,0x81,0x00,0x00,0x00,0x00,0x00,0x00,
 0x00,0x00,0x40,0x21,0x00,0x00,0x00,0xa0,0x00,0x52,0x49,0x01,0x00,0x54,0x11,
 0x01,0x00,0x40,0x54,0x05,0x24,0x00,0x00,0x00,0x00,0x00,0xa0,0x12,0x00,0x00,
 0x00,0x00,0x00,0x00,0x00,0x00,0x50,0x08,0x00,0x00,0x00,0x40,0x41,0x95,0xaa,
 0x02,0x00,0x00,0x04,0x24,0x00,0x00,0x41,0x40,0x01,0x01,0x00,0x00,0x00,0x00,
 0x28,0x41,0x01,0x00,0x00,0x00,0x00,0x00,0x00,0x00,0x10,0x02,0x00,0x00,0x00,
 0xa8,0x80,0x2a,0x49,0x02,0x00,0x40,0x50,0x10,0x00,0x40,0x24,0x09,0x54,0x00,
 0x00,0x00,0x00,0x00,0x50,0x09,0x00,0x00,0x00,0x00,0x00,0x00,0x00,0x00,0xa8,
 0x00,0x00,0x00,0x00,0x2a,0x40,0x49,0x55,0x01,0x00,0x00,0x85,0x02,0x00,0x00,
 0x08,0x44,0x01,0x00,0x00,0x00,0x00,0x00,0x90,0x40,0x00,0x00,0x00,0x00,0x00,
 0x00,0x00,0x00,0x24,0x02,0x00,0x00,0x00,0x24,0x20,0x55,0x92,0x02,0x00,0x00,
 0x00,0x00,0x00,0x40,0xa1,0x10,0x14,0x00,0x00,0x00,0x00,0x00,0x28,0x09,0x00,
 0x00,0x00,0x00,0x00,0x00,0x00,0x00,0x88,0x00,0x00,0x00,0x00,0x15,0xa0,0x4a,
 0x55,0x05,0x00,0x00,0x00,0x00,0x00,0x00,0x08,0x24,0x01,0x00,0x00,0x00,0x00,
 0x00,0xa4,0xa0,0x00,0x00,0x00,0x00,0x00,0x00,0x00,0x00,0x15,0x02,0x00,0x00,
 0x40,0x29,0x28,0xa9,0x2a,0x09,0x00,0x00,0x00,0x00,0x00,0x80,0xa2,0x80,0x04,
 0x00,0x00,0x00,0x00,0x00,0xa8,0x04,0x00,0x00,0x00,0x00,0x00,0x00,0x00,0x00,
 0x85,0x00,0x00,0x00,0x80,0x0a,0xa9,0x54,0x92,0x04,0x00,0x00,0x00,0x00,0x00,
 0x00,0x08,0x2a,0x00,0x00,0x00,0x00,0x00,0x00,0x48,0x50,0x00,0x00,0x00,0x00,
 0x00,0x00,0x00,0x00,0x22,0x00,0x00,0x00,0x50,0x4a,0x40,0xa5,0x54,0x05,0x00,
 0x00,0x00,0x00,0x00,0x00,0x20,0x80,0x00,0x00,0x00,0x00,0x00,0x00,0x94,0x04,
 0x00,0x00,0x00,0x00,0x00,0x00,0x00,0x40,0x05,0x00,0x00,0x00,0x50,0x85,0x80,
 0x2a,0xa5,0x0a,0x00,0x00,0x00,0x00,0x00,0x00,0x14,0x15,0x00,0x00,0x00,0x00,
 0x00,0x00,0x50,0x20,0x00,0x00,0x00,0x00,0x00,0x00,0x00,0x80,0x50,0x00,0x00,
 0x00,0x4a,0x12,0x00,0x52,0x95,0x04,0x00,0x00,0x00,0x00,0x00,0x00,0x40,0x00,
 0x00,0x00,0x00,0x00,0x00,0x00,0x14,0x12,0x00,0x00,0x00,0x00,0x00,0x00,0x00,
 0x40,0x05,0x00,0x00,0x00,0xa9,0x42,0x80,0x94,0x52,0x05,0x00,0x00,0x00,0x00,
 0x00,0x00,0x00,0x00,0x00,0x00,0x00,0x00,0x00,0x00,0x54,0x04,0x00,0x00,0x00,
 0x00,0x00,0x00,0x00,0x20,0x11,0x00,0x00,0x00,0x4a,0x09,0x20,0x28,0x95,0x0a,
 0x00,0x00,0x00,0x00,0x00,0x00,0x00,0x00,0x00,0x00,0x00,0x00,0x00,0x00,0x52,
 0x10,0x00,0x00,0x00,0x00,0x00,0x00,0x00,0x90,0x04,0x00,0x00,0x40,0x55,0x22,
 0x00,0x49,0x49,0x11,0x00,0x00,0x00,0x00,0x00,0x00,0x00,0x00,0x00,0x00,0x00,
 0x00,0x00,0x00,0x15,0x04,0x00,0x00,0x00,0x00,0x00,0x00,0x00,0xa0,0x00,0x00,
 0x00,0x40,0xa9,0x08,0x90,0x50,0x55,0x06,0x00,0x00,0x00,0x00,0x00,0x00,0x00,
 0x00,0x00,0x00,0x00,0x00,0x00,0x00,0x24,0x11,0x00,0x00,0x00,0x00,0x00,0x00,
 0x00,0xa8,0x08,0x00,0x00,0xa0,0x24,0x02,0x24,0x44,0x52,0x15,0x00,0x00,0x00,
 0x00,0x00,0x00,0x00,0x00,0x00,0x00,0x00,0x00,0x00,0x00,0x15,0x04,0x00,0x00,
 0x00,0x00,0x00,0x00,0x00,0x48,0x02,0x00,0x00,0x94,0x4a,0x08,0x80,0x48,0x25,
 0x09,0x00,0x00,0x00,0x00,0x00,0x00,0x00,0x00,0x00,0x00,0x00,0x00,0x00,0x00,
 0x0a,0x01,0x00,0x00,0x00,0x00,0x00,0x00,0x00,0x54,0x00,0x00,0x00,0x52,0x15,
 0x02,0x20,0x92,0xaa,0x14,0x00,0x00,0x00,0x00,0x00,0x00,0x00,0x00,0x00,0x00,
 0x00,0x00,0x00,0x80,0x12,0x08,0x00,0x00,0x00,0x00,0x00,0x00,0x00,0x12,0x01,
 0x00,0x00,0x94,0xa4,0x00,0x00,0x80,0x54,0x05,0x00,0x00,0x00,0x00,0x00,0x00,
 0x00,0x00,0x00,0x00,0x00,0x00,0x00,0x00,0x95,0x04,0x00,0x00,0x00,0x00,0x00,
 0x00,0x00,0x54,0x00,0x00,0x40,0x55,0x09,0x04,0x00,0xaa,0x92,0x12,0x00,0x00,
 0x00,0x00,0x00,0x00,0x00,0x00,0x00,0x00,0x00,0x00,0x00,0x80,0x04,0x01,0x00,
 0x00,0x00,0x00,0x00,0x00,0x00,0x25,0x01,0x00,0xa0,0x92,0x20,0x01,0x00,0x00,
 0x25,0x15,0x00,0x00,0x00,0x00,0x00,0x00,0x00,0x00,0x00,0x00,0x00,0x00,0x00,
 0x40,0x05,0x00,0x00,0x00,0x00,0x00,0x00,0x00,0x00,0x55,0x00,0x00,0x90,0x54,
 0x4a,0x00,0x00,0x24,0xaa,0x0a,0x00,0x00,0x00,0x00,0x00,0x00,0x00,0x00,0x00,
 0x00,0x00,0x00,0x00,0x40,0x42,0x05,0x00,0x00,0x00,0x00,0x00,0x00,0x80,0x24,
 0x00,0x00,0x2a,0x25,0x01,0x00,0x00,0x80,0x54,0x12,0x00,0x00,0x00,0x00,0x00,
 0x00,0x00,0x00,0x00,0x00,0x00,0x00,0x00,0x80,0x02,0x00,0x00,0x00,0x00,0x00,
 0x00,0x00,0x00,0x55,0x00,0x80,0x54,0x55,0x50,0x00,0x00,0x50,0x4a,0x09,0x00,
 0x00,0x00,0x00,0x00,0x00,0x00,0x00,0x00,0x00,0x00,0x00,0x00,0x40,0x21,0x01,
 0x00,0x00,0x00,0x00,0x00,0x00,0x80,0x92,0x00,0x80,0x52,0x0a,0x05,0x00,0x00,
 0x00,0xa9,0x0a,0x00,0x00,0x00,0x00,0x00,0x00,0x00,0x00,0x00,0x00,0x00,0x00,
 0x00,0xa0,0x82,0x00,0x00,0x00,0x00,0x00,0x00,0x00,0x80,0x54,0x15,0x54,0x2a,
 0x45,0x00,0x00,0x00,0x40,0x94,0x14,0x00,0x00,0x00,0x00,0x00,0x00,0x00,0x00,
 0x00,0x00,0x00,0x00,0x00,0x90,0x20,0x00,0x00,0x00,0x00,0x00,0x00,0x00,0xa0,
 0xaa,0x4a,0xa9,0x52,0x09,0x05,0x00,0x00,0x00,0xa5,0x02,0x00,0x00,0x00,0x00,
 0x00,0x00,0x00,0x00,0x00,0x00,0x00,0x00,0x00,0x20,0x81,0x00,0x00,0x00,0x00,
 0x00,0x00,0x00,0x40,0x49,0x52,0x25,0x95,0x52,0x00,0x00,0x00,0x40,0x54,0x0a,
 0x00,0x00,0x00,0x00,0x00,0x00,0x00,0x00,0x00,0x00,0x00,0x00,0x00,0xa0,0x20,
 0x00,0x00,0x00,0x00,0x00,0x00,0x00,0x20,0x95,0x2a,0x55,0x2a,0x00,0x01,0x00,
 0x00,0x00,0xa9,0x02,0x00,0x00,0x00,0x00,0x00,0x00,0x00,0x00,0x00,0x00,0x00,
 0x00,0x00,0x50,0x80,0x00,0x00,0x00,0x00,0x00,0x00,0x00,0xa0,0x52,0x49,0x49,
 0xa5,0x4a,0x00,0x00,0x00,0x00,0x48,0x0a,0x00,0x00,0x00,0x00,0x00,0x00,0x00,
 0x00,0x00,0x00,0x00,0x00,0x00,0x90,0x28,0x00,0x00,0x00,0x00,0x00,0x00,0x00,
 0x28,0xa5,0xaa,0xaa,0x14,0x20,0x00,0x00,0x00,0x80,0xaa,0x04,0x00,0x00,0x00,
 0x00,0x00,0x00,0x00,0x00,0x00,0x00,0x00,0x00,0x00,0x50,0x00,0x00,0x00,0x00,
 0x00,0x00,0x00,0x00,0x90,0x2a,0x49,0x52,0x8a,0x0a,0x00,0x00,0x00,0x00,0x94,
 0x0a,0x00,0x00,0x00,0x00,0x00,0x00,0x00,0x00,0x00,0x00,0x00,0x00,0x00,0x48,
 0x48,0x00,0x00,0x00,0x00,0x00,0x00,0x00,0x50,0xaa,0xaa,0xa4,0x22,0x00,0x00,
 0x00,0x00,0x00,0xa8,0x02,0x00,0x00,0x00,0x00,0x00,0x00,0x00,0x00,0x00,0x00,
 0x00,0x00,0x00,0x50,0x20,0x00,0x00,0x00,0x00,0x00,0x00,0x00,0xa8,0x92,0x94,
 0x2a,0x09,0x02,0x00,0x00,0x00,0x00,0x25,0x09,0x00,0x00,0x00,0x00,0x00,0x00,
 0x00,0x00,0x00,0x00,0x00,0x00,0x00,0x28,0x08,0x00,0x00,0x00,0x00,0x00,0x00,
 0x00,0xa4,0x54,0xa9,0xaa,0xa0,0x00,0x00,0x00,0x00,0x00,0x54,0x05,0x00,0x00,
 0x00,0x00,0x00,0x00,0x00,0x20,0x00,0x00,0x00,0x00,0x00,0x24,0x20,0x00,0x00,
 0x00,0x00,0x00,0x00,0x00,0x54,0x2a,0x25,0x49,0x0a,0x00,0x00,0x00,0x00,0x00,
 0xa8,0x04,0x00,0x00,0x00,0x00,0x00,0x00,0x00,0x04,0x00,0x00,0x00,0x00,0x00,
 0x50,0x08,0x00,0x00,0x00,0x00,0x00,0x00,0x00,0x48,0xa5,0xaa,0x2a,0x50,0x00,
 0x00,0x00,0x00,0x00,0x24,0x05,0x00,0x00,0x00,0x00,0x00,0x00,0x00,0x10,0x00,
 0x00,0x00,0x00,0x00,0x14,0x20,0x00,0x00,0x00,0x00,0x00,0x00,0x00,0xa4,0x52,
 0x52,0x89,0x04,0x00,0x00,0x00,0x00,0x00,0x94,0x02,0x00,0x00,0x00,0x00,0x00,
 0x00,0x00,0x00,0x00,0x00,0x00,0x00,0x00,0x14,0x0a,0x00,0x00,0x00,0x00,0x00,
 0x00,0x00,0x28,0x95,0x4a,0x22,0x12,0x00,0x00,0x00,0x00,0x00,0xa8,0x02,0x00,
 0x00,0x00,0x00,0x00,0x00,0x00,0x04,0x04,0x00,0x00,0x00,0x00,0x12,0x00,0x00,
 0x00,0x00,0x00,0x00,0x00,0x00,0x90,0x52,0x29,0x89,0x00,0x00,0x00,0x00,0x00,
 0x00,0x54,0x09,0x00,0x00,0x00,0x00,0x00,0x00,0x00,0x08,0x02,0x00,0x00,0x00,
 0x00,0x29,0x12,0x00,0x00,0x00,0x00,0x00,0x00,0x00,0x50,0xaa,0xaa,0x20,0x02,
 0x00,0x00,0x00,0x00,0x00,0x24,0x01,0x00,0x00,0x00,0x00,0x00,0x00,0x00,0x01,
 0x01,0x00,0x00,0x00,0x00,0x0a,0x08,0x00,0x00,0x00,0x00,0x00,0x00,0x00,0xa0,
 0x4a,0x12,0x0a,0x00,0x00,0x00,0x00,0x00,0x00,0x90,0x02,0x00,0x00,0x00,0x00,
 0x00,0x00,0x00,0x88,0x04,0x00,0x00,0x00,0x00,0x14,0x02,0x00,0x00,0x00,0x00,
 0x00,0x00,0x00,0x40,0xa9,0x42,0xa0,0x00,0x00,0x00,0x00,0x00,0x00,0x56,0x00,
 0x00,0x00,0x00,0x00,0x00,0x00,0x00,0x01,0x05,0x00,0x00,0x00,0x80,0x12,0x11,
 0x00,0x00,0x00,0x00,0x00,0x00,0x00,0x90,0x94,0x10,0x0a,0x00,0x00,0x00,0x00,
 0x00,0x00,0xa8,0x02,0x00,0x00,0x00,0x00,0x00,0x00,0x40,0x88,0x02,0x00,0x00,
 0x00,0x80,0x0a,0x04,0x00,0x00,0x00,0x00,0x00,0x00,0x00,0x00,0x42,0x42,0x20,
 0x00,0x00,0x00,0x00,0x00,0x00,0x24,0x00,0x00,0x00,0x00,0x00,0x00,0x00,0x00,
 0x45,0x01,0x00,0x00,0x00,0x00,0x8a,0x00,0x00,0x00,0x00,0x00,0x00,0x00,0x00,
 0x50,0x11,0x10,0x05,0x00,0x00,0x00,0x00,0x00,0x00,0x50,0x01,0x00,0x00,0x00,
 0x00,0x00,0x00,0x00,0x20,0x01,0x00,0x00,0x00,0x40,0x05,0x04,0x00,0x00,0x00,
 0x00,0x00,0x00,0x00,0x00,0x44,0x45,0x00,0x00,0x00,0x00,0x00,0x00,0x00,0x4a,
 0x00,0x00,0x00,0x00,0x00,0x00,0x00,0x40,0x41,0x02,0x00,0x00,0x00,0x80,0xa4,
 0x00,0x00,0x00,0x00,0x00,0x00,0x00,0x00,0x20,0x11,0x90,0x00,0x00,0x00,0x00,
 0x00,0x00,0x00,0x28,0x02,0x00,0x00,0x00,0x00,0x00,0x00,0x10,0x52,0x01,0x00,
 0x00,0x00,0x40,0x0a,0x0a,0x00,0x00,0x00,0x00,0x00,0x00,0x00,0x80,0x44,0x01,
 0x00,0x00,0x00,0x00,0x00,0x00,0x00,0x94,0x00,0x00,0x00,0x00,0x00,0x00,0x00,
 0x40,0x48,0x01,0x00,0x00,0x00,0x80,0x42,0x00,0x00,0x00,0x00,0x00,0x00,0x00,
 0x00,0x00,0x10,0x08,0x00,0x00,0x00,0x00,0x00,0x00,0x00,0x24,0x00,0x00,0x00,
 0x00,0x00,0x00,0x00,0x80,0x50,0x02,0x00,0x00,0x00,0x40,0x15,0x02,0x00,0x00,
 0x00,0x00,0x00,0x00,0x00,0x80,0x42,0x01,0x00,0x00,0x00,0x00,0x00,0x00,0x00,
 0x88,0x00,0x00,0x00,0x00,0x00,0x00,0x00,0x08,0x94,0x00,0x00,0x00,0x00,0x20,
 0x41,0x00,0x00,0x00,0x00,0x00,0x00,0x00,0x00,0x00,0x08,0x00,0x00,0x00,0x00,
 0x00,0x00,0x00,0x00,0x22,0x00,0x00,0x00,0x00,0x00,0x00,0x00,0xa0,0x50,0x01,
 0x00,0x00,0x00,0x40,0x85,0x02,0x00,0x00,0x00,0x00,0x00,0x00,0x00,0x00,0x00,
 0x00,0x00,0x00,0x00,0x00,0x00,0x00,0x00,0x08,0x00,0x00,0x00,0x00,0x00,0x00,
 0x00,0x04,0xaa,0x00,0x00,0x00,0x00,0xa0,0x24,0x00,0x00,0x00,0x00,0x00,0x00,
 0x00,0x00,0x00,0x00,0x00,0x00,0x00,0x00,0x00,0x00,0x00,0x00,0x42,0x00,0x00,
 0x00,0x00,0x00,0x00,0x00,0x20,0x14,0x00,0x00,0x00,0x00,0x50,0x02,0x01,0x00,
 0x00,0x00,0x00,0x00,0x00,0x00,0x00,0x00,0x00,0x00,0x00,0x00,0x00,0x00,0x00,
 0x00,0x08,0x00,0x00,0x00,0x00,0x00,0x00,0x00,0x0a,0x29,0x00,0x00,0x00,0x00,
 0xa0,0x92,0x00,0x00,0x00,0x00,0x00,0x00,0x00,0x00,0x00,0x00,0x00,0x00,0x00,
 0x00,0x00,0x00,0x00,0x00,0x10,0x00,0x00,0x00,0x00,0x00,0x00,0x00,0x00,0x15,
 0x00,0x00,0x00,0x00,0x20,0x21,0x00,0x00,0x00,0x00,0x00,0x00,0x00,0x00,0x00,
 0x00,0x00,0x00,0x00,0x00,0x00,0x00,0x00,0x00,0x04,0x00,0x00,0x00,0x00,0x00,
 0x00,0x00,0x05,0x12,0x00,0x00,0x00,0x00,0x50,0x81,0x00,0x00,0x00,0x00,0x00,
 0x00,0x00,0x00,0x00,0x00,0x00,0x00,0x00,0x00,0x00,0x00,0x00,0x00,0x10,0x00,
 0x00,0x00,0x00,0x00,0x00,0x00,0x80,0x0a,0x00,0x00,0x00,0x00,0x90,0x20,0x00,
 0x00,0x00,0x00,0x00,0x00,0x00,0x00,0x00,0x00,0x00,0x00,0x00,0x00,0x00,0x00,
 0x00,0x00,0x04,0x00,0x00,0x00,0x00,0x00,0x00,0x80,0x4a,0x05,0x00,0x00,0x00,
 0x00,0x28,0x89,0x00,0x00,0x00,0x00,0x00,0x00,0x00,0x00,0x00,0x00,0x00,0x00,
 0x00,0x00,0x00,0x00,0x00,0x00,0x00,0x00,0x00,0x00,0x00,0x00,0x00,0x00,0x80,
 0x04,0x00,0x00,0x00,0x00,0xa0,0x20,0x00,0x00,0x00,0x00,0x00,0x00,0x00,0x00,
 0x00,0x00,0x00,0x00,0x00,0x00,0x00,0x00,0x00,0x00,0x00,0x00,0x00,0x00,0x00,
 0x00,0x00,0x40,0x41,0x01,0x00,0x00,0x00,0x00,0x54,0x88,0x00,0x00,0x00,0x00,
 0x00,0x00,0x00,0x00,0x00,0x00,0x00,0x00,0x00,0x00,0x00,0x00,0x00,0x00,0x00,
 0x00,0x00,0x00,0x00,0x00,0x00,0x00,0x40,0x02,0x00,0x00,0x00,0x00,0xa8,0x00,
 0x00,0x00,0x00,0x00,0x00,0x00,0x00,0x00,0x00,0x00,0x00,0x00,0x00,0x00,0x00,
 0x00,0x00,0x00,0x00,0x00,0x00,0x00,0x00,0x00,0x00,0xa0,0x52,0x01,0x00,0x00,
 0x00,0x00,0x48,0x54,0x00,0x00,0x00,0x00,0x00,0x00,0x00,0x00,0x00,0x00,0x00,
 0x00,0x00,0x00,0x00,0x00,0x00,0x00,0x00,0x00,0x00,0x00,0x00,0x00,0x00,0x08,
 0xa0,0x00,0x00,0x00,0x00,0x00,0xa4,0x00,0x00,0x00,0x00,0x00,0x00,0x00,0x00,
 0x00,0x00,0x00,0x00,0x00,0x00,0x00,0x00,0x00,0x00,0x00,0x00,0x00,0x00,0x00,
 0x00,0x00,0x00,0x20,0x90,0x00,0x00,0x00,0x00,0x00,0x94,0x14,0x00,0x00,0x00,
 0x00,0x00,0x00,0x00,0x00,0x00,0x00,0x00,0x00,0x00,0x00,0x00,0x00,0x00,0x00,
 0x00,0x00,0x00,0x00,0x00,0x00,0x00,0x80,0x50,0x00,0x00,0x00,0x00,0x00,0x52,
 0x00,0x00,0x00,0x00,0x00,0x00,0x00,0x00,0x00,0x00,0x00,0x00,0x00,0x00,0x00,
 0x00,0x00,0x00,0x00,0x00,0x00,0x00,0x00,0x00,0x00,0x00,0x28,0x54,0x00,0x00,
 0x00,0x00,0x00,0x54,0x2a,0x00,0x00,0x00,0x00,0x00,0x00,0x00,0x00,0x00,0x00,
 0x00,0x00,0x00,0x00,0x00,0x00,0x00,0x00,0x00,0x00,0x00,0x00,0x00,0x00,0x00,
 0x02,0x24,0x00,0x00,0x00,0x00,0x00,0x2a,0x00,0x00,0x00,0x00,0x00,0x00,0x00,
 0x00,0x00,0x00,0x00,0x00,0x00,0x00,0x00,0x00,0x00,0x00,0x00,0x00,0x00,0x00,
 0x00,0x00,0x00,0x00,0x08,0x2a,0x00,0x00,0x00,0x00,0x00,0x48,0x12,0x00,0x00,
 0x00,0x00,0x00,0x00,0x00,0x00,0x00,0x00,0x00,0x00,0x00,0x00,0x00,0x00,0x00,
 0x00,0x00,0x40,0x00,0x00,0x00,0x00,0x00,0x20,0x11,0x00,0x00,0x00,0x00,0x00,
 0x2a,0x04,0x00,0x00,0x00,0x00,0x00,0x00,0x00,0x00,0x00,0x00,0x00,0x00,0x00,
 0x00,0x00,0x00,0x00,0x00,0x00,0x00,0x00,0x00,0x00,0x00,0x00,0x0a,0x16,0x00,
 0x00,0x00,0x00,0x00,0xa5,0x10,0x00,0x00,0x00,0x00,0x00,0x00,0x00,0x00,0x00,
 0x00,0x00,0x00,0x00,0x00,0x00,0x00,0x00,0x00,0x00,0x20,0x00,0x00,0x00,0x00,
 0x80,0x00,0x09,0x00,0x00,0x00,0x00,0x00,0x12,0x04,0x00,0x00,0x00,0x00,0x00,
 0x00,0x00,0x00,0x00,0x00,0x00,0x00,0x00,0x00,0x00,0x00,0x00,0x00,0x00,0x28,
 0x00,0x00,0x00,0x00,0x00,0x82,0x12,0x00,0x00,0x00,0x00,0x00,0x2a,0x11,0x00,
 0x00,0x00,0x00,0x00,0x00,0x00,0x00,0x00,0x00,0x00,0x00,0x00,0x00,0x00,0x00,
 0x00,0x00,0x00,0x08,0x00,0x00,0x00,0x00,0x40,0x44,0x0a,0x00,0x00,0x00,0x00,
 0x00,0x15,0x04,0x00,0x00,0x00,0x00,0x00,0x00,0x00,0x00,0x00,0x00,0x00,0x00,
 0x00,0x00,0x00,0x00,0x00,0x00,0x00,0x10,0x00,0x00,0x00,0x00,0x00,0x81,0x04,
 0x00,0x00,0x00,0x00,0x80,0xa4,0x10,0x00,0x00,0x00,0x00,0x00,0x00,0x00,0x00,
 0x00,0x00,0x00,0x00,0x00,0x00,0x00,0x00,0x00,0x00,0x00,0x14,0x00,0x00,0x00,
 0x00,0x40,0xa0,0x02,0x00,0x00,0x00,0x00,0x00,0x2a,0x04,0x00,0x00,0x00,0x00,
 0x00,0x00,0x00,0x00,0x00,0x00,0x00,0x00,0x00,0x00,0x00,0x00,0x00,0x00,0x00,
 0x0a,0x00,0x00,0x00,0x00,0x00,0x41,0x05,0x00,0x00,0x00,0x00,0x80,0x12,0x01,
 0x00,0x00,0x00,0x00,0x00,0x00,0x00,0x00,0x00,0x00,0x00,0x00,0x00,0x00,0x00,
 0x00,0x00,0x00,0x00,0x12,0x00,0x00,0x00,0x00,0x50,0xa0,0x00,0x00,0x00,0x00,
 0x00,0x80,0x4a,0x08,0x00,0x00,0x00,0x00,0x00,0x00,0x00,0x00,0x00,0x00,0x00,
 0x00,0x00,0x00,0x00,0x00,0x00,0x00,0x80,0x14,0x00,0x00,0x50,0x00,0x80,0x4a,
 0x01,0x00,0x00,0x00,0x00,0x00,0x12,0x01,0x00,0x00,0x00,0x00,0x00,0x00,0x00,
 0x00,0x00,0x00,0x00,0x00,0x00,0x00,0x00,0x00,0x00,0x00,0x80,0x0a,0x00,0x00,
 0x00,0x00,0x28,0xa8,0x00,0x00,0x00,0x00,0x00,0x80,0x0a,0x04,0x00,0x00,0x00,
 0x00,0x00,0x00,0x00,0x00,0x00,0x00,0x00,0x00,0x00,0x00,0x00,0x00,0x00,0x00,
 0x00,0x15,0x00,0x00,0x28,0x00,0x82,0x48,0x01,0x00,0x00,0x00,0x00,0x40,0x95,
 0x00,0x00,0x00,0x00,0x00,0x00,0x00,0x00,0x00,0x00,0x00,0x00,0x00,0x00,0x00,
 0x00,0x00,0x00,0x00,0x40,0x09,0x00,0x00,0x82,0x04,0x24,0x2a,0x00,0x00,0x00,
 0x00,0x00,0x40,0x22,0x0a,0x00,0x00,0x00,0x00,0x00,0x00,0x00,0x00,0x00,0x00,
 0x00,0x00,0x00,0x00,0x00,0x00,0x00,0x00,0x50,0x22,0x00,0x00,0x48,0xaa,0x10,
 0x52,0x00,0x00,0x00,0x00,0x00,0x80,0x84,0x00,0x00,0x00,0x00,0x00,0x00,0x00,
 0x00,0x00,0x00,0x00,0x00,0x00,0x00,0x00,0x00,0x00,0x00,0x00,0x40,0x0d,0x00,
 0x00,0x10,0x12,0x44,0x55,0x00,0x00,0x00,0x00,0x00,0x80,0x0a,0x02,0x00,0x00,
 0x00,0x00,0x00,0x00,0x00,0x00,0x00,0x00,0x00,0x00,0x00,0x00,0x00,0x00,0x00,
 0x00,0xa8,0x02,0x00,0x00,0x45,0x55,0x01,0x49,0x00,0x00,0x00,0x00,0x00,0x80,
 0x4a,0x00,0x00,0x00,0x00,0x00,0x00,0x00,0x00,0x00,0x00,0x00,0x00,0x00,0x00,
 0x00,0x00,0x00,0x00,0x00,0x28,0x09,0x00,0x80,0x00,0x29,0x50,0x15,0x00,0x00,
 0x00,0x00,0x00,0x80,0x84,0x04,0x00,0x00,0x00,0x00,0x00,0x00,0x00,0x00,0x00,
 0x00,0x00,0x00,0x00,0x00,0x00,0x00,0x00,0x00,0x48,0x05,0x00,0x00,0xaa,0x52,
 0x55,0x0a,0x00,0x00,0x00,0x00,0x00,0xa0,0x02,0x02,0x00,0x00,0x00,0x00,0x00,
 0x00,0x00,0x00,0x00,0x00,0x00,0x00,0x00,0x00,0x00,0x00,0x00,0x00,0x54,0x09,
 0x00,0x80,0x40,0x4a,0x92,0x12,0x00,0x00,0x00,0x00,0x00,0x80,0xa4,0x00,0x00,
 0x00,0x00,0x00,0x00,0x00,0x00,0x00,0x00,0x00,0x00,0x00,0x00,0x00,0x00,0x00,
 0x00,0x00,0x25,0x01,0x00,0x40,0xaa,0xaa,0xaa,0x04,0x00,0x00,0x00,0x00,0x00,
 0xa0,0x02,0x02,0x00,0x00,0x00,0x00,0x00,0x00,0x00,0x00,0x00,0x00,0x00,0x00,
 0x00,0x00,0x00,0x00,0x00,0x00,0xaa,0x04,0x00,0x10,0x40,0x92,0x94,0x02,0x00,
 0x00,0x00,0x00,0x00,0x20,0xa5,0x00,0x00,0x00,0x00,0x00,0x00,0x00,0x00,0x00,
 0x00,0x00,0x00,0x00,0x00,0x00,0x00,0x00,0x00,0x80,0x54,0x00,0x00,0x40,0x55,
 0x55,0xa9,0x02,0x00,0x00,0x00,0x00,0x00,0x40,0x02,0x00,0x00,0x00,0x00,0x00,
 0x00,0x00,0x00,0x00,0x00,0x00,0x00,0x00,0x00,0x00,0x00,0x00,0x00,0x80,0x4a,
 0x0a,0x00,0x10,0xa8,0x92,0x4a,0x01,0x00,0x00,0x00,0x00,0x00,0xa0,0x92,0x02,
 0x00,0x00,0x00,0x00,0x00,0x00,0x00,0x00,0x00,0x00,0x00,0x00,0x00,0x00,0x00,
 0x00,0x00,0x20,0x29,0x01,0x00,0x40,0x22,0x55,0x92,0x00,0x00,0x00,0x00,0x00,
 0x00,0x90,0x44,0x00,0x00,0x00,0x00,0x00,0x00,0x00,0x00,0x00,0x00,0x00,0x00,
 0x00,0x00,0x00,0x00,0x00,0x00,0xa0,0x4a,0x00,0x00,0x10,0x54,0x49,0x55,0x00,
 0x00,0x00,0x00,0x00,0x00,0xa0,0x02,0x00,0x00,0x00,0x00,0x00,0x00,0x00,0x00,
 0x00,0x00,0x00,0x00,0x00,0x00,0x00,0x00,0x00,0x00,0x40,0x15,0x01,0x00,0xa2,
 0x4a,0xaa,0xaa,0x00,0x00,0x00,0x00,0x00,0x00,0x20,0x51,0x01,0x00,0x00,0x00,
 0x00,0x00,0x00,0x00,0x00,0x00,0x00,0x00,0x00,0x00,0x00,0x00,0x00,0x00,0xa8,
 0x44,0x00,0x00,0x08,0x50,0x95,0x24,0x00,0x00,0x00,0x00,0x00,0x00,0xa8,0x02,
 0x00,0x00,0x00,0x00,0x00,0x00,0x00,0x00,0x00,0x00,0x00,0x00,0x00,0x00,0x00,
 0x00,0x00,0x00,0x90,0x0a,0x01,0x00,0xa2,0x96,0x52,0x29,0x00,0x00,0x00,0x00,
 0x00,0x00,0x90,0xa8,0x02,0x00,0x00,0x00,0x00,0x00,0x00,0x00,0x00,0x00,0x00,
 0x00,0x00,0x00,0x00,0x00,0x00,0x00,0xa4,0x44,0x00,0x80,0x88,0x52,0x29,0x15,
 0x00,0x00,0x00,0x00,0x00,0x00,0xa0,0x02,0x00,0x00,0x00,0x00,0x00,0x00,0x00,
 0x00,0x00,0x00,0x00,0x00,0x00,0x00,0x00,0x00,0x00,0x00,0x28,0x11,0x00,0x00,
 0x20,0x25,0x55,0x25,0x00,0x00,0x00,0x00,0x00,0x00,0x28,0x91,0x00,0x00,0x00,
 0x00,0x00,0x00,0x00,0x00,0x00,0x00,0x00,0x00,0x00,0x00,0x00,0x00,0x00,0x00,
 0x55,0x05,0x00,0x00,0x8a,0x54,0x25,0x09,0x00,0x00,0x00,0x00,0x00,0x00,0xa8,
 0x22,0x00,0x00,0x00,0x00,0x00,0x00,0x00,0x00,0x00,0x00,0x00,0x00,0x00,0x00,
 0x00,0x00,0x00,0x00,0x4a,0x11,0x00,0x80,0xa0,0xaa,0x54,0x15,0x00,0x00,0x00,
 0x00,0x00,0x00,0xa0,0x80,0x00,0x00,0x00,0x00,0x00,0x00,0x00,0x00,0x00,0x00,
 0x00,0x00,0x00,0x00,0x00,0x00,0x00,0x80,0x52,0x04,0x00,0x20,0x4a,0x49,0x92,
 0x04,0x00,0x00,0x00,0x00,0x00,0x00,0x90,0x28,0x00,0x00,0x00,0x00,0x00,0x00,
 0x00,0x00,0x00,0x00,0x00,0x00,0x00,0x00,0x00,0x00,0x00,0x00,0x95,0x00,0x00,
 0x80,0x50,0x8a,0xaa,0x0a,0x00,0x00,0x00,0x00,0x00,0x00,0xa8,0x80,0x00,0x00,
 0x00,0x00,0x00,0x00,0x00,0x00,0x00,0x00,0x00,0x00,0x00,0x00,0x00,0x00,0x00,
 0x80,0x52,0x0a,0x00,0x00,0x50,0x05,0x55,0x02,0x00,0x00,0x00,0x00,0x00,0x00,
 0x50,0x28,0x00,0x00,0x00,0x00,0x00,0x00,0x00,0x00,0x00,0x00,0x00,0x00,0x00,
 0x00,0x00,0x00,0x00,0xa0,0x14,0x00,0x00,0xa0,0x4a,0x02,0x92,0x02,0x00,0x00,
 0x00,0x00,0x00,0x00,0x10,0x00,0x00,0x00,0x00,0x00,0x00,0x00,0x00,0x00,0x00,
 0x00,0x00,0x00,0x00,0x00,0x00,0x00,0x00,0x40,0xaa,0x02,0x00,0x08,0x50,0x01,
 0x54,0x00,0x00,0x00,0x00,0x00,0x00,0x00,0x48,0x50,0x00,0x00,0x00,0x00,0x00,
 0x00,0x00,0x00,0x00,0x00,0x00,0x00,0x00,0x00,0x00,0x00,0x00,0x50,0x09,0x00,
 0x00,0xa0,0xa4,0x02,0x2a,0x00,0x00,0x00,0x00,0x00,0x00,0x00,0x10,0x00,0x00,
 0x00,0x00,0x00,0x00,0x00,0x00,0x00,0x00,0x00,0x00,0x00,0x00,0x00,0x00,0x00,
 0x00,0x28,0x95,0x00,0x00,0x00,0x50,0x00,0x00,0x00,0x00,0x00,0x00,0x00,0x00,
 0x00,0x28,0x10,0x00,0x00,0x00,0x00,0x00,0x00,0x00,0x00,0x00,0x00,0x00,0x00,
 0x00,0x00,0x00,0x00,0x00,0x50,0x41,0x00,0x00,0x28,0x4d,0x01,0x00,0x00,0x00,
 0x00,0x00,0x00,0x00,0x00,0x10,0x00,0x00,0x00,0x00,0x00,0x00,0x00,0x00,0x00,
 0x00,0x00,0x00,0x00,0x00,0x00,0x00,0x00,0x00,0x2a,0x15,0x00,0x00,0x04,0x52,
 0x00,0x00,0x00,0x00,0x00,0x00,0x00,0x00,0x00,0x00,0x10,0x00,0x00,0x00,0x00,
 0x00,0x00,0x00,0x00,0x00,0x00,0x00,0x00,0x00,0x00,0x00,0x00,0x00,0xa4,0x42,
 0x00,0x00,0x50,0x15,0x00,0x00,0x00,0x00,0x00,0x00,0x00,0x00,0x00,0x00,0x00,
 0x00,0x00,0x00,0x00,0x00,0x00,0x00,0x00,0x00,0x00,0x00,0x00,0x00,0x00,0x00,
 0x00,0x00,0x52,0x11,0x00,0x00,0x04,0x52,0x00,0x00,0x00,0x00,0x00,0x00,0x00,
 0x00,0x00,0x00,0x00,0x00,0x00,0x00,0x00,0x00,0x00,0x00,0x00,0x00,0x00,0x00,
 0x00,0x00,0x00,0x00,0x00,0x00,0x95,0x04,0x00,0x00,0x10,0x25,0x00,0x00,0x00,
 0x00,0x00,0x00,0x00,0x00,0x00,0x00,0x00,0x00,0x00,0x00,0x00,0x00,0x00,0x00,
 0x00,0x00,0x00,0x00,0x00,0x00,0x00,0x00,0x00,0x80,0xaa,0x00,0x00,0x00,0x8a,
 0x14,0x00,0x00,0x00,0x00,0x00,0x00,0x00,0x00,0x00,0x00,0x00,0x00,0x00,0x00,
 0x00,0x00,0x00,0x00,0x00,0x00,0x00,0x00,0x00,0x00,0x00,0x00,0x00,0x00,0x49,
 0x0a,0x00,0x00,0x20,0x29,0x00,0x00,0x00,0x00,0x00,0x00,0x00,0x00,0x00,0x00,
 0x00,0x00,0x00,0x00,0x00,0x00,0x00,0x00,0x00,0x00,0x00,0x00,0x00,0x00,0x00,
 0x00,0x00,0xc0,0x54,0x00,0x00,0x80,0x8a,0x0a,0x00,0x00,0x00,0x00,0x00,0x00,
 0x00,0x00,0x00,0x00,0x00,0x00,0x00,0x00,0x00,0x00,0x00,0x00,0x00,0x00,0x00,
 0x00,0x00,0x00,0x00,0x00,0x00,0x20,0x25,0x01,0x00,0x00,0x40,0x05,0x00,0x00,
 0x00,0x00,0x00,0x00,0x00,0x00,0x00,0x00,0x00,0x00,0x00,0x00,0x00,0x00,0x00,
 0x00,0x00,0x00,0x00,0x00,0x00,0x00,0x00,0x00,0x00,0x50,0x15,0x00,0x00,0x00,
 0x49,0x12,0x00,0x00,0x00,0x00,0x00,0x00,0x00,0x00,0x00,0x00,0x00,0x00,0x00,
 0x00,0x00,0x00,0x00,0x00,0x00,0x00,0x00,0x00,0x00,0x00,0x00,0x00,0x00,0xa0,
 0x94,0x00,0x00,0x80,0x40,0x05,0x00,0x00,0x00,0x00,0x00,0x00,0x00,0x00,0x00,
 0x00,0x00,0x00,0x00,0x00,0x00,0x00,0x00,0x00,0x00,0x00,0x00,0x00,0x00,0x00,
 0x00,0x00,0x00,0x28,0x45,0x00,0x00,0x20,0x44,0x0a,0x00,0x00,0x00,0x00,0x00,
 0x00,0x00,0x00,0x00,0x00,0x00,0x00,0x00,0x00,0x00,0x00,0x00,0x00,0x00,0x00,
 0x00,0x00,0x00,0x00,0x00,0x00,0x00,0x54,0x11,0x00,0x00,0x80,0x50,0x01,0x00,
 0x00,0x00,0x00,0x00,0x00,0x00,0x00,0x00,0x00,0x00,0x00,0x00,0x00,0x00,0x00,
 0x00,0x00,0x00,0x00,0x00,0x00,0x00,0x00,0x00,0x00,0x00,0x24,0x45,0x00,0x00,
 0x00,0x22,0x05,0x00,0x00,0x00,0x00,0x00,0x00,0x00,0x00,0x00,0x00,0x00,0x00,
 0x00,0x00,0x00,0x00,0x00,0x00,0x00,0x00,0x00,0x00,0x00,0x00,0x00,0x00,0x00,
 0xa9,0x02,0x00,0x00,0x40,0xa8,0x02,0x00,0x00,0x00,0x00,0x00,0x00,0x00,0x00,
 0x00,0x00,0x00,0x00,0x00,0x00,0x00,0x00,0x00,0x00,0x00,0x00,0x00,0x00,0x00,
 0x00,0x00,0x00,0x00,0x95,0x28,0x00,0x00,0x90,0x90,0x00,0x00,0x00,0x00,0x00,
 0x00,0x00,0x00,0x00,0x00,0x00,0x00,0x00,0x00,0x00,0x00,0x00,0x00,0x00,0x00,
 0x00,0x00,0x00,0x00,0x00,0x00,0x00,0x00,0xaa,0x00,0x00,0x00,0x00,0x50,0x01,
 0x00,0x00,0x00,0x00,0x00,0x00,0x00,0x00,0x00,0x00,0x00,0x00,0x00,0x00,0x00,
 0x00,0x00,0x00,0x00,0x00,0x00,0x00,0x00,0x00,0x00,0x00,0x40,0x49,0x0a,0x00,
 0x00,0x40,0xa8,0x00,0x00,0x00,0x00,0x00,0x00,0x00,0x00,0x00,0x00,0x00,0x00,
 0x00,0x00,0x00,0x00,0x00,0x00,0x00,0x00,0x00,0x00,0x00,0x00,0x00,0x00,0x00,
 0x80,0x2a,0x00,0x00,0x00,0x20,0x24,0x00,0x00,0x00,0x00,0x00,0x00,0x00,0x00,
 0x00,0x00,0x00,0x00,0x00,0x00,0x00,0x00,0x00,0x00,0x00,0x00,0x00,0x00,0x00,
 0x00,0x00,0x00,0x00,0x40,0x25,0x05,0x00,0x00,0x00,0x54,0x00,0x00,0x00,0x00,
 0x00,0x00,0x00,0x00,0x00,0x00,0x00,0x00,0x00,0x00,0x00,0x00,0x00,0x00,0x00,
 0x00,0x00,0x00,0x00,0x00,0x00,0x00,0x00,0x50,0x2a,0x00,0x00,0x00,0x48,0x08,
 0x00,0x00,0x00,0x00,0x00,0x00,0x00,0x00,0x00,0x00,0x00,0x00,0x00,0x00,0x00,
 0x00,0x00,0x00,0x00,0x00,0x00,0x00,0x00,0x00,0x00,0x00,0x00,0xa0,0x12,0x01,
 0x00,0x00,0x00,0x24,0x00,0x00,0x00,0x00,0x00,0x00,0x00,0x00,0x00,0x00,0x00,
 0x00,0x00,0x00,0x00,0x00,0x00,0x00,0x00,0x00,0x00,0x00,0x00,0x00,0x00,0x00,
 0x00,0x48,0x45,0x00,0x00,0x00,0x10,0x0a,0x00,0x00,0x00,0x00,0x00,0x00,0x00,
 0x00,0x00,0x00,0x00,0x00,0x00,0x00,0x00,0x00,0x00,0x00,0x00,0x00,0x00,0x00,
 0x00,0x00,0x00,0x00,0x00,0xa8,0x14,0x00,0x00,0x00,0x04,0x12,0x00,0x00,0x00,
 0x00,0x00,0x00,0x00,0x00,0x00,0x00,0x00,0x00,0x00,0x00,0x00,0x00,0x00,0x00,
 0x00,0x00,0x00,0x00,0x00,0x00,0x00,0x00,0x00,0x92,0x42,0x00,0x00,0x00,0x10,
 0x14,0x00,0x00,0x00,0x00,0x00,0x00,0x00,0x00,0x00,0x00,0x00,0x00,0x00,0x00,
 0x00,0x00,0x00,0x00,0x00,0x00,0x00,0x00,0x00,0x00,0x00,0x00,0x00,0x54,0x12,
 0x00,0x00,0x00,0x00,0x04,0x00,0x00,0x00,0x00,0x00,0x00,0x00,0x00,0x00,0x00,
 0x00,0x00,0x00,0x00,0x00,0x00,0x00,0x00,0x00,0x00,0x00,0x00,0x00,0x00,0x00,
 0x00,0x00,0x55,0x09,0x00,0x00,0x00,0x08,0x09,0x00,0x00,0x00,0x00,0x00,0x00,
 0x00,0x00,0x00,0x00,0x00,0x00,0x00,0x00,0x00,0x00,0x00,0x00,0x00,0x00,0x00,
 0x00,0x00,0x00,0x00,0x00,0x00,0x25,0x21,0x00,0x00,0x00,0x00,0x05,0x00,0x00,
 0x00,0x00,0x00,0x00,0x00,0x00,0x00,0x00,0x00,0x00,0x00,0x00,0x00,0x00,0x00,
 0x00,0x00,0x00,0x00,0x00,0x00,0x00,0x00,0x00,0x40,0xaa,0x04,0x00,0x00,0x00,
 0x00,0x02,0x00,0x00,0x00,0x00,0x00,0x00,0x00,0x00,0x00,0x00,0x00,0x00,0x00,
 0x00,0x00,0x00,0x00,0x00,0x00,0x00,0x00,0x00,0x00,0x00,0x00,0x00,0x40,0x49,
 0x00,0x00,0x00,0x00,0x00,0x04,0x00,0x00,0x00,0x00,0x00,0x00,0x00,0x00,0x00,
 0x00,0x00,0x00,0x00,0x00,0x00,0x00,0x00,0x00,0x00,0x00,0x00,0x00,0x00,0x00,
 0x00,0x00,0x80,0x2a,0x05,0x00,0x00,0x00,0x00,0x01,0x00,0x00,0x00,0x00,0x00,
 0x00,0x00,0x00,0x00,0x00,0x00,0x00,0x00,0x00,0x00,0x00,0x00,0x00,0x00,0x00,
 0x00,0x00,0x00,0x00,0x00,0x00,0x50,0x52,0x00,0x00,0x00,0x00,0x00,0x02,0x00,
 0x00,0x00,0x00,0x00,0x00,0x00,0x00,0x00,0x00,0x00,0x00,0x00,0x00,0x00,0x00,
 0x00,0x00,0x00,0x00,0x00,0x00,0x00,0x00,0x00,0x00,0xa0,0x0a,0x01,0x00,0x00,
 0x00,0x00,0x01,0x00,0x00,0x00,0x00,0x00,0x00,0x00,0x00,0x00,0x00,0x00,0x00,
 0x00,0x00,0x00,0x00,0x00,0x00,0x00,0x00,0x00,0x00,0x00,0x00,0x00,0x00,0x28,
 0x55,0x00,0x00,0x00,0x00,0x00,0x00,0x00,0x00,0x00,0x00,0x00,0x00,0x00,0x00,
 0x00,0x00,0x00,0x00,0x00,0x00,0x00,0x00,0x00,0x00,0x00,0x00,0x00,0x00,0x00,
 0x00,0x00,0x00,0x50,0x02,0x01,0x00,0x00,0x00,0x00,0x00,0x00,0x00,0x00,0x00,
 0x00,0x00,0x00,0x00,0x00,0x00,0x00,0x00,0x00,0x00,0x00,0x00,0x00,0x00,0x00,
 0x00,0x00,0x00,0x00,0x00,0x00,0x00,0x4a,0x55,0x00,0x00,0x00,0x00,0x00,0x00,
 0x00,0x00,0x00,0x00,0x00,0x00,0x00,0x00,0x00,0x00,0x00,0x00,0x00,0x00,0x00,
 0x00,0x00,0x00,0x00,0x00,0x00,0x00,0x00,0x00,0x00,0x00,0x54,0x02,0x00,0x00,
 0x00,0x00,0x00,0x00,0x00,0x00,0x00,0x00,0x00,0x00,0x00,0x00,0x00,0x00,0x00,
 0x00,0x00,0x00,0x00,0x00,0x00,0x00,0x00,0x00,0x00,0x00,0x00,0x00,0x00,0x00,
 0x25,0x25,0x00,0x00,0x00,0x00,0x00,0x00,0x00,0x00,0x00,0x00,0x00,0x00,0x00,
 0x00,0x00,0x00,0x00,0x00,0x00,0x00,0x00,0x00,0x00,0x00,0x00,0x00,0x00,0x00,
 0x00,0x00,0x00,0x00,0xaa,0x10,0x00,0x00,0x00,0x00,0x00,0x00,0x00,0x00,0x00,
 0x00,0x00,0x00,0x00,0x00,0x00,0x00,0x00,0x00,0x00,0x00,0x00,0x00,0x00,0x00,
 0x00,0x00,0x00,0x00,0x00,0x00,0x00,0x80,0x92,0x04,0x00,0x00,0x00,0x00,0x00,
 0x00,0x00,0x00,0x00,0x00,0x00,0x00,0x00,0x00,0x00,0x00,0x00,0x00,0x00,0x00,
 0x00,0x00,0x00,0x00,0x00,0x00,0x00,0x00,0x00,0x00,0x00,0x00,0x55,0x02,0x00,
 0x00,0x00,0x00,0x00,0x00,0x00,0x00,0x00,0x00,0x00,0x00,0x00,0x00,0x00,0x00,
 0x00,0x00,0x00,0x00,0x00,0x00,0x00,0x00,0x00,0x00,0x00,0x00,0x00,0x00,0x00,
 0x40,0xa9,0x00,0x00,0x00,0x00,0x00,0x00,0x00,0x00,0x00,0x00,0x00,0x00,0x00,
 0x00,0x00,0x00,0x00,0x00,0x00,0x00,0x00,0x00,0x00,0x00,0x00,0x00,0x00,0x00,
 0x00,0x00,0x00,0x00,0xa0,0x12,0x02,0x00,0x00,0x00,0x00,0x00,0x00,0x00,0x00,
 0x00,0x00,0x00,0x00,0x00,0x00,0x00,0x00,0x00,0x00,0x00,0x00,0x00,0x00,0x00,
 0x00,0x00,0x00,0x00,0x00,0x00,0x00,0x00,0x40,0xaa,0x00,0x00,0x00,0x00,0x00,
 0x00,0x00,0x00,0x00,0x00,0x00,0x00,0x00,0x00,0x00,0x00,0x00,0x00,0x00,0x00,
 0x00,0x00,0x00,0x00,0x00,0x00,0x00,0x00,0x00,0x00,0x00,0x00,0xa8,0x04,0x02,
 0x00,0x00,0x00,0x00,0x00,0x00,0x00,0x00,0x00,0x00,0x00,0x00,0x00,0x00,0x00,
 0x00,0x00,0x00,0x00,0x00,0x00,0x00,0x00,0x00,0x00,0x00,0x00,0x00,0x00,0x00,
 0x00,0xa4,0xaa,0x00,0x00,0x00,0x00,0x00,0x00,0x00,0x00,0x00,0x00,0x00,0x00,
 0x00,0x00,0x00,0x00,0x00,0x00,0x00,0x00,0x00,0x00,0x00,0x00,0x00,0x00,0x00,
 0x00,0x00,0x00,0x00,0x00,0x28,0x05,0x00,0x00,0x00,0x00,0x00,0x00,0x00,0x00,
 0x00,0x00,0x00,0x00,0x00,0x00,0x00,0x00,0x00,0x00,0x00,0x00,0x00,0x00,0x00,
 0x00,0x00,0x00,0x00,0x00,0x00,0x00,0x00,0x00,0x54,0x49,0x00,0x00,0x00,0x00,
 0x00,0x00,0x00,0x00,0x00,0x00,0x00,0x00,0x00,0x00,0x00,0x00,0x00,0x00,0x00,
 0x00,0x00,0x00,0x00,0x00,0x00,0x00,0x00,0x00,0x00,0x00,0x00,0x00,0x92,0x22,
 0x00,0x00,0x00,0x00,0x00,0x00,0x00,0x00,0x00,0x00,0x00,0x00,0x00,0x00,0x00,
 0x00,0x00,0x00,0x00,0x00,0x00,0x00,0x00,0x00,0x00,0x00,0x00,0x00,0x00,0x00,
 0x00,0x00,0x4a,0x09,0x00,0x00,0x00,0x00,0x00,0x00,0x00,0x00,0x00,0x00,0x00,
 0x00,0x00,0x00,0x00,0x00,0x00,0x00,0x00,0x00,0x00,0x00,0x00,0x00,0x00,0x00,
 0x00,0x00,0x00,0x00,0x00,0x80,0x2a,0x01,0x00,0x00,0x00,0x00,0x00,0x00,0x00,
 0x00,0x00,0x00,0x00,0x00,0x00,0x00,0x00,0x00,0x00,0x00,0x00,0x00,0x00,0x00,
 0x00,0x00,0x00,0x00,0x00,0x00,0x00,0x00,0x00,0x80,0xa4,0x10,0x00,0x00,0x00,
 0x00,0x00,0x00,0x00,0x00,0x00,0x00,0x00,0x00,0x00,0x00,0x00,0x00,0x00,0x00,
 0x00,0x00,0x00,0x00,0x00,0x00,0x00,0x00,0x00,0x00,0x00,0x00,0x00,0x00,0x55,
 0x0a,0x00,0x00,0x00,0x00,0x00,0x00,0x00,0x00,0x00,0x00,0x00,0x00,0x00,0x00,
 0x00,0x00,0x00,0x00,0x00,0x00,0x00,0x00,0x00,0x00,0x00,0x00,0x00,0x00,0x00,
 0x00,0x00,0x80,0x4a,0x00,0x00,0x00,0x00,0x00,0x00,0x00,0x00,0x00,0x00,0x00,
 0x00,0x00,0x00,0x00,0x00,0x00,0x00,0x00,0x00,0x00,0x00,0x00,0x00,0x00,0x00,
 0x00,0x00,0x00,0x00,0x00,0x00,0x40,0x12,0x01,0x00,0x00,0x00,0x00,0x00,0x00,
 0x00,0x00,0x00,0x00,0x00,0x00,0x00,0x00,0x00,0x00,0x00,0x00,0x00,0x00,0x00,
 0x00,0x00,0x00,0x00,0x00,0x00,0x00,0x00,0x00,0x00,0x80,0xaa,0x00,0x00,0x00,
 0x00,0x00,0x00,0x00,0x00,0x00,0x00,0x00,0x00,0x00,0x00,0x00,0x00,0x00,0x00,
 0x00,0x00,0x00,0x00,0x00,0x00,0x00,0x00,0x00,0x00,0x00,0x00,0x00,0x00,0xa0,
 0x14,0x02,0x00,0x00,0x00,0x00,0x00,0x00,0x00,0x00,0x00,0x00,0x00,0x00,0x00,
 0x00,0x00,0x00,0x00,0x00,0x00,0x00,0x00,0x00,0x00,0x00,0x00,0x00,0x00,0x00,
 0x00,0x00,0x00,0x50,0x45,0x00,0x00,0x00,0x00,0x00,0x00,0x00,0x00,0x00,0x00,
 0x00,0x00,0x00,0x00,0x00,0x00,0x00,0x00,0x00,0x00,0x00,0x00,0x00,0x00,0x00,
 0x00,0x00,0x00,0x00,0x00,0x00,0x00,0x40,0x02,0x00,0x00,0x00,0x00,0x00,0x00,
 0x00,0x00,0x00,0x00,0x00,0x00,0x00,0x00,0x00,0x00,0x00,0x00,0x00,0x00,0x00,
 0x00,0x00,0x00,0x00,0x00,0x00,0x00,0x00,0x00,0x00,0x00,0x50,0x55,0x00,0x00,
 0x00,0x00,0x00,0x00,0x00,0x00,0x00,0x00,0x00,0x00,0x00,0x00,0x00,0x00,0x00,
 0x00,0x00,0x00,0x00,0x00,0x00,0x00,0x00,0x00,0x00,0x00,0x00,0x00,0x00,0x00,
 0xa0,0x00,0x00,0x00,0x00,0x00,0x00,0x00,0x00,0x00,0x00,0x00,0x00,0x00,0x00,
 0x00,0x00,0x00,0x00,0x00,0x00,0x00,0x00,0x00,0x00,0x00,0x00,0x00,0x00,0x00,
 0x00,0x00,0x00,0x00,0x50,0x2a,0x00,0x00,0x00,0x00,0x00,0x00,0x00,0x00,0x00,
 0x00,0x00,0x00,0x00,0x00,0x00,0x00,0x00,0x00,0x00,0x00,0x00,0x00,0x00,0x00,
 0x00,0x00,0x00,0x00,0x00,0x00,0x00,0x00,0x48,0x01,0x00,0x00,0x00,0x00,0x00,
 0x00,0x00,0x00,0x00,0x00,0x00,0x00,0x00,0x00,0x00,0x00,0x00,0x00,0x00,0x00,
 0x00,0x00,0x00,0x00,0x00,0x00,0x00,0x00,0x00,0x00,0x00,0x00,0xa8,0x08,0x00,
 0x00,0x00,0x00,0x00,0x00,0x00,0x00,0x00,0x00,0x00,0x00,0x00,0x00,0x00,0x00,
 0x00,0x00,0x00,0x00,0x00,0x00,0x00,0x00,0x00,0x00,0x00,0x00,0x00,0x00,0x00,
 0x00,0x14,0x02,0x00,0x00,0x00,0x00,0x00,0x00,0x00,0x00,0x00,0x00,0x00,0x00,
 0x00,0x00,0x00,0x00,0x00,0x00,0x00,0x00,0x00,0x00,0x00,0x00,0x00,0x00,0x00,
 0x00,0x00,0x00,0x00,0x00,0xa2,0x00,0x00,0x00,0x00,0x00,0x00,0x00,0x00,0x00,
 0x00,0x00,0x00,0x00,0x00,0x00,0x00,0x00,0x00,0x00,0x00,0x00,0x00,0x00,0x00,
 0x00,0x00,0x00,0x00,0x00,0x00,0x00,0x00,0x00,0x14,0x05,0x00,0x00,0x00,0x00,
 0x00,0x00,0x00,0x00,0x00,0x00,0x00,0x00,0x00,0x00,0x00,0x00,0x00,0x00,0x00,
 0x00,0x00,0x00,0x00,0x00,0x00,0x00,0x00,0x00,0x00,0x00,0x00,0x00,0x54,0x00,
 0x00,0x00,0x00,0x00,0x00,0x00,0x00,0x00,0x00,0x00,0x00,0x00,0x00,0x00,0x00,
 0x00,0x00,0x00,0x00,0x00,0x00,0x00,0x00,0x00,0x00,0x00,0x00,0x00,0x00,0x00,
 0x00,0x00,0x02,0x01,0x00,0x00,0x00,0x00,0x00,0x00,0x00,0x00,0x00,0x00,0x00,
 0x00,0x00,0x00,0x00,0x00,0x00,0x00,0x00,0x00,0x00,0x00,0x00,0x00,0x00,0x00,
 0x00,0x00,0x00,0x00,0x00,0x00,0x55,0x00,0x00,0x00,0x00,0x00,0x00,0x00,0x00,
 0x00,0x00,0x00,0x00,0x00,0x00,0x00,0x00,0x00,0x00,0x00,0x00,0x00,0x00,0x00,
 0x00,0x00,0x00,0x00,0x00,0x00,0x00,0x00,0x00,0x00,0x02,0x00,0x00,0x00,0x00,
 0x00,0x00,0x00,0x00,0x00,0x00,0x00,0x00,0x00,0x00,0x00,0x00,0x00,0x00,0x00,
 0x00,0x00,0x00,0x00,0x00,0x00,0x00,0x00,0x00,0x00,0x00,0x00,0x00,0x80,0x52,
 0x00,0x00,0x00,0x00,0x00,0x00,0x00,0x00,0x00,0x00,0x00,0x00,0x00,0x00,0x00,
 0x00,0x00,0x00,0x00,0x00,0x00,0x00,0x00,0x00,0x00,0x00,0x00,0x00,0x00,0x00,
 0x00,0x00,0x00,0x02,0x00,0x00,0x00,0x00,0x00,0x00,0x00,0x00,0x00,0x00,0x00,
 0x00,0x00,0x00,0x00,0x00,0x00,0x00,0x00,0x00,0x00,0x00,0x00,0x00,0x00,0x00,
 0x00,0x00,0x00,0x00,0x00,0x00,0x40,0x11,0x00,0x00,0x00,0x00,0x00,0x00,0x00,
 0x00,0x00,0x00,0x00,0x00,0x00,0x00,0x00,0x00,0x00,0x00,0x00,0x00,0x00,0x00,
 0x00,0x00,0x00,0x00,0x00,0x00,0x00,0x00,0x00,0x00,0x80,0x04,0x00,0x00,0x00,
 0x00,0x00,0x00,0x00,0x00,0x00,0x00,0x00,0x00,0x00,0x00,0x00,0x00,0x00,0x00,
 0x00,0x00,0x00,0x00,0x00,0x00,0x00,0x00,0x00,0x00,0x00,0x00,0x00,0x00,0x40,
 0x00,0x00,0x00,0x00,0x00,0x00,0x00,0x00,0x00,0x00,0x00,0x00,0x00,0x00,0x00,
 0x00,0x00,0x00,0x00,0x00,0x00,0x00,0x00,0x00,0x00,0x00,0x00,0x00,0x00,0x00,
 0x00,0x00,0x00,0x00,0x09,0x00,0x00,0x00,0x00,0x00,0x00,0x00,0x00,0x00,0x00,
 0x00,0x00,0x00,0x00,0x00,0x00,0x00,0x00,0x00,0x00,0x00,0x00,0x00,0x00,0x00,
 0x00,0x00,0x00,0x00,0x00,0x00,0x00,0x20,0x00,0x00,0x00,0x00,0x00,0x00,0x00,
 0x00,0x00,0x00,0x00,0x00,0x00,0x00,0x00,0x00,0x00,0x00,0x00,0x00,0x00,0x00,
 0x00,0x00,0x00,0x00,0x00,0x00,0x00,0x00,0x00,0x00,0x00,0x00,0x01,0x00,0x00,
 0x00,0x00,0x00,0x00,0x00,0x00,0x00,0x00,0x00,0x00,0x00,0x00,0x00,0x00,0x00,
 0x00,0x00,0x00,0x00,0x00,0x00,0x00,0x00,0x00,0x00,0x00,0x00,0x00,0x00,0x00,
 0x00,0x00,0x00,0x00,0x00,0x00,0x00,0x00,0x00,0x00,0x00,0x00,0x00,0x00,0x00,
 0x00,0x00,0x00,0x00,0x00,0x00,0x00,0x00,0x00,0x00,0x00,0x00,0x00,0x00,0x00,
 0x00,0x00,0x00,0x00,0x80,0x00,0x00,0x00,0x00,0x00,0x00,0x00,0x00,0x00,0x00,
 0x00,0x00,0x00,0x00,0x00,0x00,0x00,0x00,0x00,0x00,0x00,0x00,0x00,0x00,0x00,
 0x00,0x00,0x00,0x00,0x00,0x00,0x00,0x00,0x00,0x00,0x00,0x00,0x00,0x00,0x00,
 0x00,0x00,0x00,0x00,0x00,0x00,0x00,0x00,0x00,0x00,0x00,0x00,0x00,0x00,0x00,
 0x00,0x00,0x00,0x00,0x00,0x00,0x00,0x00,0x00,0x00,0x00,0x00,0x40,0x00,0x00,
 0x00,0x00,0x00,0x00,0x00,0x00,0x00,0x00,0x00,0x00,0x00,0x00,0x00,0x00,0x00,
 0x00,0x00,0x00,0x00,0x00,0x00,0x00,0x00,0x00,0x00,0x00,0x00,0x00,0x00,0x00,
 0x00,0x00,0x00,0x00,0x00,0x00,0x00,0x00,0x00,0x00,0x00,0x00,0x00,0x00,0x00,
 0x00,0x00,0x00,0x00,0x00,0x00,0x00,0x00,0x00,0x00,0x00,0x00,0x00,0x00,0x00,
 0x00,0x00,0x00,0x00,0x00,0x20,0x00,0x00,0x00,0x00,0x00,0x00,0x00,0x00,0x00,
 0x00,0x00,0x00,0x00,0x00,0x00,0x00,0x00,0x00,0x00,0x00,0x00,0x00,0x00,0x00,
 0x00,0x00,0x00,0x00,0x00,0x00,0x00,0x00,0x00,0x00,0x00,0x00,0x00,0x00,0x00,
 0x00,0x00,0x00,0x00,0x00,0x00,0x00,0x00,0x00,0x00,0x00,0x00,0x00,0x00,0x00,
 0x00,0x00,0x00,0x00,0x00,0x00,0x00,0x00,0x00,0x00,0x00,0x00,0x00,0x00,0x00,
 0x00,0x00,0x00,0x00,0x00,0x00,0x00,0x00,0x00,0x00,0x00,0x00,0x00,0x00,0x00,
 0x00,0x00,0x00,0x00,0x00,0x00,0x00,0x00,0x00,0x00,0x00,0x00,0x00,0x00,0x00,
 0x00,0x00,0x00,0x00,0x00,0x00,0x00,0x00,0x00,0x00,0x00,0x00,0x00,0x00,0x00,
 0x00,0x00,0x00,0x00,0x00,0x00,0x00,0x00,0x00,0x00,0x00,0x00,0x00,0x00,0x00,
 0x00,0x00,0x00,0x00,0x00,0x00,0x00,0x00,0x00,0x00,0x00,0x00,0x00,0x00,0x00,
 0x00,0x00,0x00,0x00,0x00,0x00,0x00,0x00,0x00,0x00,0x00,0x00,0x00,0x00,0x00,
 0x00,0x00,0x00,0x00,0x00,0x00,0x00,0x00,0x00,0x00,0x00,0x00,0x00,0x00,0x00,
 0x00,0x00,0x00,0x00,0x00,0x00,0x00,0x00,0x00,0x00,0x00,0x00,0x00,0x00,0x00,
 0x00,0x00,0x00,0x00,0x00,0x00,0x00,0x00,0x00,0x00,0x00,0x00,0x00,0x00,0x00,
 0x00,0x00,0x00,0x00,0x00,0x00,0x00,0x00,0x00,0x00,0x00,0x00,0x00,0x00,0x00,
 0x00,0x00,0x00,0x00,0x00,0x00,0x00,0x00,0x00,0x00,0x00,0x00};
