#define noname_width 32
#define noname_height 32
static char noname_bits[] = {
 0x11,0x11,0x01,0x11,0x24,0x55,0x55,0x55,0x92,0x00,0x00,0x00,0x00,0x52,0x55,
 0x55,0x5b,0x19,0x0f,0x11,0x10,0xa2,0x59,0x4a,0x42,0x68,0x18,0x21,0x90,0x1a,
 0x56,0x10,0x1b,0x06,0x97,0x55,0x80,0x01,0x23,0x11,0x2a,0x81,0x20,0x44,0x80,
 0x02,0x42,0x11,0x1b,0x05,0xf8,0x55,0x40,0x0c,0x56,0x10,0x2a,0xf9,0x09,0x41,
 0x00,0x92,0x42,0x2a,0x5b,0x31,0x19,0x91,0x20,0x4a,0xa2,0x24,0x82,0x00,0x09,
 0x11,0x28,0xaa,0x40,0x44,0x95,0x11,0x1b,0x11,0x21,0x92,0x40,0x55,0x84,0x48,
 0x2a,0x80,0x29,0x02,0x80,0x2a,0x91,0xb9,0x1b,0x91,0x24,0x02,0x40,0x2a,0x12,
 0xa8,0x8a,0x80,0x40,0x05,0x20,0x29,0x1b,0xb1,0x15,0x95,0x40,0x0a,0x48,0x21,
 0x8a,0x50,0x21,0x84,0x20,0x04,0x08,0x21};
