#define noname_width 32
#define noname_height 32
static char noname_bits[] = {
 0x19,0x11,0x09,0x11,0xa2,0x54,0x45,0x4a,0x08,0x02,0x90,0x20,0x82,0x50,0x25,
 0x0a,0x39,0x13,0x8f,0xb1,0x82,0xc8,0x29,0x08,0x48,0x62,0x98,0x22,0x12,0x18,
 0x56,0x48,0x51,0x07,0x17,0x13,0x14,0x01,0xa3,0x50,0x42,0x81,0x60,0x02,0x10,
 0x03,0x42,0x54,0x53,0x06,0x78,0x11,0x90,0x08,0xae,0x4a,0x0a,0xfa,0x01,0x10,
 0xa0,0xa4,0x52,0x45,0x13,0x51,0x19,0x11,0x48,0x15,0x82,0x54,0x22,0x20,0x29,
 0x82,0x08,0x4a,0x80,0x28,0xb5,0x11,0x5b,0x91,0x01,0x54,0x01,0x2a,0x54,0x01,
 0x54,0x80,0x01,0xa4,0x02,0x2a,0xb5,0x11,0xb9,0x91,0x08,0x54,0x02,0x24,0xa2,
 0x80,0xa8,0x88,0x08,0x2a,0x04,0x22,0x35,0x91,0xb1,0x99,0x81,0x2a,0x0a,0x02,
 0x14,0x40,0x50,0x28,0x41,0x15,0x05,0x42};
